<?xml version="1.0" encoding="us-ascii" standalone="no"?><svg xmlns="http://www.w3.org/2000/svg" xmlns:xlink="http://www.w3.org/1999/xlink" contentStyleType="text/css" height="1022.9167px" preserveAspectRatio="none" style="width:1462px;height:1022px;background:#FFFFFF;" version="1.1" viewBox="0 0 1462 1022" width="1462.5px" zoomAndPan="magnify"><defs><filter height="300%" id="f8sgt96wjzc1n" width="300%" x="-1" y="-1"><feGaussianBlur result="blurOut" stdDeviation="2.0833333333333335"/><feColorMatrix in="blurOut" result="blurOut2" type="matrix" values="0 0 0 0 0 0 0 0 0 0 0 0 0 0 0 0 0 0 .4 0"/><feOffset dx="4.166666666666667" dy="4.166666666666667" in="blurOut2" result="blurOut3"/><feBlend in="SourceGraphic" in2="blurOut3" mode="normal"/></filter></defs><g><rect fill="none" filter="url(#f8sgt96wjzc1n)" height="870.3247" style="stroke:#CCCCCC;stroke-width:1.0416666666666667;" width="10.4167" x="192.7083" y="75.6083"/><rect fill="none" filter="url(#f8sgt96wjzc1n)" height="688.7248" style="stroke:#CCCCCC;stroke-width:1.0416666666666667;" width="10.4167" x="625" y="234.2916"/><rect fill="none" filter="url(#f8sgt96wjzc1n)" height="50.6083" style="stroke:#CCCCCC;stroke-width:1.0416666666666667;" width="10.4167" x="977.0833" y="414.8499"/><rect fill="none" filter="url(#f8sgt96wjzc1n)" height="50.6083" style="stroke:#CCCCCC;stroke-width:1.0416666666666667;" width="10.4167" x="1325" y="618.3248"/><rect fill="none" filter="url(#f8sgt96wjzc1n)" height="805.1331" rx="4.1667" ry="4.1667" style="stroke:#9803FC;stroke-width:1.0416666666666667;" width="1355.2083" x="89.5833" y="133.5083"/><rect fill="none" filter="url(#f8sgt96wjzc1n)" height="617.2831" rx="4.1667" ry="4.1667" style="stroke:#9803FC;stroke-width:1.0416666666666667;" width="1334.375" x="100" y="314.0666"/><line style="stroke:#CCCCCC;stroke-width:1.0416666666666667;stroke-dasharray:5.0,5.0;" x1="197.9167" x2="197.9167" y1="65.1917" y2="956.3497"/><line style="stroke:#CCCCCC;stroke-width:1.0416666666666667;stroke-dasharray:5.0,5.0;" x1="630.2083" x2="630.2083" y1="65.1917" y2="956.3497"/><line style="stroke:#CCCCCC;stroke-width:1.0416666666666667;stroke-dasharray:5.0,5.0;" x1="981.7708" x2="981.7708" y1="65.1917" y2="956.3497"/><line style="stroke:#CCCCCC;stroke-width:1.0416666666666667;stroke-dasharray:5.0,5.0;" x1="1330.2083" x2="1330.2083" y1="65.1917" y2="956.3497"/><rect fill="#FFFFFF" filter="url(#f8sgt96wjzc1n)" height="50.6083" rx="4.1667" ry="4.1667" style="stroke:#9803FC;stroke-width:1.0416666666666667;" width="88.5417" x="152.0833" y="10.4167"/><text fill="#9803FC" font-family="Verdana" font-size="12.5" lengthAdjust="spacing" textLength="53.125" x="169.7917" y="40.6921">Console</text><rect fill="#FFFFFF" filter="url(#f8sgt96wjzc1n)" height="50.6083" rx="4.1667" ry="4.1667" style="stroke:#9803FC;stroke-width:1.0416666666666667;" width="88.5417" x="152.0833" y="955.308"/><text fill="#9803FC" font-family="Verdana" font-size="12.5" lengthAdjust="spacing" textLength="53.125" x="169.7917" y="985.5835">Console</text><rect fill="#FFFFFF" filter="url(#f8sgt96wjzc1n)" height="50.6083" rx="4.1667" ry="4.1667" style="stroke:#9803FC;stroke-width:1.0416666666666667;" width="130.2083" x="563.5417" y="10.4167"/><text fill="#9803FC" font-family="Verdana" font-size="12.5" lengthAdjust="spacing" textLength="94.7917" x="581.25" y="40.6921">Autocompleter</text><rect fill="#FFFFFF" filter="url(#f8sgt96wjzc1n)" height="50.6083" rx="4.1667" ry="4.1667" style="stroke:#9803FC;stroke-width:1.0416666666666667;" width="130.2083" x="563.5417" y="955.308"/><text fill="#9803FC" font-family="Verdana" font-size="12.5" lengthAdjust="spacing" textLength="94.7917" x="581.25" y="985.5835">Autocompleter</text><rect fill="#FFFFFF" filter="url(#f8sgt96wjzc1n)" height="50.6083" rx="4.1667" ry="4.1667" style="stroke:#9803FC;stroke-width:1.0416666666666667;" width="143.75" x="908.8542" y="10.4167"/><text fill="#9803FC" font-family="Verdana" font-size="12.5" lengthAdjust="spacing" textLength="108.3333" x="926.5625" y="40.6921">CommandParser</text><rect fill="#FFFFFF" filter="url(#f8sgt96wjzc1n)" height="50.6083" rx="4.1667" ry="4.1667" style="stroke:#9803FC;stroke-width:1.0416666666666667;" width="143.75" x="908.8542" y="955.308"/><text fill="#9803FC" font-family="Verdana" font-size="12.5" lengthAdjust="spacing" textLength="108.3333" x="926.5625" y="985.5835">CommandParser</text><rect fill="#FFFFFF" filter="url(#f8sgt96wjzc1n)" height="50.6083" rx="4.1667" ry="4.1667" style="stroke:#9803FC;stroke-width:1.0416666666666667;" width="101.0417" x="1278.125" y="10.4167"/><text fill="#9803FC" font-family="Verdana" font-size="12.5" lengthAdjust="spacing" textLength="65.625" x="1295.8333" y="40.6921">Command</text><rect fill="#FFFFFF" filter="url(#f8sgt96wjzc1n)" height="50.6083" rx="4.1667" ry="4.1667" style="stroke:#9803FC;stroke-width:1.0416666666666667;" width="101.0417" x="1278.125" y="955.308"/><text fill="#9803FC" font-family="Verdana" font-size="12.5" lengthAdjust="spacing" textLength="65.625" x="1295.8333" y="985.5835">Command</text><rect fill="none" filter="url(#f8sgt96wjzc1n)" height="870.3247" style="stroke:#CCCCCC;stroke-width:1.0416666666666667;" width="10.4167" x="192.7083" y="75.6083"/><rect fill="none" filter="url(#f8sgt96wjzc1n)" height="688.7248" style="stroke:#CCCCCC;stroke-width:1.0416666666666667;" width="10.4167" x="625" y="234.2916"/><rect fill="none" filter="url(#f8sgt96wjzc1n)" height="50.6083" style="stroke:#CCCCCC;stroke-width:1.0416666666666667;" width="10.4167" x="977.0833" y="414.8499"/><rect fill="none" filter="url(#f8sgt96wjzc1n)" height="50.6083" style="stroke:#CCCCCC;stroke-width:1.0416666666666667;" width="10.4167" x="1325" y="618.3248"/><polygon fill="#9803FC" points="180.2083,113.7166,190.625,117.8833,180.2083,122.05,184.375,117.8833" style="stroke:#9803FC;stroke-width:1.0416666666666667;"/><line style="stroke:#9803FC;stroke-width:3.125;" x1="10.4167" x2="186.4583" y1="117.8833" y2="117.8833"/><text fill="#222222" font-family="Verdana" font-size="12.5" lengthAdjust="spacing" textLength="141.6667" x="28.125" y="102.7588">Keyboard input event</text><path d="M93.75,133.5083 L175,133.5083 L175,161.2 L164.5833,171.6166 L89.5833,171.6166 L89.5833,137.675 A4.1667,4.1667 0 0 1 93.75,133.5083 " fill="#FFFFFF" style="stroke:#9803FC;stroke-width:1.0416666666666667;"/><rect fill="none" height="805.1331" rx="4.1667" ry="4.1667" style="stroke:#9803FC;stroke-width:1.0416666666666667;" width="1355.2083" x="89.5833" y="133.5083"/><text fill="#9C27B0" font-family="Verdana" font-size="12.5" font-weight="bold" lengthAdjust="spacing" textLength="17.7083" x="115.625" y="157.5338">alt</text><text fill="#222222" font-family="Verdana" font-size="12.5" font-weight="bold" lengthAdjust="spacing" textLength="515.625" x="201.0417" y="158.5754">[key != Key.TAB and key != Key.SHIFT+TAB and the key modifies the text]</text><polygon fill="#9803FC" points="612.5,230.1249,622.9167,234.2916,612.5,238.4583,616.6667,234.2916" style="stroke:#9803FC;stroke-width:1.0416666666666667;"/><line style="stroke:#9803FC;stroke-width:3.125;" x1="203.125" x2="618.75" y1="234.2916" y2="234.2916"/><text fill="#222222" font-family="Verdana" font-size="12.5" lengthAdjust="spacing" textLength="106.25" x="220.8333" y="219.1671">buildPrediction()</text><line style="stroke:#9803FC;stroke-width:3.125;" x1="635.4167" x2="679.1667" y1="284.8999" y2="284.8999"/><line style="stroke:#9803FC;stroke-width:3.125;" x1="679.1667" x2="679.1667" y1="284.8999" y2="298.4416"/><line style="stroke:#9803FC;stroke-width:3.125;" x1="636.4583" x2="679.1667" y1="298.4416" y2="298.4416"/><polygon fill="#9803FC" points="646.875,294.2749,636.4583,298.4416,646.875,302.6082,642.7083,298.4416" style="stroke:#9803FC;stroke-width:1.0416666666666667;"/><text fill="#222222" font-family="Verdana" font-size="12.5" lengthAdjust="spacing" textLength="306.25" x="653.125" y="269.7754">Calculates number of space separated tokens.</text><path d="M104.1667,314.0666 L185.4167,314.0666 L185.4167,341.7582 L175,352.1749 L100,352.1749 L100,318.2332 A4.1667,4.1667 0 0 1 104.1667,314.0666 " fill="#FFFFFF" style="stroke:#9803FC;stroke-width:1.0416666666666667;"/><rect fill="none" height="617.2831" rx="4.1667" ry="4.1667" style="stroke:#9803FC;stroke-width:1.0416666666666667;" width="1334.375" x="100" y="314.0666"/><text fill="#9C27B0" font-family="Verdana" font-size="12.5" font-weight="bold" lengthAdjust="spacing" textLength="17.7083" x="126.0417" y="338.092">alt</text><text fill="#222222" font-family="Verdana" font-size="12.5" font-weight="bold" lengthAdjust="spacing" textLength="292.7083" x="211.4583" y="339.1337">[tokens number = 1 and there is no space]</text><polygon fill="#9803FC" points="964.5833,410.6832,975,414.8499,964.5833,419.0165,968.75,414.8499" style="stroke:#9803FC;stroke-width:1.0416666666666667;"/><line style="stroke:#9803FC;stroke-width:3.125;" x1="635.4167" x2="970.8333" y1="414.8499" y2="414.8499"/><text fill="#222222" font-family="Verdana" font-size="12.5" lengthAdjust="spacing" textLength="105.2083" x="653.125" y="399.7253">getCommands()</text><polygon fill="#9803FC" points="646.875,461.2915,636.4583,465.4582,646.875,469.6248,642.7083,465.4582" style="stroke:#9803FC;stroke-width:1.0416666666666667;"/><line style="stroke:#9803FC;stroke-width:3.125;stroke-dasharray:2.0,2.0;" x1="640.625" x2="981.25" y1="465.4582" y2="465.4582"/><text fill="#222222" font-family="Verdana" font-size="12.5" lengthAdjust="spacing" textLength="205.2083" x="663.5417" y="450.3337">Returns all enabled commands.</text><line style="stroke:#9803FC;stroke-width:1.0416666666666667;stroke-dasharray:2.0,2.0;" x1="100" x2="1434.375" y1="474.8332" y2="474.8332"/><text fill="#222222" font-family="Verdana" font-size="12.5" font-weight="bold" lengthAdjust="spacing" textLength="276.0417" x="115.625" y="497.817">[tokens number &gt; 1 or ends with space]</text><line style="stroke:#9803FC;stroke-width:3.125;" x1="635.4167" x2="679.1667" y1="554.1748" y2="554.1748"/><line style="stroke:#9803FC;stroke-width:3.125;" x1="679.1667" x2="679.1667" y1="554.1748" y2="567.7165"/><line style="stroke:#9803FC;stroke-width:3.125;" x1="636.4583" x2="679.1667" y1="567.7165" y2="567.7165"/><polygon fill="#9803FC" points="646.875,563.5498,636.4583,567.7165,646.875,571.8831,642.7083,567.7165" style="stroke:#9803FC;stroke-width:1.0416666666666667;"/><text fill="#222222" font-family="Verdana" font-size="12.5" lengthAdjust="spacing" textLength="275" x="653.125" y="539.0503">Find the command from the last - 1 token.</text><polygon fill="#9803FC" points="1312.5,614.1581,1322.9167,618.3248,1312.5,622.4915,1316.6667,618.3248" style="stroke:#9803FC;stroke-width:1.0416666666666667;"/><line style="stroke:#9803FC;stroke-width:3.125;" x1="635.4167" x2="1318.75" y1="618.3248" y2="618.3248"/><text fill="#222222" font-family="Verdana" font-size="12.5" lengthAdjust="spacing" textLength="445.8333" x="653.125" y="603.2003">Find if the command supports additional arguments using reflection.</text><polygon fill="#9803FC" points="646.875,664.7664,636.4583,668.9331,646.875,673.0998,642.7083,668.9331" style="stroke:#9803FC;stroke-width:1.0416666666666667;"/><line style="stroke:#9803FC;stroke-width:3.125;stroke-dasharray:2.0,2.0;" x1="640.625" x2="1329.1667" y1="668.9331" y2="668.9331"/><text fill="#222222" font-family="Verdana" font-size="12.5" lengthAdjust="spacing" textLength="643.75" x="663.5417" y="653.8086">List of additional arguments (empty if there the command does not support additional arguments)</text><line style="stroke:#9803FC;stroke-width:3.125;" x1="635.4167" x2="679.1667" y1="719.5414" y2="719.5414"/><line style="stroke:#9803FC;stroke-width:3.125;" x1="679.1667" x2="679.1667" y1="719.5414" y2="733.0831"/><line style="stroke:#9803FC;stroke-width:3.125;" x1="636.4583" x2="679.1667" y1="733.0831" y2="733.0831"/><polygon fill="#9803FC" points="646.875,728.9164,636.4583,733.0831,646.875,737.2498,642.7083,733.0831" style="stroke:#9803FC;stroke-width:1.0416666666666667;"/><text fill="#222222" font-family="Verdana" font-size="12.5" lengthAdjust="spacing" textLength="211.4583" x="653.125" y="704.4169">Computes possible completions.</text><polygon fill="#9803FC" points="214.5833,779.5247,204.1667,783.6914,214.5833,787.8581,210.4167,783.6914" style="stroke:#9803FC;stroke-width:1.0416666666666667;"/><line style="stroke:#9803FC;stroke-width:3.125;stroke-dasharray:2.0,2.0;" x1="208.3333" x2="623.9583" y1="783.6914" y2="783.6914"/><text fill="#222222" font-family="Verdana" font-size="12.5" lengthAdjust="spacing" textLength="207.2917" x="231.25" y="768.5669">Possibile choces for completion.</text><line style="stroke:#9803FC;stroke-width:1.0416666666666667;stroke-dasharray:2.0,2.0;" x1="100" x2="1434.375" y1="793.0664" y2="793.0664"/><text fill="#222222" font-family="Verdana" font-size="12.5" font-weight="bold" lengthAdjust="spacing" textLength="273.9583" x="115.625" y="816.0502">[key=Key.TAB or key=Key.SHIFT+TAB]</text><polygon fill="#9803FC" points="612.5,868.2414,622.9167,872.408,612.5,876.5747,616.6667,872.408" style="stroke:#9803FC;stroke-width:1.0416666666666667;"/><line style="stroke:#9803FC;stroke-width:3.125;" x1="203.125" x2="618.75" y1="872.408" y2="872.408"/><text fill="#222222" font-family="Verdana" font-size="12.5" lengthAdjust="spacing" textLength="189.5833" x="220.8333" y="857.2835">operate(input, shiftDirection)</text><polygon fill="#9803FC" points="214.5833,918.8497,204.1667,923.0164,214.5833,927.183,210.4167,923.0164" style="stroke:#9803FC;stroke-width:1.0416666666666667;"/><line style="stroke:#9803FC;stroke-width:3.125;stroke-dasharray:2.0,2.0;" x1="208.3333" x2="629.1667" y1="923.0164" y2="923.0164"/><text fill="#222222" font-family="Verdana" font-size="12.5" lengthAdjust="spacing" textLength="376.0417" x="231.25" y="907.8918">Returns a list with all predictions and the suggested one.</text><!--SRC=[ZLJRRjf047tVhvYeBw0MrAelBHAHW8gsQX-Y9Z-ms6EpOhsptKjILFNVErviOeCXGKA2kPmvCtDcRy8MAuHA1dHAJYW6hGmAuNVAMEba1Gldw6b5cXoy-Vpf_SSYwpYNCjkLZgB9cuXr-hmsVP45SajoERgh8MiouJh6AO-pi3lfWigKbIPSG-k4NUVL3Nnn27y5tEFlY2R3hnneXw3_2M6VCM55nfF6dcqH0sLKMOsyhPFegf8cPr9-s2E4a5bGZxpd8_JajlqvWn-utv1qEJ3b600VqGGXTO0Txk5cNlkd3uibC5JNTF_j-_hXRUjWBILdHRag5Ffa2FWd26Wh0HVjjJ63JLGwltEOAoP8PZJcw2FNViliwHa6q5PIPr5pgWSJgmt7K07UoWp1OxsDW4oKTcZyj2x4BHx-jU5p-D0sun0Ks-cGpz43vNkJdq69eR7ur4YdbVwEQbVF0fFpPdvXY8wfIQq1ZTnevfuryDC4aUD5VDGUJtgxvTvOSiZfyAJ2jcbikBCJBclLRBWX08MZAXcqz04c39sAJSNLGJL0gkXX-MWjkS2TvhcgLI0rI5V6YcNe8NfbId1OQ4mIcGuEjZlIeM7-L4oJnJ1OOeIL3Vk65k-zIowdMamKMfQ32ECBwtZTS3cOpuxBMF9UyPwXSNALPjCd4DtZlKj9gixQKiOe1I_v6I1j9Ac1ZtFUNZA7j7-FLzoCyDAbaiNwVaRfZNW7VgkAy4MvmrB6Bx4yYXbqlOcalrhOzdZw_lYA-5YMwEjJ9ODdIZzx55ZGelxsndzuvFu3]--></g></svg>