<?xml version="1.0" encoding="us-ascii" standalone="no"?><svg xmlns="http://www.w3.org/2000/svg" xmlns:xlink="http://www.w3.org/1999/xlink" contentStyleType="text/css" height="1100px" preserveAspectRatio="none" style="width:1473px;height:1100px;background:#FFFFFF;" version="1.1" viewBox="0 0 1473 1100" width="1473.9583px" zoomAndPan="magnify"><defs><filter height="300%" id="f5ofaywbcqa3u" width="300%" x="-1" y="-1"><feGaussianBlur result="blurOut" stdDeviation="2.0833333333333335"/><feColorMatrix in="blurOut" result="blurOut2" type="matrix" values="0 0 0 0 0 0 0 0 0 0 0 0 0 0 0 0 0 0 .4 0"/><feOffset dx="4.166666666666667" dy="4.166666666666667" in="blurOut2" result="blurOut3"/><feBlend in="SourceGraphic" in2="blurOut3" mode="normal"/></filter></defs><g><rect fill="none" filter="url(#f5ofaywbcqa3u)" height="794.2383" rx="4.1667" ry="4.1667" style="stroke:#9803FC;stroke-width:1.0416666666666667;" width="1320.8333" x="135.9375" y="180.1432"/><rect fill="none" filter="url(#f5ofaywbcqa3u)" height="358.0729" rx="4.1667" ry="4.1667" style="stroke:#9803FC;stroke-width:1.0416666666666667;" width="911.4583" x="534.8958" y="358.138"/><line style="stroke:#CCCCCC;stroke-width:1.0416666666666667;stroke-dasharray:5.0,5.0;" x1="48.9583" x2="48.9583" y1="112.4674" y2="992.0898"/><line style="stroke:#CCCCCC;stroke-width:1.0416666666666667;stroke-dasharray:5.0,5.0;" x1="232.8125" x2="232.8125" y1="112.4674" y2="992.0898"/><line style="stroke:#CCCCCC;stroke-width:1.0416666666666667;stroke-dasharray:5.0,5.0;" x1="653.6458" x2="653.6458" y1="112.4674" y2="992.0898"/><line style="stroke:#CCCCCC;stroke-width:1.0416666666666667;stroke-dasharray:5.0,5.0;" x1="996.875" x2="996.875" y1="112.4674" y2="992.0898"/><line style="stroke:#CCCCCC;stroke-width:1.0416666666666667;stroke-dasharray:5.0,5.0;" x1="1342.1875" x2="1342.1875" y1="112.4674" y2="992.0898"/><text fill="#9803FC" font-family="Verdana" font-size="12.5" lengthAdjust="spacing" textLength="39.5833" x="26.0417" y="99.1028">Player</text><ellipse cx="48.9583" cy="19.7917" fill="#9803FC" filter="url(#f5ofaywbcqa3u)" rx="8.3333" ry="8.3333" style="stroke:#9803FC;stroke-width:1.0416666666666667;"/><path d="M48.9583,28.125 L48.9583,56.25 M35.4167,36.4583 L62.5,36.4583 M48.9583,56.25 L35.4167,71.875 M48.9583,56.25 L62.5,71.875 " fill="none" filter="url(#f5ofaywbcqa3u)" style="stroke:#9803FC;stroke-width:1.0416666666666667;"/><text fill="#9803FC" font-family="Verdana" font-size="12.5" lengthAdjust="spacing" textLength="39.5833" x="26.0417" y="1013.0676">Player</text><ellipse cx="48.9583" cy="1035.8073" fill="#9803FC" filter="url(#f5ofaywbcqa3u)" rx="8.3333" ry="8.3333" style="stroke:#9803FC;stroke-width:1.0416666666666667;"/><path d="M48.9583,1044.1406 L48.9583,1072.2656 M35.4167,1052.474 L62.5,1052.474 M48.9583,1072.2656 L35.4167,1087.8906 M48.9583,1072.2656 L62.5,1087.8906 " fill="none" filter="url(#f5ofaywbcqa3u)" style="stroke:#9803FC;stroke-width:1.0416666666666667;"/><rect fill="#FFFFFF" filter="url(#f5ofaywbcqa3u)" height="49.9674" rx="4.1667" ry="4.1667" style="stroke:#9803FC;stroke-width:1.0416666666666667;" width="87.5" x="188.0208" y="58.3333"/><text fill="#9803FC" font-family="Verdana" font-size="12.5" lengthAdjust="spacing" textLength="52.0833" x="205.7292" y="87.6444">Console</text><rect fill="#FFFFFF" filter="url(#f5ofaywbcqa3u)" height="49.9674" rx="4.1667" ry="4.1667" style="stroke:#9803FC;stroke-width:1.0416666666666667;" width="87.5" x="188.0208" y="991.0482"/><text fill="#9803FC" font-family="Verdana" font-size="12.5" lengthAdjust="spacing" textLength="52.0833" x="205.7292" y="1020.3593">Console</text><rect fill="#FFFFFF" filter="url(#f5ofaywbcqa3u)" height="49.9674" rx="4.1667" ry="4.1667" style="stroke:#9803FC;stroke-width:1.0416666666666667;" width="131.25" x="586.9792" y="58.3333"/><text fill="#9803FC" font-family="Verdana" font-size="12.5" lengthAdjust="spacing" textLength="95.8333" x="604.6875" y="87.6444">Autocompleter</text><rect fill="#FFFFFF" filter="url(#f5ofaywbcqa3u)" height="49.9674" rx="4.1667" ry="4.1667" style="stroke:#9803FC;stroke-width:1.0416666666666667;" width="131.25" x="586.9792" y="991.0482"/><text fill="#9803FC" font-family="Verdana" font-size="12.5" lengthAdjust="spacing" textLength="95.8333" x="604.6875" y="1020.3593">Autocompleter</text><rect fill="#FFFFFF" filter="url(#f5ofaywbcqa3u)" height="49.9674" rx="4.1667" ry="4.1667" style="stroke:#9803FC;stroke-width:1.0416666666666667;" width="142.7083" x="923.9583" y="58.3333"/><text fill="#9803FC" font-family="Verdana" font-size="12.5" lengthAdjust="spacing" textLength="107.2917" x="941.6667" y="87.6444">CommandParser</text><rect fill="#FFFFFF" filter="url(#f5ofaywbcqa3u)" height="49.9674" rx="4.1667" ry="4.1667" style="stroke:#9803FC;stroke-width:1.0416666666666667;" width="142.7083" x="923.9583" y="991.0482"/><text fill="#9803FC" font-family="Verdana" font-size="12.5" lengthAdjust="spacing" textLength="107.2917" x="941.6667" y="1020.3593">CommandParser</text><rect fill="#FFFFFF" filter="url(#f5ofaywbcqa3u)" height="49.9674" rx="4.1667" ry="4.1667" style="stroke:#9803FC;stroke-width:1.0416666666666667;" width="100" x="1291.1458" y="58.3333"/><text fill="#9803FC" font-family="Verdana" font-size="12.5" lengthAdjust="spacing" textLength="64.5833" x="1308.8542" y="87.6444">Command</text><rect fill="#FFFFFF" filter="url(#f5ofaywbcqa3u)" height="49.9674" rx="4.1667" ry="4.1667" style="stroke:#9803FC;stroke-width:1.0416666666666667;" width="100" x="1291.1458" y="991.0482"/><text fill="#9803FC" font-family="Verdana" font-size="12.5" lengthAdjust="spacing" textLength="64.5833" x="1308.8542" y="1020.3593">Command</text><polygon fill="#9803FC" points="220.8333,160.3516,231.25,164.5182,220.8333,168.6849,225,164.5182" style="stroke:#9803FC;stroke-width:1.0416666666666667;"/><line style="stroke:#9803FC;stroke-width:3.125;" x1="48.9583" x2="227.0833" y1="164.5182" y2="164.5182"/><text fill="#222222" font-family="Verdana" font-size="12.5" lengthAdjust="spacing" textLength="138.5417" x="66.6667" y="149.0702">Keyboard input event</text><path d="M140.1042,180.1432 L223.4375,180.1432 L223.4375,207.194 L213.0208,217.6107 L135.9375,217.6107 L135.9375,184.3099 A4.1667,4.1667 0 0 1 140.1042,180.1432 " fill="#FFFFFF" style="stroke:#9803FC;stroke-width:1.0416666666666667;"/><rect fill="none" height="794.2383" rx="4.1667" ry="4.1667" style="stroke:#9803FC;stroke-width:1.0416666666666667;" width="1320.8333" x="135.9375" y="180.1432"/><text fill="#9C27B0" font-family="Verdana" font-size="12.5" font-weight="bold" lengthAdjust="spacing" textLength="19.7917" x="161.9792" y="203.2043">alt</text><text fill="#222222" font-family="Verdana" font-size="12.5" font-weight="bold" lengthAdjust="spacing" textLength="537.5" x="249.4792" y="204.246">[key != Key.TAB and key != Key.SHIFT+TAB and the key modifies the text]</text><polygon fill="#9803FC" points="641.6667,274.8372,652.0833,279.0039,641.6667,283.1706,645.8333,279.0039" style="stroke:#9803FC;stroke-width:1.0416666666666667;"/><line style="stroke:#9803FC;stroke-width:3.125;" x1="233.3333" x2="647.9167" y1="279.0039" y2="279.0039"/><text fill="#222222" font-family="Verdana" font-size="12.5" lengthAdjust="spacing" textLength="107.2917" x="251.0417" y="263.5559">buildPrediction()</text><line style="stroke:#9803FC;stroke-width:3.125;" x1="654.1667" x2="697.9167" y1="328.9714" y2="328.9714"/><line style="stroke:#9803FC;stroke-width:3.125;" x1="697.9167" x2="697.9167" y1="328.9714" y2="342.513"/><line style="stroke:#9803FC;stroke-width:3.125;" x1="655.2083" x2="697.9167" y1="342.513" y2="342.513"/><polygon fill="#9803FC" points="665.625,338.3464,655.2083,342.513,665.625,346.6797,661.4583,342.513" style="stroke:#9803FC;stroke-width:1.0416666666666667;"/><text fill="#222222" font-family="Verdana" font-size="12.5" lengthAdjust="spacing" textLength="307.2917" x="671.875" y="313.5234">Calculates number of space separated tokens.</text><path d="M539.0625,358.138 L622.3958,358.138 L622.3958,385.1888 L611.9792,395.6055 L534.8958,395.6055 L534.8958,362.3047 A4.1667,4.1667 0 0 1 539.0625,358.138 " fill="#FFFFFF" style="stroke:#9803FC;stroke-width:1.0416666666666667;"/><rect fill="none" height="358.0729" rx="4.1667" ry="4.1667" style="stroke:#9803FC;stroke-width:1.0416666666666667;" width="911.4583" x="534.8958" y="358.138"/><text fill="#9C27B0" font-family="Verdana" font-size="12.5" font-weight="bold" lengthAdjust="spacing" textLength="19.7917" x="560.9375" y="381.1991">alt</text><text fill="#222222" font-family="Verdana" font-size="12.5" font-weight="bold" lengthAdjust="spacing" textLength="313.5417" x="648.4375" y="382.2408">[tokens number = 1 and there is no space]</text><polygon fill="#9803FC" points="984.375,452.832,994.7917,456.9987,984.375,461.1654,988.5417,456.9987" style="stroke:#9803FC;stroke-width:1.0416666666666667;"/><line style="stroke:#9803FC;stroke-width:3.125;" x1="654.1667" x2="990.625" y1="456.9987" y2="456.9987"/><text fill="#222222" font-family="Verdana" font-size="12.5" lengthAdjust="spacing" textLength="104.1667" x="671.875" y="441.5507">getCommands()</text><polygon fill="#9803FC" points="665.625,502.7995,655.2083,506.9661,665.625,511.1328,661.4583,506.9661" style="stroke:#9803FC;stroke-width:1.0416666666666667;"/><line style="stroke:#9803FC;stroke-width:3.125;stroke-dasharray:2.0,2.0;" x1="659.375" x2="995.8333" y1="506.9661" y2="506.9661"/><text fill="#222222" font-family="Verdana" font-size="12.5" lengthAdjust="spacing" textLength="206.25" x="682.2917" y="491.5181">Returns all enabled commands.</text><line style="stroke:#9803FC;stroke-width:1.0416666666666667;stroke-dasharray:2.0,2.0;" x1="534.8958" x2="1446.3542" y1="516.3411" y2="516.3411"/><text fill="#222222" font-family="Verdana" font-size="12.5" font-weight="bold" lengthAdjust="spacing" textLength="293.75" x="550.5208" y="538.3606">[tokens number &gt; 1 or ends with space]</text><line style="stroke:#9803FC;stroke-width:3.125;" x1="654.1667" x2="697.9167" y1="594.401" y2="594.401"/><line style="stroke:#9803FC;stroke-width:3.125;" x1="697.9167" x2="697.9167" y1="594.401" y2="607.9427"/><line style="stroke:#9803FC;stroke-width:3.125;" x1="655.2083" x2="697.9167" y1="607.9427" y2="607.9427"/><polygon fill="#9803FC" points="665.625,603.776,655.2083,607.9427,665.625,612.1094,661.4583,607.9427" style="stroke:#9803FC;stroke-width:1.0416666666666667;"/><text fill="#222222" font-family="Verdana" font-size="12.5" lengthAdjust="spacing" textLength="275" x="671.875" y="578.953">Find the command from the last - 1 token.</text><polygon fill="#9803FC" points="1330.2083,653.7435,1340.625,657.9102,1330.2083,662.0768,1334.375,657.9102" style="stroke:#9803FC;stroke-width:1.0416666666666667;"/><line style="stroke:#9803FC;stroke-width:3.125;" x1="654.1667" x2="1336.4583" y1="657.9102" y2="657.9102"/><text fill="#222222" font-family="Verdana" font-size="12.5" lengthAdjust="spacing" textLength="447.9167" x="671.875" y="642.4622">Find if the command supports additional arguments using reflection.</text><polygon fill="#9803FC" points="665.625,703.7109,655.2083,707.8776,665.625,712.0443,661.4583,707.8776" style="stroke:#9803FC;stroke-width:1.0416666666666667;"/><line style="stroke:#9803FC;stroke-width:3.125;stroke-dasharray:2.0,2.0;" x1="659.375" x2="1341.6667" y1="707.8776" y2="707.8776"/><text fill="#222222" font-family="Verdana" font-size="12.5" lengthAdjust="spacing" textLength="642.7083" x="682.2917" y="692.4296">List of additional arguments (empty if there the command does not support additional arguments)</text><line style="stroke:#9803FC;stroke-width:3.125;" x1="654.1667" x2="697.9167" y1="765.1367" y2="765.1367"/><line style="stroke:#9803FC;stroke-width:3.125;" x1="697.9167" x2="697.9167" y1="765.1367" y2="778.6784"/><line style="stroke:#9803FC;stroke-width:3.125;" x1="655.2083" x2="697.9167" y1="778.6784" y2="778.6784"/><polygon fill="#9803FC" points="665.625,774.5117,655.2083,778.6784,665.625,782.8451,661.4583,778.6784" style="stroke:#9803FC;stroke-width:1.0416666666666667;"/><text fill="#222222" font-family="Verdana" font-size="12.5" lengthAdjust="spacing" textLength="211.4583" x="671.875" y="749.6887">Computes possible completions.</text><polygon fill="#9803FC" points="244.7917,824.4792,234.375,828.6458,244.7917,832.8125,240.625,828.6458" style="stroke:#9803FC;stroke-width:1.0416666666666667;"/><line style="stroke:#9803FC;stroke-width:3.125;stroke-dasharray:2.0,2.0;" x1="238.5417" x2="653.125" y1="828.6458" y2="828.6458"/><text fill="#222222" font-family="Verdana" font-size="12.5" lengthAdjust="spacing" textLength="210.4167" x="261.4583" y="813.1978">Possibile choces for completion.</text><line style="stroke:#9803FC;stroke-width:1.0416666666666667;stroke-dasharray:2.0,2.0;" x1="135.9375" x2="1456.7708" y1="838.0208" y2="838.0208"/><text fill="#222222" font-family="Verdana" font-size="12.5" font-weight="bold" lengthAdjust="spacing" textLength="277.0833" x="151.5625" y="860.0403">[key=Key.TAB or key=Key.SHIFT+TAB]</text><polygon fill="#9803FC" points="641.6667,911.9141,652.0833,916.0807,641.6667,920.2474,645.8333,916.0807" style="stroke:#9803FC;stroke-width:1.0416666666666667;"/><line style="stroke:#9803FC;stroke-width:3.125;" x1="233.3333" x2="647.9167" y1="916.0807" y2="916.0807"/><text fill="#222222" font-family="Verdana" font-size="12.5" lengthAdjust="spacing" textLength="190.625" x="251.0417" y="900.6327">operate(input, shiftDirection)</text><polygon fill="#9803FC" points="244.7917,961.8815,234.375,966.0482,244.7917,970.2148,240.625,966.0482" style="stroke:#9803FC;stroke-width:1.0416666666666667;"/><line style="stroke:#9803FC;stroke-width:3.125;stroke-dasharray:2.0,2.0;" x1="238.5417" x2="653.125" y1="966.0482" y2="966.0482"/><text fill="#222222" font-family="Verdana" font-size="12.5" lengthAdjust="spacing" textLength="375" x="261.4583" y="950.6002">Returns a list with all predictions and the suggested one.</text><!--SRC=[ZLDDZzD03BtdLtZ5fIks4OWBLEfARL41mQ5YzmzC4oSTTJ8UveEbGlntFDEacxIXR4wj_Vpyndw-yJji41hXqKenfU2Lr9XbRY-r4LOqiB2MdbQaoCAh3-_VlAkANd8fYdrjAUYoHQpJzzBoHU79BicMQAz2rgJzTOvp7HUmZR1U5j88xQ-nzM3NTVM1_nt2xmmUy4T0NU0d1fenwZzP9k9JOAF40MrcdXl0YhGZXOFO8dWgg34A_GMwQOGkMQ4RpsJy7Rl0zBuZdy5NF6n9s19OTl20Fr7xJ2WFUpp0pJpcyyV54fYX7thu_6Nz-BfBi9zIig5ILX9T2dZyvJFeEiMc0_Kps0Qfoet5KXPUafxSCde06QbP2LK4nSPre4EpPGnLu8me41p6kNjaERH7xVAC-U9BZdyx_1pUTfejWkGu7GaOFT9_CDSPrEZRY4jwOGY0wQNax-Y3vVv2AK0jjeeL5Yr7pXIe79vfl6UDR0fa13n9lsi5ZYiyQxUMxKBQ7b1PQb902UTXojIfMPvTVN1B9Ai1bml6aFNycBAKSMb2WR1rQDWr3eAJkWQBbSAqqRm_eB7HV9EiY1SuoZR1nlX3gu1NrTTHKZG0-KxGA4FS3qRZly1M_3D4KnboJlAAe4qovT58Pmpz4zga6XcBTbGmISMxUwvFvMd9V2BpxfuOqlqztL8xhd_T2ncC_fwaIxq3jvEL_oZjSTQtOzligppP45ISUh9LjAGv7Q0xtR8BTOqkdX9fp8zZ_0i0]--></g></svg>