<?xml version="1.0" encoding="us-ascii" standalone="no"?><svg xmlns="http://www.w3.org/2000/svg" xmlns:xlink="http://www.w3.org/1999/xlink" contentStyleType="text/css" height="1363.5417px" preserveAspectRatio="none" style="width:1659px;height:1363px;background:#FFFFFF;" version="1.1" viewBox="0 0 1659 1363" width="1659.375px" zoomAndPan="magnify"><defs><filter height="300%" id="f1ed5m7bklm8eh" width="300%" x="-1" y="-1"><feGaussianBlur result="blurOut" stdDeviation="2.0833333333333335"/><feColorMatrix in="blurOut" result="blurOut2" type="matrix" values="0 0 0 0 0 0 0 0 0 0 0 0 0 0 0 0 0 0 .4 0"/><feOffset dx="4.166666666666667" dy="4.166666666666667" in="blurOut2" result="blurOut3"/><feBlend in="SourceGraphic" in2="blurOut3" mode="normal"/></filter></defs><g><rect fill="none" filter="url(#f1ed5m7bklm8eh)" height="1170.0521" style="stroke:#CCCCCC;stroke-width:1.0416666666666667;" width="10.4167" x="167.1875" y="116.6016"/><rect fill="none" filter="url(#f1ed5m7bklm8eh)" height="14.5833" style="stroke:#CCCCCC;stroke-width:1.0416666666666667;" width="10.4167" x="555.7292" y="166.569"/><rect fill="none" filter="url(#f1ed5m7bklm8eh)" height="14.5833" style="stroke:#CCCCCC;stroke-width:1.0416666666666667;" width="10.4167" x="767.7083" y="231.1198"/><rect fill="none" filter="url(#f1ed5m7bklm8eh)" height="14.5833" style="stroke:#CCCCCC;stroke-width:1.0416666666666667;" width="10.4167" x="938.5417" y="682.8776"/><rect fill="none" filter="url(#f1ed5m7bklm8eh)" height="14.5833" style="stroke:#CCCCCC;stroke-width:1.0416666666666667;" width="10.4167" x="1129.1667" y="295.6706"/><rect fill="none" filter="url(#f1ed5m7bklm8eh)" height="14.5833" style="stroke:#CCCCCC;stroke-width:1.0416666666666667;" width="10.4167" x="1346.3542" y="553.8086"/><rect fill="none" filter="url(#f1ed5m7bklm8eh)" height="14.5833" style="stroke:#CCCCCC;stroke-width:1.0416666666666667;" width="10.4167" x="1545.3125" y="424.7396"/><rect fill="none" filter="url(#f1ed5m7bklm8eh)" height="818.1641" rx="4.1667" ry="4.1667" style="stroke:#9803FC;stroke-width:1.0416666666666667;" width="1621.3542" x="20.8333" y="325.8789"/><rect fill="none" filter="url(#f1ed5m7bklm8eh)" height="681.8034" rx="4.1667" ry="4.1667" style="stroke:#9803FC;stroke-width:1.0416666666666667;" width="1458.8542" x="31.25" y="454.9479"/><rect fill="none" filter="url(#f1ed5m7bklm8eh)" height="545.4427" rx="4.1667" ry="4.1667" style="stroke:#9803FC;stroke-width:1.0416666666666667;" width="1438.0208" x="41.6667" y="584.0169"/><rect fill="none" filter="url(#f1ed5m7bklm8eh)" height="258.138" rx="4.1667" ry="4.1667" style="stroke:#9803FC;stroke-width:1.0416666666666667;" width="1417.1875" x="52.0833" y="776.5951"/><rect fill="none" filter="url(#f1ed5m7bklm8eh)" height="120.7357" rx="4.1667" ry="4.1667" style="stroke:#9803FC;stroke-width:1.0416666666666667;" width="431.25" x="52.0833" y="1158.6263"/><line style="stroke:#CCCCCC;stroke-width:1.0416666666666667;stroke-dasharray:5.0,5.0;" x1="171.875" x2="171.875" y1="64.5508" y2="1297.0703"/><line style="stroke:#CCCCCC;stroke-width:1.0416666666666667;stroke-dasharray:5.0,5.0;" x1="560.9375" x2="560.9375" y1="64.5508" y2="1297.0703"/><line style="stroke:#CCCCCC;stroke-width:1.0416666666666667;stroke-dasharray:5.0,5.0;" x1="772.3958" x2="772.3958" y1="64.5508" y2="1297.0703"/><line style="stroke:#CCCCCC;stroke-width:1.0416666666666667;stroke-dasharray:5.0,5.0;" x1="943.2292" x2="943.2292" y1="64.5508" y2="1297.0703"/><line style="stroke:#CCCCCC;stroke-width:1.0416666666666667;stroke-dasharray:5.0,5.0;" x1="1133.8542" x2="1133.8542" y1="64.5508" y2="1297.0703"/><line style="stroke:#CCCCCC;stroke-width:1.0416666666666667;stroke-dasharray:5.0,5.0;" x1="1351.5625" x2="1351.5625" y1="64.5508" y2="1297.0703"/><line style="stroke:#CCCCCC;stroke-width:1.0416666666666667;stroke-dasharray:5.0,5.0;" x1="1550.5208" x2="1550.5208" y1="64.5508" y2="1297.0703"/><rect fill="#FFFFFF" filter="url(#f1ed5m7bklm8eh)" height="49.9674" rx="4.1667" ry="4.1667" style="stroke:#9803FC;stroke-width:1.0416666666666667;" width="133.3333" x="104.1667" y="10.4167"/><text fill="#9803FC" font-family="Verdana" font-size="12.5" lengthAdjust="spacing" textLength="97.9167" x="121.875" y="39.7278">CommandMove</text><rect fill="#FFFFFF" filter="url(#f1ed5m7bklm8eh)" height="49.9674" rx="4.1667" ry="4.1667" style="stroke:#9803FC;stroke-width:1.0416666666666667;" width="133.3333" x="104.1667" y="1296.0286"/><text fill="#9803FC" font-family="Verdana" font-size="12.5" lengthAdjust="spacing" textLength="97.9167" x="121.875" y="1325.3398">CommandMove</text><rect fill="#FFFFFF" filter="url(#f1ed5m7bklm8eh)" height="49.9674" rx="4.1667" ry="4.1667" style="stroke:#9803FC;stroke-width:1.0416666666666667;" width="157.2917" x="480.7292" y="10.4167"/><text fill="#9803FC" font-family="Verdana" font-size="12.5" lengthAdjust="spacing" textLength="121.875" x="498.4375" y="39.7278">ApplicationContext</text><rect fill="#FFFFFF" filter="url(#f1ed5m7bklm8eh)" height="49.9674" rx="4.1667" ry="4.1667" style="stroke:#9803FC;stroke-width:1.0416666666666667;" width="157.2917" x="480.7292" y="1296.0286"/><text fill="#9803FC" font-family="Verdana" font-size="12.5" lengthAdjust="spacing" textLength="121.875" x="498.4375" y="1325.3398">ApplicationContext</text><rect fill="#FFFFFF" filter="url(#f1ed5m7bklm8eh)" height="49.9674" rx="4.1667" ry="4.1667" style="stroke:#9803FC;stroke-width:1.0416666666666667;" width="72.9167" x="734.8958" y="10.4167"/><text fill="#9803FC" font-family="Verdana" font-size="12.5" lengthAdjust="spacing" textLength="37.5" x="752.6042" y="39.7278">Game</text><rect fill="#FFFFFF" filter="url(#f1ed5m7bklm8eh)" height="49.9674" rx="4.1667" ry="4.1667" style="stroke:#9803FC;stroke-width:1.0416666666666667;" width="72.9167" x="734.8958" y="1296.0286"/><text fill="#9803FC" font-family="Verdana" font-size="12.5" lengthAdjust="spacing" textLength="37.5" x="752.6042" y="1325.3398">Game</text><rect fill="#FFFFFF" filter="url(#f1ed5m7bklm8eh)" height="49.9674" rx="4.1667" ry="4.1667" style="stroke:#9803FC;stroke-width:1.0416666666666667;" width="75" x="904.6875" y="10.4167"/><text fill="#9803FC" font-family="Verdana" font-size="12.5" lengthAdjust="spacing" textLength="39.5833" x="922.3958" y="39.7278">Player</text><rect fill="#FFFFFF" filter="url(#f1ed5m7bklm8eh)" height="49.9674" rx="4.1667" ry="4.1667" style="stroke:#9803FC;stroke-width:1.0416666666666667;" width="75" x="904.6875" y="1296.0286"/><text fill="#9803FC" font-family="Verdana" font-size="12.5" lengthAdjust="spacing" textLength="39.5833" x="922.3958" y="1325.3398">Player</text><rect fill="#FFFFFF" filter="url(#f1ed5m7bklm8eh)" height="49.9674" rx="4.1667" ry="4.1667" style="stroke:#9803FC;stroke-width:1.0416666666666667;" width="112.5" x="1076.5625" y="10.4167"/><text fill="#9803FC" font-family="Verdana" font-size="12.5" lengthAdjust="spacing" textLength="77.0833" x="1094.2708" y="39.7278">GameGraph</text><rect fill="#FFFFFF" filter="url(#f1ed5m7bklm8eh)" height="49.9674" rx="4.1667" ry="4.1667" style="stroke:#9803FC;stroke-width:1.0416666666666667;" width="112.5" x="1076.5625" y="1296.0286"/><text fill="#9803FC" font-family="Verdana" font-size="12.5" lengthAdjust="spacing" textLength="77.0833" x="1094.2708" y="1325.3398">GameGraph</text><rect fill="#FFFFFF" filter="url(#f1ed5m7bklm8eh)" height="49.9674" rx="4.1667" ry="4.1667" style="stroke:#9803FC;stroke-width:1.0416666666666667;" width="128.125" x="1285.9375" y="10.4167"/><text fill="#9803FC" font-family="Verdana" font-size="12.5" lengthAdjust="spacing" textLength="92.7083" x="1303.6458" y="39.7278">StoryNodeLink</text><rect fill="#FFFFFF" filter="url(#f1ed5m7bklm8eh)" height="49.9674" rx="4.1667" ry="4.1667" style="stroke:#9803FC;stroke-width:1.0416666666666667;" width="128.125" x="1285.9375" y="1296.0286"/><text fill="#9803FC" font-family="Verdana" font-size="12.5" lengthAdjust="spacing" textLength="92.7083" x="1303.6458" y="1325.3398">StoryNodeLink</text><rect fill="#FFFFFF" filter="url(#f1ed5m7bklm8eh)" height="49.9674" rx="4.1667" ry="4.1667" style="stroke:#9803FC;stroke-width:1.0416666666666667;" width="76.0417" x="1510.9375" y="10.4167"/><text fill="#9803FC" font-family="Verdana" font-size="12.5" lengthAdjust="spacing" textLength="40.625" x="1528.6458" y="39.7278">Action</text><rect fill="#FFFFFF" filter="url(#f1ed5m7bklm8eh)" height="49.9674" rx="4.1667" ry="4.1667" style="stroke:#9803FC;stroke-width:1.0416666666666667;" width="76.0417" x="1510.9375" y="1296.0286"/><text fill="#9803FC" font-family="Verdana" font-size="12.5" lengthAdjust="spacing" textLength="40.625" x="1528.6458" y="1325.3398">Action</text><rect fill="none" filter="url(#f1ed5m7bklm8eh)" height="1170.0521" style="stroke:#CCCCCC;stroke-width:1.0416666666666667;" width="10.4167" x="167.1875" y="116.6016"/><rect fill="none" filter="url(#f1ed5m7bklm8eh)" height="14.5833" style="stroke:#CCCCCC;stroke-width:1.0416666666666667;" width="10.4167" x="555.7292" y="166.569"/><rect fill="none" filter="url(#f1ed5m7bklm8eh)" height="14.5833" style="stroke:#CCCCCC;stroke-width:1.0416666666666667;" width="10.4167" x="767.7083" y="231.1198"/><rect fill="none" filter="url(#f1ed5m7bklm8eh)" height="14.5833" style="stroke:#CCCCCC;stroke-width:1.0416666666666667;" width="10.4167" x="938.5417" y="682.8776"/><rect fill="none" filter="url(#f1ed5m7bklm8eh)" height="14.5833" style="stroke:#CCCCCC;stroke-width:1.0416666666666667;" width="10.4167" x="1129.1667" y="295.6706"/><rect fill="none" filter="url(#f1ed5m7bklm8eh)" height="14.5833" style="stroke:#CCCCCC;stroke-width:1.0416666666666667;" width="10.4167" x="1346.3542" y="553.8086"/><rect fill="none" filter="url(#f1ed5m7bklm8eh)" height="14.5833" style="stroke:#CCCCCC;stroke-width:1.0416666666666667;" width="10.4167" x="1545.3125" y="424.7396"/><polygon fill="#9803FC" points="154.6875,112.4349,165.1042,116.6016,154.6875,120.7682,158.8542,116.6016" style="stroke:#9803FC;stroke-width:1.0416666666666667;"/><line style="stroke:#9803FC;stroke-width:3.125;" x1="10.4167" x2="160.9375" y1="116.6016" y2="116.6016"/><text fill="#222222" font-family="Verdana" font-size="12.5" lengthAdjust="spacing" textLength="62.5" x="28.125" y="101.1536">execute()</text><polygon fill="#9803FC" points="543.2292,162.4023,553.6458,166.569,543.2292,170.7357,547.3958,166.569" style="stroke:#9803FC;stroke-width:1.0416666666666667;"/><line style="stroke:#9803FC;stroke-width:3.125;" x1="177.6042" x2="549.4792" y1="166.569" y2="166.569"/><text fill="#222222" font-family="Verdana" font-size="12.5" lengthAdjust="spacing" textLength="69.7917" x="195.3125" y="151.121">getGame()</text><polygon fill="#9803FC" points="189.0625,176.9857,178.6458,181.1523,189.0625,185.319,184.8958,181.1523" style="stroke:#9803FC;stroke-width:1.0416666666666667;"/><line style="stroke:#9803FC;stroke-width:3.125;stroke-dasharray:2.0,2.0;" x1="182.8125" x2="559.8958" y1="181.1523" y2="181.1523"/><polygon fill="#9803FC" points="755.2083,226.9531,765.625,231.1198,755.2083,235.2865,759.375,231.1198" style="stroke:#9803FC;stroke-width:1.0416666666666667;"/><line style="stroke:#9803FC;stroke-width:3.125;" x1="177.6042" x2="761.4583" y1="231.1198" y2="231.1198"/><text fill="#222222" font-family="Verdana" font-size="12.5" lengthAdjust="spacing" textLength="233.3333" x="195.3125" y="215.6718">getCurrentNode(), getGameGraph()</text><polygon fill="#9803FC" points="189.0625,241.5365,178.6458,245.7031,189.0625,249.8698,184.8958,245.7031" style="stroke:#9803FC;stroke-width:1.0416666666666667;"/><line style="stroke:#9803FC;stroke-width:3.125;stroke-dasharray:2.0,2.0;" x1="182.8125" x2="771.875" y1="245.7031" y2="245.7031"/><polygon fill="#9803FC" points="1116.6667,291.5039,1127.0833,295.6706,1116.6667,299.8372,1120.8333,295.6706" style="stroke:#9803FC;stroke-width:1.0416666666666667;"/><line style="stroke:#9803FC;stroke-width:3.125;" x1="177.6042" x2="1122.9167" y1="295.6706" y2="295.6706"/><text fill="#222222" font-family="Verdana" font-size="12.5" lengthAdjust="spacing" textLength="214.5833" x="195.3125" y="280.2226">getOutgoingEdges(currentNode)</text><polygon fill="#9803FC" points="189.0625,306.0872,178.6458,310.2539,189.0625,314.4206,184.8958,310.2539" style="stroke:#9803FC;stroke-width:1.0416666666666667;"/><line style="stroke:#9803FC;stroke-width:3.125;stroke-dasharray:2.0,2.0;" x1="182.8125" x2="1133.3333" y1="310.2539" y2="310.2539"/><path d="M25,325.8789 L120.8333,325.8789 L120.8333,352.9297 L110.4167,363.3464 L20.8333,363.3464 L20.8333,330.0456 A4.1667,4.1667 0 0 1 25,325.8789 " fill="#FFFFFF" style="stroke:#9803FC;stroke-width:1.0416666666666667;"/><rect fill="none" height="818.1641" rx="4.1667" ry="4.1667" style="stroke:#9803FC;stroke-width:1.0416666666666667;" width="1621.3542" x="20.8333" y="325.8789"/><text fill="#9C27B0" font-family="Verdana" font-size="12.5" font-weight="bold" lengthAdjust="spacing" textLength="32.2917" x="46.875" y="348.94">loop</text><text fill="#222222" font-family="Verdana" font-size="12.5" font-weight="bold" lengthAdjust="spacing" textLength="173.9583" x="146.875" y="349.9817">[foreach outgoingEdge]</text><polygon fill="#9803FC" points="1532.8125,420.5729,1543.2292,424.7396,1532.8125,428.9063,1536.9792,424.7396" style="stroke:#9803FC;stroke-width:1.0416666666666667;"/><line style="stroke:#9803FC;stroke-width:3.125;" x1="177.6042" x2="1539.0625" y1="424.7396" y2="424.7396"/><text fill="#222222" font-family="Verdana" font-size="12.5" lengthAdjust="spacing" textLength="72.9167" x="195.3125" y="409.2916">getAction()</text><polygon fill="#9803FC" points="189.0625,435.1563,178.6458,439.3229,189.0625,443.4896,184.8958,439.3229" style="stroke:#9803FC;stroke-width:1.0416666666666667;"/><line style="stroke:#9803FC;stroke-width:3.125;stroke-dasharray:2.0,2.0;" x1="182.8125" x2="1549.4792" y1="439.3229" y2="439.3229"/><path d="M35.4167,454.9479 L123.9583,454.9479 L123.9583,481.9987 L113.5417,492.4154 L31.25,492.4154 L31.25,459.1146 A4.1667,4.1667 0 0 1 35.4167,454.9479 " fill="#FFFFFF" style="stroke:#9803FC;stroke-width:1.0416666666666667;"/><rect fill="none" height="681.8034" rx="4.1667" ry="4.1667" style="stroke:#9803FC;stroke-width:1.0416666666666667;" width="1458.8542" x="31.25" y="454.9479"/><text fill="#9C27B0" font-family="Verdana" font-size="12.5" font-weight="bold" lengthAdjust="spacing" textLength="25" x="57.2917" y="478.009">opt</text><text fill="#222222" font-family="Verdana" font-size="12.5" font-weight="bold" lengthAdjust="spacing" textLength="433.3333" x="150" y="479.0507">[action matches command argument (eg. north, south, ...)]</text><polygon fill="#9803FC" points="1333.8542,549.6419,1344.2708,553.8086,1333.8542,557.9753,1338.0208,553.8086" style="stroke:#9803FC;stroke-width:1.0416666666666667;"/><line style="stroke:#9803FC;stroke-width:3.125;" x1="177.6042" x2="1340.1042" y1="553.8086" y2="553.8086"/><text fill="#222222" font-family="Verdana" font-size="12.5" lengthAdjust="spacing" textLength="78.125" x="195.3125" y="538.3606">getLocked()</text><polygon fill="#9803FC" points="189.0625,564.2253,178.6458,568.3919,189.0625,572.5586,184.8958,568.3919" style="stroke:#9803FC;stroke-width:1.0416666666666667;"/><line style="stroke:#9803FC;stroke-width:3.125;stroke-dasharray:2.0,2.0;" x1="182.8125" x2="1350.5208" y1="568.3919" y2="568.3919"/><path d="M45.8333,584.0169 L129.1667,584.0169 L129.1667,611.0677 L118.75,621.4844 L41.6667,621.4844 L41.6667,588.1836 A4.1667,4.1667 0 0 1 45.8333,584.0169 " fill="#FFFFFF" style="stroke:#9803FC;stroke-width:1.0416666666666667;"/><rect fill="none" height="545.4427" rx="4.1667" ry="4.1667" style="stroke:#9803FC;stroke-width:1.0416666666666667;" width="1438.0208" x="41.6667" y="584.0169"/><text fill="#9C27B0" font-family="Verdana" font-size="12.5" font-weight="bold" lengthAdjust="spacing" textLength="19.7917" x="67.7083" y="607.078">alt</text><text fill="#222222" font-family="Verdana" font-size="12.5" font-weight="bold" lengthAdjust="spacing" textLength="100" x="155.2083" y="608.1197">[edge locked]</text><polygon fill="#9803FC" points="926.0417,678.7109,936.4583,682.8776,926.0417,687.0443,930.2083,682.8776" style="stroke:#9803FC;stroke-width:1.0416666666666667;"/><line style="stroke:#9803FC;stroke-width:3.125;" x1="177.6042" x2="932.2917" y1="682.8776" y2="682.8776"/><text fill="#222222" font-family="Verdana" font-size="12.5" lengthAdjust="spacing" textLength="67.7083" x="195.3125" y="667.4296">getItems()</text><polygon fill="#9803FC" points="189.0625,693.2943,178.6458,697.4609,189.0625,701.6276,184.8958,697.4609" style="stroke:#9803FC;stroke-width:1.0416666666666667;"/><line style="stroke:#9803FC;stroke-width:3.125;stroke-dasharray:2.0,2.0;" x1="182.8125" x2="942.7083" y1="697.4609" y2="697.4609"/><line style="stroke:#9803FC;stroke-width:3.125;" x1="177.6042" x2="221.3542" y1="747.4284" y2="747.4284"/><line style="stroke:#9803FC;stroke-width:3.125;" x1="221.3542" x2="221.3542" y1="747.4284" y2="760.9701"/><line style="stroke:#9803FC;stroke-width:3.125;" x1="178.6458" x2="221.3542" y1="760.9701" y2="760.9701"/><polygon fill="#9803FC" points="189.0625,756.8034,178.6458,760.9701,189.0625,765.1367,184.8958,760.9701" style="stroke:#9803FC;stroke-width:1.0416666666666667;"/><text fill="#222222" font-family="Verdana" font-size="12.5" lengthAdjust="spacing" textLength="325" x="195.3125" y="731.9804">Search a key in the items that matches edge key.</text><path d="M56.25,776.5951 L139.5833,776.5951 L139.5833,803.6458 L129.1667,814.0625 L52.0833,814.0625 L52.0833,780.7617 A4.1667,4.1667 0 0 1 56.25,776.5951 " fill="#FFFFFF" style="stroke:#9803FC;stroke-width:1.0416666666666667;"/><rect fill="none" height="258.138" rx="4.1667" ry="4.1667" style="stroke:#9803FC;stroke-width:1.0416666666666667;" width="1417.1875" x="52.0833" y="776.5951"/><text fill="#9C27B0" font-family="Verdana" font-size="12.5" font-weight="bold" lengthAdjust="spacing" textLength="19.7917" x="78.125" y="799.6562">alt</text><text fill="#222222" font-family="Verdana" font-size="12.5" font-weight="bold" lengthAdjust="spacing" textLength="83.3333" x="165.625" y="800.6978">[key found]</text><polygon fill="#9803FC" points="1339.0625,871.2891,1349.4792,875.4557,1339.0625,879.6224,1343.2292,875.4557" style="stroke:#9803FC;stroke-width:1.0416666666666667;"/><line style="stroke:#9803FC;stroke-width:3.125;" x1="177.6042" x2="1345.3125" y1="875.4557" y2="875.4557"/><text fill="#222222" font-family="Verdana" font-size="12.5" lengthAdjust="spacing" textLength="86.4583" x="195.3125" y="860.0077">unlockEdge()</text><polygon fill="#9803FC" points="760.4167,921.2565,770.8333,925.4232,760.4167,929.5898,764.5833,925.4232" style="stroke:#9803FC;stroke-width:1.0416666666666667;"/><line style="stroke:#9803FC;stroke-width:3.125;" x1="177.6042" x2="766.6667" y1="925.4232" y2="925.4232"/><text fill="#222222" font-family="Verdana" font-size="12.5" lengthAdjust="spacing" textLength="189.5833" x="195.3125" y="909.9752">setCurrentNode(targetNode)</text><line style="stroke:#9803FC;stroke-width:1.0416666666666667;stroke-dasharray:2.0,2.0;" x1="52.0833" x2="1469.2708" y1="934.7982" y2="934.7982"/><text fill="#222222" font-family="Verdana" font-size="12.5" font-weight="bold" lengthAdjust="spacing" textLength="41.6667" x="67.7083" y="956.8176">[else]</text><line style="stroke:#9803FC;stroke-width:3.125;" x1="177.6042" x2="221.3542" y1="1012.8581" y2="1012.8581"/><line style="stroke:#9803FC;stroke-width:3.125;" x1="221.3542" x2="221.3542" y1="1012.8581" y2="1026.3997"/><line style="stroke:#9803FC;stroke-width:3.125;" x1="178.6458" x2="221.3542" y1="1026.3997" y2="1026.3997"/><polygon fill="#9803FC" points="189.0625,1022.2331,178.6458,1026.3997,189.0625,1030.5664,184.8958,1026.3997" style="stroke:#9803FC;stroke-width:1.0416666666666667;"/><text fill="#222222" font-family="Verdana" font-size="12.5" lengthAdjust="spacing" textLength="342.7083" x="195.3125" y="997.4101">Notify that the player does not have the correct key.</text><line style="stroke:#9803FC;stroke-width:1.0416666666666667;stroke-dasharray:2.0,2.0;" x1="41.6667" x2="1479.6875" y1="1043.0664" y2="1043.0664"/><text fill="#222222" font-family="Verdana" font-size="12.5" font-weight="bold" lengthAdjust="spacing" textLength="41.6667" x="57.2917" y="1065.0859">[else]</text><polygon fill="#9803FC" points="760.4167,1116.9596,770.8333,1121.1263,760.4167,1125.293,764.5833,1121.1263" style="stroke:#9803FC;stroke-width:1.0416666666666667;"/><line style="stroke:#9803FC;stroke-width:3.125;" x1="177.6042" x2="766.6667" y1="1121.1263" y2="1121.1263"/><text fill="#222222" font-family="Verdana" font-size="12.5" lengthAdjust="spacing" textLength="189.5833" x="195.3125" y="1105.6783">setCurrentNode(targetNode)</text><path d="M56.25,1158.6263 L144.7917,1158.6263 L144.7917,1185.6771 L134.375,1196.0938 L52.0833,1196.0938 L52.0833,1162.793 A4.1667,4.1667 0 0 1 56.25,1158.6263 " fill="#FFFFFF" style="stroke:#9803FC;stroke-width:1.0416666666666667;"/><rect fill="none" height="120.7357" rx="4.1667" ry="4.1667" style="stroke:#9803FC;stroke-width:1.0416666666666667;" width="431.25" x="52.0833" y="1158.6263"/><text fill="#9C27B0" font-family="Verdana" font-size="12.5" font-weight="bold" lengthAdjust="spacing" textLength="25" x="78.125" y="1181.6874">opt</text><text fill="#222222" font-family="Verdana" font-size="12.5" font-weight="bold" lengthAdjust="spacing" textLength="296.875" x="170.8333" y="1182.7291">[no action matched command argument]</text><line style="stroke:#9803FC;stroke-width:3.125;" x1="177.6042" x2="221.3542" y1="1257.487" y2="1257.487"/><line style="stroke:#9803FC;stroke-width:3.125;" x1="221.3542" x2="221.3542" y1="1257.487" y2="1271.0286"/><line style="stroke:#9803FC;stroke-width:3.125;" x1="178.6458" x2="221.3542" y1="1271.0286" y2="1271.0286"/><polygon fill="#9803FC" points="189.0625,1266.862,178.6458,1271.0286,189.0625,1275.1953,184.8958,1271.0286" style="stroke:#9803FC;stroke-width:1.0416666666666667;"/><text fill="#222222" font-family="Verdana" font-size="12.5" lengthAdjust="spacing" textLength="239.5833" x="195.3125" y="1242.039">Notify that the argument is not valid.</text><!--SRC=[dLHVQzim47_NfxZHbmGQCzZBreT16jemwBf2Fe6GBxQ8hVDaEMiO- -xJ7pUHRC_P5eYZdEv-VqudlpCbrWWrDwWbNr5dAgcGiVOWLSCrhs6jDVtOK4KQRZvzVFzXBwBDUouEXQPEvNt6e__yRVbQ6DBtf7FKiocFfCmynb37AEs5QoE5RBWoSsXHshokEF5g4tuosE7t3fN0hKrifg1_CTPSC653TSrL_fMEcCJNJLD9mOqajR4-yDKasrjUf_al5J-X7kLiDM_A9BgpRJmzKuvFKXqOMtsE9Tm1lgBe32wMZ0iZZtPU4edH6cpfMEKT56WSSummOMOSWbMgXUKu1p2KuZWz-QRJ6fLn5XVBspSvlX6n9jz1zvZZzKbJJ1xEqtthJ45I5GzvWUr2NCW7NE4apgjhh26TiOgeWJrfkri2HLmCO7WOmlN7YmfBQnVWqaCViv6m60a0Y1iUacsG6kCnR8LzUuWIMn2X2hWkkjgwXGKM6IZIfho5regqFrcMBLtvI6KoVrxi4ua3vbvi93UTKxULH2Ra9mO6O-wXAmDeEmUL9_InaRnmZxokBmRhjfSL2UjlMeY6FvDY4ZbzqJHdSW5toBKzQWu7F85KO5_S89qIk-BcV0RUY4t9tZ2TErUoTo-eFdQj-ProhN3JTBOvAWdtgatlbR57Z_sKXogiMlIFF-4a9f_9oFqfE786cz36dAmpHGPARelSXY1BAanmsZFrzeQC_wCxOBcd-p8twuhISSz7uyx-pTlvbiZWxSWhcMU1C9gG2ECt]--></g></svg>