<?xml version="1.0" encoding="us-ascii" standalone="no"?><svg xmlns="http://www.w3.org/2000/svg" xmlns:xlink="http://www.w3.org/1999/xlink" contentStyleType="text/css" height="1233.3333px" preserveAspectRatio="none" style="width:1519px;height:1233px;background:#FFFFFF;" version="1.1" viewBox="0 0 1519 1233" width="1519.7917px" zoomAndPan="magnify"><defs><filter height="300%" id="ff4u5zqdtidw" width="300%" x="-1" y="-1"><feGaussianBlur result="blurOut" stdDeviation="2.0833333333333335"/><feColorMatrix in="blurOut" result="blurOut2" type="matrix" values="0 0 0 0 0 0 0 0 0 0 0 0 0 0 0 0 0 0 .4 0"/><feOffset dx="4.166666666666667" dy="4.166666666666667" in="blurOut2" result="blurOut3"/><feBlend in="SourceGraphic" in2="blurOut3" mode="normal"/></filter></defs><g><rect fill="none" filter="url(#ff4u5zqdtidw)" height="14.5833" style="stroke:#CCCCCC;stroke-width:1.0416666666666667;" width="10.4167" x="679.6875" y="183.075"/><rect fill="none" filter="url(#ff4u5zqdtidw)" height="14.5833" style="stroke:#CCCCCC;stroke-width:1.0416666666666667;" width="10.4167" x="848.9583" y="248.2666"/><rect fill="none" filter="url(#ff4u5zqdtidw)" height="50.6083" style="stroke:#CCCCCC;stroke-width:1.0416666666666667;" width="10.4167" x="1019.7917" y="595.8415"/><rect fill="none" filter="url(#ff4u5zqdtidw)" height="50.6083" style="stroke:#CCCCCC;stroke-width:1.0416666666666667;" width="10.4167" x="1019.7917" y="1046.108"/><rect fill="none" filter="url(#ff4u5zqdtidw)" height="50.6083" style="stroke:#CCCCCC;stroke-width:1.0416666666666667;" width="10.4167" x="1198.9583" y="697.0581"/><rect fill="none" filter="url(#ff4u5zqdtidw)" height="50.6083" style="stroke:#CCCCCC;stroke-width:1.0416666666666667;" width="10.4167" x="1198.9583" y="944.8914"/><rect fill="none" filter="url(#ff4u5zqdtidw)" height="14.5833" style="stroke:#CCCCCC;stroke-width:1.0416666666666667;" width="10.4167" x="1419.2708" y="117.8833"/><rect fill="none" filter="url(#ff4u5zqdtidw)" height="122.6583" rx="4.1667" ry="4.1667" style="stroke:#9803FC;stroke-width:1.0416666666666667;" width="577.0833" x="20.8333" y="357.8166"/><rect fill="none" filter="url(#ff4u5zqdtidw)" height="400.2665" rx="4.1667" ry="4.1667" style="stroke:#9803FC;stroke-width:1.0416666666666667;" width="1281.25" x="20.8333" y="495.0582"/><line style="stroke:#CCCCCC;stroke-width:1.0416666666666667;stroke-dasharray:5.0,5.0;" x1="127.0833" x2="127.0833" y1="65.1917" y2="1166.0746"/><line style="stroke:#CCCCCC;stroke-width:1.0416666666666667;stroke-dasharray:5.0,5.0;" x1="497.9167" x2="497.9167" y1="65.1917" y2="1166.0746"/><line style="stroke:#CCCCCC;stroke-width:1.0416666666666667;stroke-dasharray:5.0,5.0;" x1="684.375" x2="684.375" y1="65.1917" y2="1166.0746"/><line style="stroke:#CCCCCC;stroke-width:1.0416666666666667;stroke-dasharray:5.0,5.0;" x1="854.1667" x2="854.1667" y1="65.1917" y2="1166.0746"/><line style="stroke:#CCCCCC;stroke-width:1.0416666666666667;stroke-dasharray:5.0,5.0;" x1="1025" x2="1025" y1="65.1917" y2="1166.0746"/><line style="stroke:#CCCCCC;stroke-width:1.0416666666666667;stroke-dasharray:5.0,5.0;" x1="1204.1667" x2="1204.1667" y1="65.1917" y2="1166.0746"/><line style="stroke:#CCCCCC;stroke-width:1.0416666666666667;stroke-dasharray:5.0,5.0;" x1="1423.9583" x2="1423.9583" y1="65.1917" y2="1166.0746"/><rect fill="#FFFFFF" filter="url(#ff4u5zqdtidw)" height="50.6083" rx="4.1667" ry="4.1667" style="stroke:#9803FC;stroke-width:1.0416666666666667;" width="105.2083" x="72.9167" y="10.4167"/><text fill="#9803FC" font-family="Verdana" font-size="12.5" lengthAdjust="spacing" textLength="69.7917" x="90.625" y="40.6921">CmdAttack</text><rect fill="#FFFFFF" filter="url(#ff4u5zqdtidw)" height="50.6083" rx="4.1667" ry="4.1667" style="stroke:#9803FC;stroke-width:1.0416666666666667;" width="105.2083" x="72.9167" y="1165.033"/><text fill="#9803FC" font-family="Verdana" font-size="12.5" lengthAdjust="spacing" textLength="69.7917" x="90.625" y="1195.3084">CmdAttack</text><rect fill="#FFFFFF" filter="url(#ff4u5zqdtidw)" height="50.6083" rx="4.1667" ry="4.1667" style="stroke:#9803FC;stroke-width:1.0416666666666667;" width="107.2917" x="442.7083" y="10.4167"/><text fill="#9803FC" font-family="Verdana" font-size="12.5" lengthAdjust="spacing" textLength="71.875" x="460.4167" y="40.6921">I/O Stream</text><rect fill="#FFFFFF" filter="url(#ff4u5zqdtidw)" height="50.6083" rx="4.1667" ry="4.1667" style="stroke:#9803FC;stroke-width:1.0416666666666667;" width="107.2917" x="442.7083" y="1165.033"/><text fill="#9803FC" font-family="Verdana" font-size="12.5" lengthAdjust="spacing" textLength="71.875" x="460.4167" y="1195.3084">I/O Stream</text><rect fill="#FFFFFF" filter="url(#ff4u5zqdtidw)" height="50.6083" rx="4.1667" ry="4.1667" style="stroke:#9803FC;stroke-width:1.0416666666666667;" width="72.9167" x="646.875" y="10.4167"/><text fill="#9803FC" font-family="Verdana" font-size="12.5" lengthAdjust="spacing" textLength="37.5" x="664.5833" y="40.6921">Game</text><rect fill="#FFFFFF" filter="url(#ff4u5zqdtidw)" height="50.6083" rx="4.1667" ry="4.1667" style="stroke:#9803FC;stroke-width:1.0416666666666667;" width="72.9167" x="646.875" y="1165.033"/><text fill="#9803FC" font-family="Verdana" font-size="12.5" lengthAdjust="spacing" textLength="37.5" x="664.5833" y="1195.3084">Game</text><rect fill="#FFFFFF" filter="url(#ff4u5zqdtidw)" height="50.6083" rx="4.1667" ry="4.1667" style="stroke:#9803FC;stroke-width:1.0416666666666667;" width="71.875" x="816.6667" y="10.4167"/><text fill="#9803FC" font-family="Verdana" font-size="12.5" lengthAdjust="spacing" textLength="36.4583" x="834.375" y="40.6921">Room</text><rect fill="#FFFFFF" filter="url(#ff4u5zqdtidw)" height="50.6083" rx="4.1667" ry="4.1667" style="stroke:#9803FC;stroke-width:1.0416666666666667;" width="71.875" x="816.6667" y="1165.033"/><text fill="#9803FC" font-family="Verdana" font-size="12.5" lengthAdjust="spacing" textLength="36.4583" x="834.375" y="1195.3084">Room</text><rect fill="#FFFFFF" filter="url(#ff4u5zqdtidw)" height="50.6083" rx="4.1667" ry="4.1667" style="stroke:#9803FC;stroke-width:1.0416666666666667;" width="76.0417" x="985.4167" y="10.4167"/><text fill="#9803FC" font-family="Verdana" font-size="12.5" lengthAdjust="spacing" textLength="40.625" x="1003.125" y="40.6921">Player</text><rect fill="#FFFFFF" filter="url(#ff4u5zqdtidw)" height="50.6083" rx="4.1667" ry="4.1667" style="stroke:#9803FC;stroke-width:1.0416666666666667;" width="76.0417" x="985.4167" y="1165.033"/><text fill="#9803FC" font-family="Verdana" font-size="12.5" lengthAdjust="spacing" textLength="40.625" x="1003.125" y="1195.3084">Player</text><rect fill="#FFFFFF" filter="url(#ff4u5zqdtidw)" height="50.6083" rx="4.1667" ry="4.1667" style="stroke:#9803FC;stroke-width:1.0416666666666667;" width="88.5417" x="1158.3333" y="10.4167"/><text fill="#9803FC" font-family="Verdana" font-size="12.5" lengthAdjust="spacing" textLength="53.125" x="1176.0417" y="40.6921">Monster</text><rect fill="#FFFFFF" filter="url(#ff4u5zqdtidw)" height="50.6083" rx="4.1667" ry="4.1667" style="stroke:#9803FC;stroke-width:1.0416666666666667;" width="88.5417" x="1158.3333" y="1165.033"/><text fill="#9803FC" font-family="Verdana" font-size="12.5" lengthAdjust="spacing" textLength="53.125" x="1176.0417" y="1195.3084">Monster</text><rect fill="#FFFFFF" filter="url(#ff4u5zqdtidw)" height="50.6083" rx="4.1667" ry="4.1667" style="stroke:#9803FC;stroke-width:1.0416666666666667;" width="158.3333" x="1343.75" y="10.4167"/><text fill="#9803FC" font-family="Verdana" font-size="12.5" lengthAdjust="spacing" textLength="122.9167" x="1361.4583" y="40.6921">ApplicationContext</text><rect fill="#FFFFFF" filter="url(#ff4u5zqdtidw)" height="50.6083" rx="4.1667" ry="4.1667" style="stroke:#9803FC;stroke-width:1.0416666666666667;" width="158.3333" x="1343.75" y="1165.033"/><text fill="#9803FC" font-family="Verdana" font-size="12.5" lengthAdjust="spacing" textLength="122.9167" x="1361.4583" y="1195.3084">ApplicationContext</text><rect fill="none" filter="url(#ff4u5zqdtidw)" height="14.5833" style="stroke:#CCCCCC;stroke-width:1.0416666666666667;" width="10.4167" x="679.6875" y="183.075"/><rect fill="none" filter="url(#ff4u5zqdtidw)" height="14.5833" style="stroke:#CCCCCC;stroke-width:1.0416666666666667;" width="10.4167" x="848.9583" y="248.2666"/><rect fill="none" filter="url(#ff4u5zqdtidw)" height="50.6083" style="stroke:#CCCCCC;stroke-width:1.0416666666666667;" width="10.4167" x="1019.7917" y="595.8415"/><rect fill="none" filter="url(#ff4u5zqdtidw)" height="50.6083" style="stroke:#CCCCCC;stroke-width:1.0416666666666667;" width="10.4167" x="1019.7917" y="1046.108"/><rect fill="none" filter="url(#ff4u5zqdtidw)" height="50.6083" style="stroke:#CCCCCC;stroke-width:1.0416666666666667;" width="10.4167" x="1198.9583" y="697.0581"/><rect fill="none" filter="url(#ff4u5zqdtidw)" height="50.6083" style="stroke:#CCCCCC;stroke-width:1.0416666666666667;" width="10.4167" x="1198.9583" y="944.8914"/><rect fill="none" filter="url(#ff4u5zqdtidw)" height="14.5833" style="stroke:#CCCCCC;stroke-width:1.0416666666666667;" width="10.4167" x="1419.2708" y="117.8833"/><polygon fill="#9803FC" points="1406.7708,113.7166,1417.1875,117.8833,1406.7708,122.05,1410.9375,117.8833" style="stroke:#9803FC;stroke-width:1.0416666666666667;"/><line style="stroke:#9803FC;stroke-width:3.125;" x1="127.0833" x2="1413.0208" y1="117.8833" y2="117.8833"/><text fill="#222222" font-family="Verdana" font-size="12.5" lengthAdjust="spacing" textLength="69.7917" x="144.7917" y="102.7588">getGame()</text><polygon fill="#9803FC" points="138.5417,128.3,128.125,132.4666,138.5417,136.6333,134.375,132.4666" style="stroke:#9803FC;stroke-width:1.0416666666666667;"/><line style="stroke:#9803FC;stroke-width:3.125;stroke-dasharray:2.0,2.0;" x1="132.2917" x2="1423.4375" y1="132.4666" y2="132.4666"/><polygon fill="#9803FC" points="667.1875,178.9083,677.6042,183.075,667.1875,187.2416,671.3542,183.075" style="stroke:#9803FC;stroke-width:1.0416666666666667;"/><line style="stroke:#9803FC;stroke-width:3.125;" x1="127.0833" x2="673.4375" y1="183.075" y2="183.075"/><text fill="#222222" font-family="Verdana" font-size="12.5" lengthAdjust="spacing" textLength="197.9167" x="144.7917" y="167.9504">getCurrentNode(), getPlayer()</text><polygon fill="#9803FC" points="138.5417,193.4916,128.125,197.6583,138.5417,201.825,134.375,197.6583" style="stroke:#9803FC;stroke-width:1.0416666666666667;"/><line style="stroke:#9803FC;stroke-width:3.125;stroke-dasharray:2.0,2.0;" x1="132.2917" x2="683.8542" y1="197.6583" y2="197.6583"/><polygon fill="#9803FC" points="836.4583,244.0999,846.875,248.2666,836.4583,252.4333,840.625,248.2666" style="stroke:#9803FC;stroke-width:1.0416666666666667;"/><line style="stroke:#9803FC;stroke-width:3.125;" x1="127.0833" x2="842.7083" y1="248.2666" y2="248.2666"/><text fill="#222222" font-family="Verdana" font-size="12.5" lengthAdjust="spacing" textLength="85.4167" x="144.7917" y="233.1421">getMonster()</text><polygon fill="#9803FC" points="138.5417,258.6833,128.125,262.8499,138.5417,267.0166,134.375,262.8499" style="stroke:#9803FC;stroke-width:1.0416666666666667;"/><line style="stroke:#9803FC;stroke-width:3.125;stroke-dasharray:2.0,2.0;" x1="132.2917" x2="853.125" y1="262.8499" y2="262.8499"/><line style="stroke:#9803FC;stroke-width:3.125;" x1="127.0833" x2="170.8333" y1="328.6499" y2="328.6499"/><line style="stroke:#9803FC;stroke-width:3.125;" x1="170.8333" x2="170.8333" y1="328.6499" y2="342.1916"/><line style="stroke:#9803FC;stroke-width:3.125;" x1="128.125" x2="170.8333" y1="342.1916" y2="342.1916"/><polygon fill="#9803FC" points="138.5417,338.0249,128.125,342.1916,138.5417,346.3582,134.375,342.1916" style="stroke:#9803FC;stroke-width:1.0416666666666667;"/><text fill="#222222" font-family="Verdana" font-size="12.5" lengthAdjust="spacing" textLength="335.4167" x="144.7917" y="298.3337">Compute monsterMove with a weighted probability</text><text fill="#222222" font-family="Verdana" font-size="12.5" lengthAdjust="spacing" textLength="191.6667" x="144.7917" y="313.5254">between DODGE and ATTACK</text><path d="M25,357.8166 L110.4167,357.8166 L110.4167,385.5082 L100,395.9249 L20.8333,395.9249 L20.8333,361.9832 A4.1667,4.1667 0 0 1 25,357.8166 " fill="#FFFFFF" style="stroke:#9803FC;stroke-width:1.0416666666666667;"/><rect fill="none" height="122.6583" rx="4.1667" ry="4.1667" style="stroke:#9803FC;stroke-width:1.0416666666666667;" width="577.0833" x="20.8333" y="357.8166"/><text fill="#9C27B0" font-family="Verdana" font-size="12.5" font-weight="bold" lengthAdjust="spacing" textLength="21.875" x="46.875" y="381.842">opt</text><text fill="#222222" font-family="Verdana" font-size="12.5" font-weight="bold" lengthAdjust="spacing" textLength="445.8333" x="136.4583" y="382.8837">[monsterMove = DODGE and monster does not have 'dodge' left]</text><line style="stroke:#9803FC;stroke-width:3.125;" x1="127.0833" x2="170.8333" y1="458.5999" y2="458.5999"/><line style="stroke:#9803FC;stroke-width:3.125;" x1="170.8333" x2="170.8333" y1="458.5999" y2="472.1415"/><line style="stroke:#9803FC;stroke-width:3.125;" x1="128.125" x2="170.8333" y1="472.1415" y2="472.1415"/><polygon fill="#9803FC" points="138.5417,467.9749,128.125,472.1415,138.5417,476.3082,134.375,472.1415" style="stroke:#9803FC;stroke-width:1.0416666666666667;"/><text fill="#222222" font-family="Verdana" font-size="12.5" lengthAdjust="spacing" textLength="155.2083" x="144.7917" y="443.4753">monsterMove = ATTACK</text><path d="M25,495.0582 L106.25,495.0582 L106.25,522.7498 L95.8333,533.1665 L20.8333,533.1665 L20.8333,499.2249 A4.1667,4.1667 0 0 1 25,495.0582 " fill="#FFFFFF" style="stroke:#9803FC;stroke-width:1.0416666666666667;"/><rect fill="none" height="400.2665" rx="4.1667" ry="4.1667" style="stroke:#9803FC;stroke-width:1.0416666666666667;" width="1281.25" x="20.8333" y="495.0582"/><text fill="#9C27B0" font-family="Verdana" font-size="12.5" font-weight="bold" lengthAdjust="spacing" textLength="17.7083" x="46.875" y="519.0837">alt</text><text fill="#222222" font-family="Verdana" font-size="12.5" font-weight="bold" lengthAdjust="spacing" textLength="178.125" x="132.2917" y="520.1253">[monsterMove = ATTACK]</text><polygon fill="#9803FC" points="1007.2917,591.6748,1017.7083,595.8415,1007.2917,600.0081,1011.4583,595.8415" style="stroke:#9803FC;stroke-width:1.0416666666666667;"/><line style="stroke:#9803FC;stroke-width:3.125;" x1="127.0833" x2="1013.5417" y1="595.8415" y2="595.8415"/><text fill="#222222" font-family="Verdana" font-size="12.5" lengthAdjust="spacing" textLength="127.0833" x="144.7917" y="580.717">getAttackDamage()</text><polygon fill="#9803FC" points="138.5417,642.2831,128.125,646.4498,138.5417,650.6165,134.375,646.4498" style="stroke:#9803FC;stroke-width:1.0416666666666667;"/><line style="stroke:#9803FC;stroke-width:3.125;stroke-dasharray:2.0,2.0;" x1="132.2917" x2="1023.9583" y1="646.4498" y2="646.4498"/><text fill="#222222" font-family="Verdana" font-size="12.5" lengthAdjust="spacing" textLength="244.7917" x="155.2083" y="631.3253">Returns attack damage of the player.</text><polygon fill="#9803FC" points="1186.4583,692.8914,1196.875,697.0581,1186.4583,701.2248,1190.625,697.0581" style="stroke:#9803FC;stroke-width:1.0416666666666667;"/><line style="stroke:#9803FC;stroke-width:3.125;" x1="127.0833" x2="1192.7083" y1="697.0581" y2="697.0581"/><text fill="#222222" font-family="Verdana" font-size="12.5" lengthAdjust="spacing" textLength="162.5" x="144.7917" y="681.9336">hit(playerAttackDamage)</text><polygon fill="#9803FC" points="138.5417,743.4998,128.125,747.6664,138.5417,751.8331,134.375,747.6664" style="stroke:#9803FC;stroke-width:1.0416666666666667;"/><line style="stroke:#9803FC;stroke-width:3.125;stroke-dasharray:2.0,2.0;" x1="132.2917" x2="1203.125" y1="747.6664" y2="747.6664"/><text fill="#222222" font-family="Verdana" font-size="12.5" lengthAdjust="spacing" textLength="211.4583" x="155.2083" y="732.5419">Returns inflicted attack damage.</text><polygon fill="#9803FC" points="485.4167,794.1081,495.8333,798.2747,485.4167,802.4414,489.5833,798.2747" style="stroke:#9803FC;stroke-width:1.0416666666666667;"/><line style="stroke:#9803FC;stroke-width:3.125;" x1="127.0833" x2="491.6667" y1="798.2747" y2="798.2747"/><text fill="#222222" font-family="Verdana" font-size="12.5" lengthAdjust="spacing" textLength="209.375" x="144.7917" y="783.1502">Notify that the monster was hit.</text><line style="stroke:#9803FC;stroke-width:1.0416666666666667;stroke-dasharray:2.0,2.0;" x1="20.8333" x2="1302.0833" y1="807.6497" y2="807.6497"/><text fill="#222222" font-family="Verdana" font-size="12.5" font-weight="bold" lengthAdjust="spacing" textLength="40.625" x="36.4583" y="830.6335">[else]</text><polygon fill="#9803FC" points="485.4167,882.8247,495.8333,886.9914,485.4167,891.158,489.5833,886.9914" style="stroke:#9803FC;stroke-width:1.0416666666666667;"/><line style="stroke:#9803FC;stroke-width:3.125;" x1="127.0833" x2="491.6667" y1="886.9914" y2="886.9914"/><text fill="#222222" font-family="Verdana" font-size="12.5" lengthAdjust="spacing" textLength="211.4583" x="144.7917" y="871.8669">Notify that the monster dodged.</text><polygon fill="#9803FC" points="1186.4583,940.7247,1196.875,944.8914,1186.4583,949.058,1190.625,944.8914" style="stroke:#9803FC;stroke-width:1.0416666666666667;"/><line style="stroke:#9803FC;stroke-width:3.125;" x1="127.0833" x2="1192.7083" y1="944.8914" y2="944.8914"/><text fill="#222222" font-family="Verdana" font-size="12.5" lengthAdjust="spacing" textLength="127.0833" x="144.7917" y="929.7668">getAttackDamage()</text><polygon fill="#9803FC" points="138.5417,991.333,128.125,995.4997,138.5417,999.6663,134.375,995.4997" style="stroke:#9803FC;stroke-width:1.0416666666666667;"/><line style="stroke:#9803FC;stroke-width:3.125;stroke-dasharray:2.0,2.0;" x1="132.2917" x2="1203.125" y1="995.4997" y2="995.4997"/><text fill="#222222" font-family="Verdana" font-size="12.5" lengthAdjust="spacing" textLength="258.3333" x="155.2083" y="980.3752">Returns attack damage of the monster.</text><polygon fill="#9803FC" points="1007.2917,1041.9413,1017.7083,1046.108,1007.2917,1050.2747,1011.4583,1046.108" style="stroke:#9803FC;stroke-width:1.0416666666666667;"/><line style="stroke:#9803FC;stroke-width:3.125;" x1="127.0833" x2="1013.5417" y1="1046.108" y2="1046.108"/><text fill="#222222" font-family="Verdana" font-size="12.5" lengthAdjust="spacing" textLength="176.0417" x="144.7917" y="1030.9835">hit(monsterAttackDamage)</text><polygon fill="#9803FC" points="138.5417,1092.5496,128.125,1096.7163,138.5417,1100.883,134.375,1096.7163" style="stroke:#9803FC;stroke-width:1.0416666666666667;"/><line style="stroke:#9803FC;stroke-width:3.125;stroke-dasharray:2.0,2.0;" x1="132.2917" x2="1023.9583" y1="1096.7163" y2="1096.7163"/><text fill="#222222" font-family="Verdana" font-size="12.5" lengthAdjust="spacing" textLength="211.4583" x="155.2083" y="1081.5918">Returns inflicted attack damage.</text><polygon fill="#9803FC" points="485.4167,1143.158,495.8333,1147.3246,485.4167,1151.4913,489.5833,1147.3246" style="stroke:#9803FC;stroke-width:1.0416666666666667;"/><line style="stroke:#9803FC;stroke-width:3.125;" x1="127.0833" x2="491.6667" y1="1147.3246" y2="1147.3246"/><text fill="#222222" font-family="Verdana" font-size="12.5" lengthAdjust="spacing" textLength="195.8333" x="144.7917" y="1132.2001">Notify that the player was hit.</text><!--SRC=[dLHDRzD04BtlhnZAeKKb0OaBH2gIwz08eNwexR6NZNTYhshlcFMO427-UtVjfV57aW8-MFBRDs_UlB7zYZCi40h9QBMSKCsvDYX4zQXDAQqi8BAMrZ7bPE7rfu_lFwoIpk6vJ1vJIxLHWN7HN7zR7YLCzfoiGdkGSa663siCVOneDzAoJdGf3HzIwz0E- -eINmpXbm1ttU7t6as22ySjTwd_5aAKMrs82nKnE_KUUlJrtJNSiKLP7FKE5hB07d1BLFI0crnkqFQWIp8L3x2eB7ETIDPaOfSL_cGXdht0vFCEmkdf359aR-7aZHYVmyILRUSP4oQJGGyl5LJZsbeqV4NAYR_rI3k8w-HP0sqFZTHy544jJEoAFJWezj2e-FbX1Z4LPStkWsb5Bka7mbfp1XBMgDECKK5fQIcNEjUyUJ1Bv3MYWVdrVF45f54GtTz7yJSXgEIUp5c74t1GX1KOOiYaOnmhKYaUGuuhRjwetIvXDj0D7T4e8NFUVJYIQoCEcRNmN1OozVlrvFQy7zyCRf5hQogGhOvgAe1MuFupK3ObqqwvZthKEIp8jyuqdxHLNGUjWK3Rvq2RbNl5_3vwNgRTMjT-rBtxUStWYbYlDiwzv6Q4FujPoygRcmhCAmH_-r-bPgTgscndNmpZ3Rmm_CxuGyUfs4ulzgpSvnxe_U0FRtrlvjjj_qD2xUAtKJy1]--></g></svg>