<?xml version="1.0" encoding="us-ascii" standalone="no"?><svg xmlns="http://www.w3.org/2000/svg" xmlns:xlink="http://www.w3.org/1999/xlink" contentStyleType="text/css" height="1157.2917px" preserveAspectRatio="none" style="width:1531px;height:1157px;background:#FFFFFF;" version="1.1" viewBox="0 0 1531 1157" width="1531.25px" zoomAndPan="magnify"><defs><filter height="300%" id="f1jqvj7sfw41kc" width="300%" x="-1" y="-1"><feGaussianBlur result="blurOut" stdDeviation="2.0833333333333335"/><feColorMatrix in="blurOut" result="blurOut2" type="matrix" values="0 0 0 0 0 0 0 0 0 0 0 0 0 0 0 0 0 0 .4 0"/><feOffset dx="4.166666666666667" dy="4.166666666666667" in="blurOut2" result="blurOut3"/><feBlend in="SourceGraphic" in2="blurOut3" mode="normal"/></filter></defs><g><rect fill="none" filter="url(#f1jqvj7sfw41kc)" height="14.5833" style="stroke:#CCCCCC;stroke-width:1.0416666666666667;" width="10.4167" x="691.1458" y="183.075"/><rect fill="none" filter="url(#f1jqvj7sfw41kc)" height="14.5833" style="stroke:#CCCCCC;stroke-width:1.0416666666666667;" width="10.4167" x="860.4167" y="248.2666"/><rect fill="none" filter="url(#f1jqvj7sfw41kc)" height="50.6083" style="stroke:#CCCCCC;stroke-width:1.0416666666666667;" width="10.4167" x="1031.25" y="661.6414"/><rect fill="none" filter="url(#f1jqvj7sfw41kc)" height="50.6083" style="stroke:#CCCCCC;stroke-width:1.0416666666666667;" width="10.4167" x="1210.4167" y="762.8581"/><rect fill="none" filter="url(#f1jqvj7sfw41kc)" height="14.5833" style="stroke:#CCCCCC;stroke-width:1.0416666666666667;" width="10.4167" x="1430.7292" y="117.8833"/><rect fill="none" filter="url(#f1jqvj7sfw41kc)" height="793.8497" rx="4.1667" ry="4.1667" style="stroke:#9803FC;stroke-width:1.0416666666666667;" width="1303.125" x="20.8333" y="278.4749"/><rect fill="none" filter="url(#f1jqvj7sfw41kc)" height="122.6583" rx="4.1667" ry="4.1667" style="stroke:#9803FC;stroke-width:1.0416666666666667;" width="577.0833" x="31.25" y="423.6165"/><rect fill="none" filter="url(#f1jqvj7sfw41kc)" height="415.4582" rx="4.1667" ry="4.1667" style="stroke:#9803FC;stroke-width:1.0416666666666667;" width="1282.2917" x="31.25" y="560.8582"/><line style="stroke:#CCCCCC;stroke-width:1.0416666666666667;stroke-dasharray:5.0,5.0;" x1="138.5417" x2="138.5417" y1="65.1917" y2="1090.033"/><line style="stroke:#CCCCCC;stroke-width:1.0416666666666667;stroke-dasharray:5.0,5.0;" x1="509.375" x2="509.375" y1="65.1917" y2="1090.033"/><line style="stroke:#CCCCCC;stroke-width:1.0416666666666667;stroke-dasharray:5.0,5.0;" x1="695.8333" x2="695.8333" y1="65.1917" y2="1090.033"/><line style="stroke:#CCCCCC;stroke-width:1.0416666666666667;stroke-dasharray:5.0,5.0;" x1="865.625" x2="865.625" y1="65.1917" y2="1090.033"/><line style="stroke:#CCCCCC;stroke-width:1.0416666666666667;stroke-dasharray:5.0,5.0;" x1="1036.4583" x2="1036.4583" y1="65.1917" y2="1090.033"/><line style="stroke:#CCCCCC;stroke-width:1.0416666666666667;stroke-dasharray:5.0,5.0;" x1="1215.625" x2="1215.625" y1="65.1917" y2="1090.033"/><line style="stroke:#CCCCCC;stroke-width:1.0416666666666667;stroke-dasharray:5.0,5.0;" x1="1435.4167" x2="1435.4167" y1="65.1917" y2="1090.033"/><rect fill="#FFFFFF" filter="url(#f1jqvj7sfw41kc)" height="50.6083" rx="4.1667" ry="4.1667" style="stroke:#9803FC;stroke-width:1.0416666666666667;" width="107.2917" x="83.3333" y="10.4167"/><text fill="#9803FC" font-family="Verdana" font-size="12.5" lengthAdjust="spacing" textLength="71.875" x="101.0417" y="40.6921">CmdDodge</text><rect fill="#FFFFFF" filter="url(#f1jqvj7sfw41kc)" height="50.6083" rx="4.1667" ry="4.1667" style="stroke:#9803FC;stroke-width:1.0416666666666667;" width="107.2917" x="83.3333" y="1088.9913"/><text fill="#9803FC" font-family="Verdana" font-size="12.5" lengthAdjust="spacing" textLength="71.875" x="101.0417" y="1119.2668">CmdDodge</text><rect fill="#FFFFFF" filter="url(#f1jqvj7sfw41kc)" height="50.6083" rx="4.1667" ry="4.1667" style="stroke:#9803FC;stroke-width:1.0416666666666667;" width="107.2917" x="454.1667" y="10.4167"/><text fill="#9803FC" font-family="Verdana" font-size="12.5" lengthAdjust="spacing" textLength="71.875" x="471.875" y="40.6921">I/O Stream</text><rect fill="#FFFFFF" filter="url(#f1jqvj7sfw41kc)" height="50.6083" rx="4.1667" ry="4.1667" style="stroke:#9803FC;stroke-width:1.0416666666666667;" width="107.2917" x="454.1667" y="1088.9913"/><text fill="#9803FC" font-family="Verdana" font-size="12.5" lengthAdjust="spacing" textLength="71.875" x="471.875" y="1119.2668">I/O Stream</text><rect fill="#FFFFFF" filter="url(#f1jqvj7sfw41kc)" height="50.6083" rx="4.1667" ry="4.1667" style="stroke:#9803FC;stroke-width:1.0416666666666667;" width="72.9167" x="658.3333" y="10.4167"/><text fill="#9803FC" font-family="Verdana" font-size="12.5" lengthAdjust="spacing" textLength="37.5" x="676.0417" y="40.6921">Game</text><rect fill="#FFFFFF" filter="url(#f1jqvj7sfw41kc)" height="50.6083" rx="4.1667" ry="4.1667" style="stroke:#9803FC;stroke-width:1.0416666666666667;" width="72.9167" x="658.3333" y="1088.9913"/><text fill="#9803FC" font-family="Verdana" font-size="12.5" lengthAdjust="spacing" textLength="37.5" x="676.0417" y="1119.2668">Game</text><rect fill="#FFFFFF" filter="url(#f1jqvj7sfw41kc)" height="50.6083" rx="4.1667" ry="4.1667" style="stroke:#9803FC;stroke-width:1.0416666666666667;" width="71.875" x="828.125" y="10.4167"/><text fill="#9803FC" font-family="Verdana" font-size="12.5" lengthAdjust="spacing" textLength="36.4583" x="845.8333" y="40.6921">Room</text><rect fill="#FFFFFF" filter="url(#f1jqvj7sfw41kc)" height="50.6083" rx="4.1667" ry="4.1667" style="stroke:#9803FC;stroke-width:1.0416666666666667;" width="71.875" x="828.125" y="1088.9913"/><text fill="#9803FC" font-family="Verdana" font-size="12.5" lengthAdjust="spacing" textLength="36.4583" x="845.8333" y="1119.2668">Room</text><rect fill="#FFFFFF" filter="url(#f1jqvj7sfw41kc)" height="50.6083" rx="4.1667" ry="4.1667" style="stroke:#9803FC;stroke-width:1.0416666666666667;" width="76.0417" x="996.875" y="10.4167"/><text fill="#9803FC" font-family="Verdana" font-size="12.5" lengthAdjust="spacing" textLength="40.625" x="1014.5833" y="40.6921">Player</text><rect fill="#FFFFFF" filter="url(#f1jqvj7sfw41kc)" height="50.6083" rx="4.1667" ry="4.1667" style="stroke:#9803FC;stroke-width:1.0416666666666667;" width="76.0417" x="996.875" y="1088.9913"/><text fill="#9803FC" font-family="Verdana" font-size="12.5" lengthAdjust="spacing" textLength="40.625" x="1014.5833" y="1119.2668">Player</text><rect fill="#FFFFFF" filter="url(#f1jqvj7sfw41kc)" height="50.6083" rx="4.1667" ry="4.1667" style="stroke:#9803FC;stroke-width:1.0416666666666667;" width="88.5417" x="1169.7917" y="10.4167"/><text fill="#9803FC" font-family="Verdana" font-size="12.5" lengthAdjust="spacing" textLength="53.125" x="1187.5" y="40.6921">Monster</text><rect fill="#FFFFFF" filter="url(#f1jqvj7sfw41kc)" height="50.6083" rx="4.1667" ry="4.1667" style="stroke:#9803FC;stroke-width:1.0416666666666667;" width="88.5417" x="1169.7917" y="1088.9913"/><text fill="#9803FC" font-family="Verdana" font-size="12.5" lengthAdjust="spacing" textLength="53.125" x="1187.5" y="1119.2668">Monster</text><rect fill="#FFFFFF" filter="url(#f1jqvj7sfw41kc)" height="50.6083" rx="4.1667" ry="4.1667" style="stroke:#9803FC;stroke-width:1.0416666666666667;" width="158.3333" x="1355.2083" y="10.4167"/><text fill="#9803FC" font-family="Verdana" font-size="12.5" lengthAdjust="spacing" textLength="122.9167" x="1372.9167" y="40.6921">ApplicationContext</text><rect fill="#FFFFFF" filter="url(#f1jqvj7sfw41kc)" height="50.6083" rx="4.1667" ry="4.1667" style="stroke:#9803FC;stroke-width:1.0416666666666667;" width="158.3333" x="1355.2083" y="1088.9913"/><text fill="#9803FC" font-family="Verdana" font-size="12.5" lengthAdjust="spacing" textLength="122.9167" x="1372.9167" y="1119.2668">ApplicationContext</text><rect fill="none" filter="url(#f1jqvj7sfw41kc)" height="14.5833" style="stroke:#CCCCCC;stroke-width:1.0416666666666667;" width="10.4167" x="691.1458" y="183.075"/><rect fill="none" filter="url(#f1jqvj7sfw41kc)" height="14.5833" style="stroke:#CCCCCC;stroke-width:1.0416666666666667;" width="10.4167" x="860.4167" y="248.2666"/><rect fill="none" filter="url(#f1jqvj7sfw41kc)" height="50.6083" style="stroke:#CCCCCC;stroke-width:1.0416666666666667;" width="10.4167" x="1031.25" y="661.6414"/><rect fill="none" filter="url(#f1jqvj7sfw41kc)" height="50.6083" style="stroke:#CCCCCC;stroke-width:1.0416666666666667;" width="10.4167" x="1210.4167" y="762.8581"/><rect fill="none" filter="url(#f1jqvj7sfw41kc)" height="14.5833" style="stroke:#CCCCCC;stroke-width:1.0416666666666667;" width="10.4167" x="1430.7292" y="117.8833"/><polygon fill="#9803FC" points="1418.2292,113.7166,1428.6458,117.8833,1418.2292,122.05,1422.3958,117.8833" style="stroke:#9803FC;stroke-width:1.0416666666666667;"/><line style="stroke:#9803FC;stroke-width:3.125;" x1="138.5417" x2="1424.4792" y1="117.8833" y2="117.8833"/><text fill="#222222" font-family="Verdana" font-size="12.5" lengthAdjust="spacing" textLength="69.7917" x="156.25" y="102.7588">getGame()</text><polygon fill="#9803FC" points="150,128.3,139.5833,132.4666,150,136.6333,145.8333,132.4666" style="stroke:#9803FC;stroke-width:1.0416666666666667;"/><line style="stroke:#9803FC;stroke-width:3.125;stroke-dasharray:2.0,2.0;" x1="143.75" x2="1434.8958" y1="132.4666" y2="132.4666"/><polygon fill="#9803FC" points="678.6458,178.9083,689.0625,183.075,678.6458,187.2416,682.8125,183.075" style="stroke:#9803FC;stroke-width:1.0416666666666667;"/><line style="stroke:#9803FC;stroke-width:3.125;" x1="138.5417" x2="684.8958" y1="183.075" y2="183.075"/><text fill="#222222" font-family="Verdana" font-size="12.5" lengthAdjust="spacing" textLength="197.9167" x="156.25" y="167.9504">getCurrentNode(), getPlayer()</text><polygon fill="#9803FC" points="150,193.4916,139.5833,197.6583,150,201.825,145.8333,197.6583" style="stroke:#9803FC;stroke-width:1.0416666666666667;"/><line style="stroke:#9803FC;stroke-width:3.125;stroke-dasharray:2.0,2.0;" x1="143.75" x2="695.3125" y1="197.6583" y2="197.6583"/><polygon fill="#9803FC" points="847.9167,244.0999,858.3333,248.2666,847.9167,252.4333,852.0833,248.2666" style="stroke:#9803FC;stroke-width:1.0416666666666667;"/><line style="stroke:#9803FC;stroke-width:3.125;" x1="138.5417" x2="854.1667" y1="248.2666" y2="248.2666"/><text fill="#222222" font-family="Verdana" font-size="12.5" lengthAdjust="spacing" textLength="85.4167" x="156.25" y="233.1421">getMonster()</text><polygon fill="#9803FC" points="150,258.6833,139.5833,262.8499,150,267.0166,145.8333,262.8499" style="stroke:#9803FC;stroke-width:1.0416666666666667;"/><line style="stroke:#9803FC;stroke-width:3.125;stroke-dasharray:2.0,2.0;" x1="143.75" x2="864.5833" y1="262.8499" y2="262.8499"/><path d="M25,278.4749 L106.25,278.4749 L106.25,306.1666 L95.8333,316.5833 L20.8333,316.5833 L20.8333,282.6416 A4.1667,4.1667 0 0 1 25,278.4749 " fill="#FFFFFF" style="stroke:#9803FC;stroke-width:1.0416666666666667;"/><rect fill="none" height="793.8497" rx="4.1667" ry="4.1667" style="stroke:#9803FC;stroke-width:1.0416666666666667;" width="1303.125" x="20.8333" y="278.4749"/><text fill="#9C27B0" font-family="Verdana" font-size="12.5" font-weight="bold" lengthAdjust="spacing" textLength="17.7083" x="46.875" y="302.5004">alt</text><text fill="#222222" font-family="Verdana" font-size="12.5" font-weight="bold" lengthAdjust="spacing" textLength="171.875" x="132.2917" y="303.5421">[player has "dodge" left]</text><line style="stroke:#9803FC;stroke-width:3.125;" x1="138.5417" x2="182.2917" y1="394.4499" y2="394.4499"/><line style="stroke:#9803FC;stroke-width:3.125;" x1="182.2917" x2="182.2917" y1="394.4499" y2="407.9915"/><line style="stroke:#9803FC;stroke-width:3.125;" x1="139.5833" x2="182.2917" y1="407.9915" y2="407.9915"/><polygon fill="#9803FC" points="150,403.8249,139.5833,407.9915,150,412.1582,145.8333,407.9915" style="stroke:#9803FC;stroke-width:1.0416666666666667;"/><text fill="#222222" font-family="Verdana" font-size="12.5" lengthAdjust="spacing" textLength="335.4167" x="156.25" y="364.1337">Compute monsterMove with a weighted probability</text><text fill="#222222" font-family="Verdana" font-size="12.5" lengthAdjust="spacing" textLength="191.6667" x="156.25" y="379.3254">between DODGE and ATTACK</text><path d="M35.4167,423.6165 L120.8333,423.6165 L120.8333,451.3082 L110.4167,461.7249 L31.25,461.7249 L31.25,427.7832 A4.1667,4.1667 0 0 1 35.4167,423.6165 " fill="#FFFFFF" style="stroke:#9803FC;stroke-width:1.0416666666666667;"/><rect fill="none" height="122.6583" rx="4.1667" ry="4.1667" style="stroke:#9803FC;stroke-width:1.0416666666666667;" width="577.0833" x="31.25" y="423.6165"/><text fill="#9C27B0" font-family="Verdana" font-size="12.5" font-weight="bold" lengthAdjust="spacing" textLength="21.875" x="57.2917" y="447.642">opt</text><text fill="#222222" font-family="Verdana" font-size="12.5" font-weight="bold" lengthAdjust="spacing" textLength="445.8333" x="146.875" y="448.6837">[monsterMove = DODGE and monster does not have 'dodge' left]</text><line style="stroke:#9803FC;stroke-width:3.125;" x1="138.5417" x2="182.2917" y1="524.3998" y2="524.3998"/><line style="stroke:#9803FC;stroke-width:3.125;" x1="182.2917" x2="182.2917" y1="524.3998" y2="537.9415"/><line style="stroke:#9803FC;stroke-width:3.125;" x1="139.5833" x2="182.2917" y1="537.9415" y2="537.9415"/><polygon fill="#9803FC" points="150,533.7748,139.5833,537.9415,150,542.1082,145.8333,537.9415" style="stroke:#9803FC;stroke-width:1.0416666666666667;"/><text fill="#222222" font-family="Verdana" font-size="12.5" lengthAdjust="spacing" textLength="155.2083" x="156.25" y="509.2753">monsterMove = ATTACK</text><path d="M35.4167,560.8582 L116.6667,560.8582 L116.6667,588.5498 L106.25,598.9665 L31.25,598.9665 L31.25,565.0248 A4.1667,4.1667 0 0 1 35.4167,560.8582 " fill="#FFFFFF" style="stroke:#9803FC;stroke-width:1.0416666666666667;"/><rect fill="none" height="415.4582" rx="4.1667" ry="4.1667" style="stroke:#9803FC;stroke-width:1.0416666666666667;" width="1282.2917" x="31.25" y="560.8582"/><text fill="#9C27B0" font-family="Verdana" font-size="12.5" font-weight="bold" lengthAdjust="spacing" textLength="17.7083" x="57.2917" y="584.8836">alt</text><text fill="#222222" font-family="Verdana" font-size="12.5" font-weight="bold" lengthAdjust="spacing" textLength="178.125" x="142.7083" y="585.9253">[monsterMove = ATTACK]</text><polygon fill="#9803FC" points="1018.75,657.4748,1029.1667,661.6414,1018.75,665.8081,1022.9167,661.6414" style="stroke:#9803FC;stroke-width:1.0416666666666667;"/><line style="stroke:#9803FC;stroke-width:3.125;" x1="138.5417" x2="1025" y1="661.6414" y2="661.6414"/><text fill="#222222" font-family="Verdana" font-size="12.5" lengthAdjust="spacing" textLength="127.0833" x="156.25" y="646.5169">getAttackDamage()</text><polygon fill="#9803FC" points="150,708.0831,139.5833,712.2498,150,716.4164,145.8333,712.2498" style="stroke:#9803FC;stroke-width:1.0416666666666667;"/><line style="stroke:#9803FC;stroke-width:3.125;stroke-dasharray:2.0,2.0;" x1="143.75" x2="1035.4167" y1="712.2498" y2="712.2498"/><text fill="#222222" font-family="Verdana" font-size="12.5" lengthAdjust="spacing" textLength="244.7917" x="166.6667" y="697.1252">Returns attack damage of the player.</text><polygon fill="#9803FC" points="1197.9167,758.6914,1208.3333,762.8581,1197.9167,767.0247,1202.0833,762.8581" style="stroke:#9803FC;stroke-width:1.0416666666666667;"/><line style="stroke:#9803FC;stroke-width:3.125;" x1="138.5417" x2="1204.1667" y1="762.8581" y2="762.8581"/><text fill="#222222" font-family="Verdana" font-size="12.5" lengthAdjust="spacing" textLength="162.5" x="156.25" y="747.7336">hit(playerAttackDamage)</text><polygon fill="#9803FC" points="150,809.2997,139.5833,813.4664,150,817.6331,145.8333,813.4664" style="stroke:#9803FC;stroke-width:1.0416666666666667;"/><line style="stroke:#9803FC;stroke-width:3.125;stroke-dasharray:2.0,2.0;" x1="143.75" x2="1214.5833" y1="813.4664" y2="813.4664"/><text fill="#222222" font-family="Verdana" font-size="12.5" lengthAdjust="spacing" textLength="211.4583" x="166.6667" y="798.3419">Returns inflicted attack damage.</text><polygon fill="#9803FC" points="496.875,875.0997,507.2917,879.2664,496.875,883.433,501.0417,879.2664" style="stroke:#9803FC;stroke-width:1.0416666666666667;"/><line style="stroke:#9803FC;stroke-width:3.125;" x1="138.5417" x2="503.125" y1="879.2664" y2="879.2664"/><text fill="#222222" font-family="Verdana" font-size="12.5" lengthAdjust="spacing" textLength="281.25" x="156.25" y="848.9502">Notify that the player dodged the incoming</text><text fill="#222222" font-family="Verdana" font-size="12.5" lengthAdjust="spacing" textLength="179.1667" x="156.25" y="864.1418">attack and hit the monster.</text><line style="stroke:#9803FC;stroke-width:1.0416666666666667;stroke-dasharray:2.0,2.0;" x1="31.25" x2="1313.5417" y1="888.6414" y2="888.6414"/><text fill="#222222" font-family="Verdana" font-size="12.5" font-weight="bold" lengthAdjust="spacing" textLength="40.625" x="46.875" y="911.6252">[else]</text><polygon fill="#9803FC" points="496.875,963.8163,507.2917,967.983,496.875,972.1497,501.0417,967.983" style="stroke:#9803FC;stroke-width:1.0416666666666667;"/><line style="stroke:#9803FC;stroke-width:3.125;" x1="138.5417" x2="503.125" y1="967.983" y2="967.983"/><text fill="#222222" font-family="Verdana" font-size="12.5" lengthAdjust="spacing" textLength="293.75" x="156.25" y="952.8585">Notify that both monster and player dodged.</text><line style="stroke:#9803FC;stroke-width:1.0416666666666667;stroke-dasharray:2.0,2.0;" x1="20.8333" x2="1323.9583" y1="984.6497" y2="984.6497"/><text fill="#222222" font-family="Verdana" font-size="12.5" font-weight="bold" lengthAdjust="spacing" textLength="272.9167" x="36.4583" y="1007.6335">[player does not have any "dodge" left]</text><polygon fill="#9803FC" points="496.875,1059.8246,507.2917,1063.9913,496.875,1068.158,501.0417,1063.9913" style="stroke:#9803FC;stroke-width:1.0416666666666667;"/><line style="stroke:#9803FC;stroke-width:3.125;" x1="138.5417" x2="503.125" y1="1063.9913" y2="1063.9913"/><text fill="#222222" font-family="Verdana" font-size="12.5" lengthAdjust="spacing" textLength="239.5833" x="156.25" y="1048.8668">Notify the player has no dodges left.</text><!--SRC=[bLHDRzim3BtxLt3PeHswP0DssG9iW9kimJ3q0ssFlIWMumYrHK-cbmN3_dibMKaivsER3tP0FhxtI4fvnKii4Kh1Q9GOKiE5qfWazRFIbJ2YXDGOMase80ElFtry_s6HTPAN8dlE3JLQ1iILV_wrFCsOp2KPYUOav8eqd-Re-zY3tGd3AbELq7oAhGCxxQiB_EiGVYVmW3yQr1dEBB0wHFqdIP9gHmgJKav9vXW51z_UtS836nJb84hCH1aZxudAA71NY3MQA7HDkkPUBAsgGcM25Uc9dHF-OkjhumM6Nmu0BYx6a2Cx2-Tlalqy36tPjftz_70OApYYm3bfZ47DDoGjzLiNQTkmEWuLCxj8dykD8N25Rcsf2yQbBk9AHS5GUGLOYXe6qcK7KE224x1FbthpUmmJAgk6xIrg5Qxf9y9AyH84h53bIqO9bQ6vcAj2yVf9pv5NY1gcjzFPLn1QGlhuc4w-9rw4AeweFdTm8GwIi0PDR6rQn9dtURRpUSmhZ7lCGTVXKKl_TJCu2keJj-i84qwPxLMOYbBaxYHiy2qc6lWOxf4ResiGlWQaBm9QWFr32YiOzHZSWWvv28jr9fQApzlYhfUTbG0zuaNfXJsQRbkHgr6__9YHxkqSmmsnMgnjFu8xJO5VbVGHfJCgbSwVTD1p6xOj-6HOGIkEHOt-zP-wSxAdS7Dc77jaOhJTk-VVvhf7I-ZrwMjmH1oxzqXJgrXxYb5Y9Ly0]--></g></svg>