<?xml version="1.0" encoding="us-ascii" standalone="no"?><svg xmlns="http://www.w3.org/2000/svg" xmlns:xlink="http://www.w3.org/1999/xlink" contentStyleType="text/css" height="2276.0417px" preserveAspectRatio="none" style="width:2114px;height:2276px;background:#FFFFFF;" version="1.1" viewBox="0 0 2114 2276" width="2114.5833px" zoomAndPan="magnify"><defs><filter height="300%" id="f17dcabr5e2w0f" width="300%" x="-1" y="-1"><feGaussianBlur result="blurOut" stdDeviation="2.0833333333333335"/><feColorMatrix in="blurOut" result="blurOut2" type="matrix" values="0 0 0 0 0 0 0 0 0 0 0 0 0 0 0 0 0 0 .4 0"/><feOffset dx="4.166666666666667" dy="4.166666666666667" in="blurOut2" result="blurOut3"/><feBlend in="SourceGraphic" in2="blurOut3" mode="normal"/></filter></defs><g><rect fill="none" filter="url(#f17dcabr5e2w0f)" height="2124.6826" style="stroke:#CCCCCC;stroke-width:1.0416666666666667;" width="10.4167" x="148.9583" y="75.6083"/><rect fill="none" filter="url(#f17dcabr5e2w0f)" height="94.3583" style="stroke:#CCCCCC;stroke-width:1.0416666666666667;" width="10.4167" x="529.1667" y="852.183"/><rect fill="none" filter="url(#f17dcabr5e2w0f)" height="14.5833" style="stroke:#CCCCCC;stroke-width:1.0416666666666667;" width="10.4167" x="751.5625" y="786.9914"/><rect fill="none" filter="url(#f17dcabr5e2w0f)" height="14.5833" style="stroke:#CCCCCC;stroke-width:1.0416666666666667;" width="10.4167" x="751.5625" y="1832.0577"/><rect fill="none" filter="url(#f17dcabr5e2w0f)" height="14.5833" style="stroke:#CCCCCC;stroke-width:1.0416666666666667;" width="10.4167" x="981.25" y="117.8833"/><rect fill="none" filter="url(#f17dcabr5e2w0f)" height="14.5833" style="stroke:#CCCCCC;stroke-width:1.0416666666666667;" width="10.4167" x="981.25" y="1897.2493"/><rect fill="none" filter="url(#f17dcabr5e2w0f)" height="14.5833" style="stroke:#CCCCCC;stroke-width:1.0416666666666667;" width="10.4167" x="1195.3125" y="655.9998"/><rect fill="none" filter="url(#f17dcabr5e2w0f)" height="14.5833" style="stroke:#CCCCCC;stroke-width:1.0416666666666667;" width="10.4167" x="1374.4792" y="314.0666"/><rect fill="none" filter="url(#f17dcabr5e2w0f)" height="50.6083" style="stroke:#CCCCCC;stroke-width:1.0416666666666667;" width="10.4167" x="1374.4792" y="1634.8328"/><rect fill="none" filter="url(#f17dcabr5e2w0f)" height="14.5833" style="stroke:#CCCCCC;stroke-width:1.0416666666666667;" width="10.4167" x="1552.0833" y="183.075"/><rect fill="none" filter="url(#f17dcabr5e2w0f)" height="18.75" style="stroke:#CCCCCC;stroke-width:1.0416666666666667;" width="10.4167" x="1735.9375" y="913.208"/><rect fill="none" filter="url(#f17dcabr5e2w0f)" height="14.5833" style="stroke:#CCCCCC;stroke-width:1.0416666666666667;" width="10.4167" x="1735.9375" y="1164.1663"/><rect fill="none" filter="url(#f17dcabr5e2w0f)" height="14.5833" style="stroke:#CCCCCC;stroke-width:1.0416666666666667;" width="10.4167" x="1950.5208" y="1962.441"/><rect fill="none" filter="url(#f17dcabr5e2w0f)" height="1978.6743" rx="4.1667" ry="4.1667" style="stroke:#9803FC;stroke-width:1.0416666666666667;" width="2076.5625" x="20.8333" y="213.2833"/><rect fill="none" filter="url(#f17dcabr5e2w0f)" height="1787.6994" rx="4.1667" ry="4.1667" style="stroke:#9803FC;stroke-width:1.0416666666666667;" width="2055.7292" x="31.25" y="344.2749"/><rect fill="none" filter="url(#f17dcabr5e2w0f)" height="615.6331" rx="4.1667" ry="4.1667" style="stroke:#9803FC;stroke-width:1.0416666666666667;" width="1814.0625" x="41.6667" y="686.2081"/><rect fill="none" filter="url(#f17dcabr5e2w0f)" height="313.6332" rx="4.1667" ry="4.1667" style="stroke:#9803FC;stroke-width:1.0416666666666667;" width="1793.2292" x="52.0833" y="962.1663"/><rect fill="none" filter="url(#f17dcabr5e2w0f)" height="668.9331" rx="4.1667" ry="4.1667" style="stroke:#9803FC;stroke-width:1.0416666666666667;" width="2034.8958" x="41.6667" y="1367.0329"/><rect fill="none" filter="url(#f17dcabr5e2w0f)" height="210.3333" rx="4.1667" ry="4.1667" style="stroke:#9803FC;stroke-width:1.0416666666666667;" width="1595.3125" x="52.0833" y="1534.0495"/><line style="stroke:#CCCCCC;stroke-width:1.0416666666666667;stroke-dasharray:5.0,5.0;" x1="154.1667" x2="154.1667" y1="65.1917" y2="2209.6659"/><line style="stroke:#CCCCCC;stroke-width:1.0416666666666667;stroke-dasharray:5.0,5.0;" x1="533.8542" x2="533.8542" y1="65.1917" y2="2209.6659"/><line style="stroke:#CCCCCC;stroke-width:1.0416666666666667;stroke-dasharray:5.0,5.0;" x1="756.7708" x2="756.7708" y1="65.1917" y2="2209.6659"/><line style="stroke:#CCCCCC;stroke-width:1.0416666666666667;stroke-dasharray:5.0,5.0;" x1="985.9375" x2="985.9375" y1="65.1917" y2="2209.6659"/><line style="stroke:#CCCCCC;stroke-width:1.0416666666666667;stroke-dasharray:5.0,5.0;" x1="1200.5208" x2="1200.5208" y1="65.1917" y2="2209.6659"/><line style="stroke:#CCCCCC;stroke-width:1.0416666666666667;stroke-dasharray:5.0,5.0;" x1="1379.6875" x2="1379.6875" y1="65.1917" y2="2209.6659"/><line style="stroke:#CCCCCC;stroke-width:1.0416666666666667;stroke-dasharray:5.0,5.0;" x1="1556.7708" x2="1556.7708" y1="65.1917" y2="2209.6659"/><line style="stroke:#CCCCCC;stroke-width:1.0416666666666667;stroke-dasharray:5.0,5.0;" x1="1741.1458" x2="1741.1458" y1="903.5288" y2="2209.6659"/><line style="stroke:#CCCCCC;stroke-width:1.0416666666666667;stroke-dasharray:5.0,5.0;" x1="1955.7292" x2="1955.7292" y1="65.1917" y2="2209.6659"/><rect fill="#FFFFFF" filter="url(#f17dcabr5e2w0f)" height="50.6083" rx="4.1667" ry="4.1667" style="stroke:#9803FC;stroke-width:1.0416666666666667;" width="96.875" x="104.1667" y="10.4167"/><text fill="#9803FC" font-family="Verdana" font-size="12.5" lengthAdjust="spacing" textLength="61.4583" x="121.875" y="40.6921">CmdFight</text><rect fill="#FFFFFF" filter="url(#f17dcabr5e2w0f)" height="50.6083" rx="4.1667" ry="4.1667" style="stroke:#9803FC;stroke-width:1.0416666666666667;" width="96.875" x="104.1667" y="2208.6243"/><text fill="#9803FC" font-family="Verdana" font-size="12.5" lengthAdjust="spacing" textLength="61.4583" x="121.875" y="2238.8997">CmdFight</text><rect fill="#FFFFFF" filter="url(#f17dcabr5e2w0f)" height="50.6083" rx="4.1667" ry="4.1667" style="stroke:#9803FC;stroke-width:1.0416666666666667;" width="143.75" x="460.9375" y="10.4167"/><text fill="#9803FC" font-family="Verdana" font-size="12.5" lengthAdjust="spacing" textLength="108.3333" x="478.6458" y="40.6921">CommandParser</text><rect fill="#FFFFFF" filter="url(#f17dcabr5e2w0f)" height="50.6083" rx="4.1667" ry="4.1667" style="stroke:#9803FC;stroke-width:1.0416666666666667;" width="143.75" x="460.9375" y="2208.6243"/><text fill="#9803FC" font-family="Verdana" font-size="12.5" lengthAdjust="spacing" textLength="108.3333" x="478.6458" y="2238.8997">CommandParser</text><rect fill="#FFFFFF" filter="url(#f17dcabr5e2w0f)" height="50.6083" rx="4.1667" ry="4.1667" style="stroke:#9803FC;stroke-width:1.0416666666666667;" width="107.2917" x="701.5625" y="10.4167"/><text fill="#9803FC" font-family="Verdana" font-size="12.5" lengthAdjust="spacing" textLength="71.875" x="719.2708" y="40.6921">I/O Stream</text><rect fill="#FFFFFF" filter="url(#f17dcabr5e2w0f)" height="50.6083" rx="4.1667" ry="4.1667" style="stroke:#9803FC;stroke-width:1.0416666666666667;" width="107.2917" x="701.5625" y="2208.6243"/><text fill="#9803FC" font-family="Verdana" font-size="12.5" lengthAdjust="spacing" textLength="71.875" x="719.2708" y="2238.8997">I/O Stream</text><rect fill="#FFFFFF" filter="url(#f17dcabr5e2w0f)" height="50.6083" rx="4.1667" ry="4.1667" style="stroke:#9803FC;stroke-width:1.0416666666666667;" width="158.3333" x="905.7292" y="10.4167"/><text fill="#9803FC" font-family="Verdana" font-size="12.5" lengthAdjust="spacing" textLength="122.9167" x="923.4375" y="40.6921">ApplicationContext</text><rect fill="#FFFFFF" filter="url(#f17dcabr5e2w0f)" height="50.6083" rx="4.1667" ry="4.1667" style="stroke:#9803FC;stroke-width:1.0416666666666667;" width="158.3333" x="905.7292" y="2208.6243"/><text fill="#9803FC" font-family="Verdana" font-size="12.5" lengthAdjust="spacing" textLength="122.9167" x="923.4375" y="2238.8997">ApplicationContext</text><rect fill="#FFFFFF" filter="url(#f17dcabr5e2w0f)" height="50.6083" rx="4.1667" ry="4.1667" style="stroke:#9803FC;stroke-width:1.0416666666666667;" width="76.0417" x="1160.9375" y="10.4167"/><text fill="#9803FC" font-family="Verdana" font-size="12.5" lengthAdjust="spacing" textLength="40.625" x="1178.6458" y="40.6921">Player</text><rect fill="#FFFFFF" filter="url(#f17dcabr5e2w0f)" height="50.6083" rx="4.1667" ry="4.1667" style="stroke:#9803FC;stroke-width:1.0416666666666667;" width="76.0417" x="1160.9375" y="2208.6243"/><text fill="#9803FC" font-family="Verdana" font-size="12.5" lengthAdjust="spacing" textLength="40.625" x="1178.6458" y="2238.8997">Player</text><rect fill="#FFFFFF" filter="url(#f17dcabr5e2w0f)" height="50.6083" rx="4.1667" ry="4.1667" style="stroke:#9803FC;stroke-width:1.0416666666666667;" width="88.5417" x="1333.8542" y="10.4167"/><text fill="#9803FC" font-family="Verdana" font-size="12.5" lengthAdjust="spacing" textLength="53.125" x="1351.5625" y="40.6921">Monster</text><rect fill="#FFFFFF" filter="url(#f17dcabr5e2w0f)" height="50.6083" rx="4.1667" ry="4.1667" style="stroke:#9803FC;stroke-width:1.0416666666666667;" width="88.5417" x="1333.8542" y="2208.6243"/><text fill="#9803FC" font-family="Verdana" font-size="12.5" lengthAdjust="spacing" textLength="53.125" x="1351.5625" y="2238.8997">Monster</text><rect fill="#FFFFFF" filter="url(#f17dcabr5e2w0f)" height="50.6083" rx="4.1667" ry="4.1667" style="stroke:#9803FC;stroke-width:1.0416666666666667;" width="72.9167" x="1519.2708" y="10.4167"/><text fill="#9803FC" font-family="Verdana" font-size="12.5" lengthAdjust="spacing" textLength="37.5" x="1536.9792" y="40.6921">Game</text><rect fill="#FFFFFF" filter="url(#f17dcabr5e2w0f)" height="50.6083" rx="4.1667" ry="4.1667" style="stroke:#9803FC;stroke-width:1.0416666666666667;" width="72.9167" x="1519.2708" y="2208.6243"/><text fill="#9803FC" font-family="Verdana" font-size="12.5" lengthAdjust="spacing" textLength="37.5" x="1536.9792" y="2238.8997">Game</text><rect fill="#FFFFFF" filter="url(#f17dcabr5e2w0f)" height="50.6083" rx="4.1667" ry="4.1667" style="stroke:#9803FC;stroke-width:1.0416666666666667;" width="101.0417" x="1689.0625" y="2208.6243"/><text fill="#9803FC" font-family="Verdana" font-size="12.5" lengthAdjust="spacing" textLength="65.625" x="1706.7708" y="2238.8997">Command</text><rect fill="#FFFFFF" filter="url(#f17dcabr5e2w0f)" height="50.6083" rx="4.1667" ry="4.1667" style="stroke:#9803FC;stroke-width:1.0416666666666667;" width="134.375" x="1886.9792" y="10.4167"/><text fill="#9803FC" font-family="Verdana" font-size="12.5" lengthAdjust="spacing" textLength="98.9583" x="1904.6875" y="40.6921">StorageService</text><rect fill="#FFFFFF" filter="url(#f17dcabr5e2w0f)" height="50.6083" rx="4.1667" ry="4.1667" style="stroke:#9803FC;stroke-width:1.0416666666666667;" width="134.375" x="1886.9792" y="2208.6243"/><text fill="#9803FC" font-family="Verdana" font-size="12.5" lengthAdjust="spacing" textLength="98.9583" x="1904.6875" y="2238.8997">StorageService</text><rect fill="none" filter="url(#f17dcabr5e2w0f)" height="2124.6826" style="stroke:#CCCCCC;stroke-width:1.0416666666666667;" width="10.4167" x="148.9583" y="75.6083"/><rect fill="none" filter="url(#f17dcabr5e2w0f)" height="94.3583" style="stroke:#CCCCCC;stroke-width:1.0416666666666667;" width="10.4167" x="529.1667" y="852.183"/><rect fill="none" filter="url(#f17dcabr5e2w0f)" height="14.5833" style="stroke:#CCCCCC;stroke-width:1.0416666666666667;" width="10.4167" x="751.5625" y="786.9914"/><rect fill="none" filter="url(#f17dcabr5e2w0f)" height="14.5833" style="stroke:#CCCCCC;stroke-width:1.0416666666666667;" width="10.4167" x="751.5625" y="1832.0577"/><rect fill="none" filter="url(#f17dcabr5e2w0f)" height="14.5833" style="stroke:#CCCCCC;stroke-width:1.0416666666666667;" width="10.4167" x="981.25" y="117.8833"/><rect fill="none" filter="url(#f17dcabr5e2w0f)" height="14.5833" style="stroke:#CCCCCC;stroke-width:1.0416666666666667;" width="10.4167" x="981.25" y="1897.2493"/><rect fill="none" filter="url(#f17dcabr5e2w0f)" height="14.5833" style="stroke:#CCCCCC;stroke-width:1.0416666666666667;" width="10.4167" x="1195.3125" y="655.9998"/><rect fill="none" filter="url(#f17dcabr5e2w0f)" height="14.5833" style="stroke:#CCCCCC;stroke-width:1.0416666666666667;" width="10.4167" x="1374.4792" y="314.0666"/><rect fill="none" filter="url(#f17dcabr5e2w0f)" height="50.6083" style="stroke:#CCCCCC;stroke-width:1.0416666666666667;" width="10.4167" x="1374.4792" y="1634.8328"/><rect fill="none" filter="url(#f17dcabr5e2w0f)" height="14.5833" style="stroke:#CCCCCC;stroke-width:1.0416666666666667;" width="10.4167" x="1552.0833" y="183.075"/><rect fill="none" filter="url(#f17dcabr5e2w0f)" height="18.75" style="stroke:#CCCCCC;stroke-width:1.0416666666666667;" width="10.4167" x="1735.9375" y="913.208"/><rect fill="none" filter="url(#f17dcabr5e2w0f)" height="14.5833" style="stroke:#CCCCCC;stroke-width:1.0416666666666667;" width="10.4167" x="1735.9375" y="1164.1663"/><rect fill="none" filter="url(#f17dcabr5e2w0f)" height="14.5833" style="stroke:#CCCCCC;stroke-width:1.0416666666666667;" width="10.4167" x="1950.5208" y="1962.441"/><polygon fill="#9803FC" points="968.75,113.7166,979.1667,117.8833,968.75,122.05,972.9167,117.8833" style="stroke:#9803FC;stroke-width:1.0416666666666667;"/><line style="stroke:#9803FC;stroke-width:3.125;" x1="159.375" x2="975" y1="117.8833" y2="117.8833"/><text fill="#222222" font-family="Verdana" font-size="12.5" lengthAdjust="spacing" textLength="69.7917" x="177.0833" y="102.7588">getGame()</text><polygon fill="#9803FC" points="170.8333,128.3,160.4167,132.4666,170.8333,136.6333,166.6667,132.4666" style="stroke:#9803FC;stroke-width:1.0416666666666667;"/><line style="stroke:#9803FC;stroke-width:3.125;stroke-dasharray:2.0,2.0;" x1="164.5833" x2="985.4167" y1="132.4666" y2="132.4666"/><polygon fill="#9803FC" points="1539.5833,178.9083,1550,183.075,1539.5833,187.2416,1543.75,183.075" style="stroke:#9803FC;stroke-width:1.0416666666666667;"/><line style="stroke:#9803FC;stroke-width:3.125;" x1="159.375" x2="1545.8333" y1="183.075" y2="183.075"/><text fill="#222222" font-family="Verdana" font-size="12.5" lengthAdjust="spacing" textLength="291.6667" x="177.0833" y="167.9504">getPlayer(), getCurrentNode(), getMonster()</text><polygon fill="#9803FC" points="170.8333,193.4916,160.4167,197.6583,170.8333,201.825,166.6667,197.6583" style="stroke:#9803FC;stroke-width:1.0416666666666667;"/><line style="stroke:#9803FC;stroke-width:3.125;stroke-dasharray:2.0,2.0;" x1="164.5833" x2="1556.25" y1="197.6583" y2="197.6583"/><path d="M25,213.2833 L106.25,213.2833 L106.25,240.9749 L95.8333,251.3916 L20.8333,251.3916 L20.8333,217.45 A4.1667,4.1667 0 0 1 25,213.2833 " fill="#FFFFFF" style="stroke:#9803FC;stroke-width:1.0416666666666667;"/><rect fill="none" height="1978.6743" rx="4.1667" ry="4.1667" style="stroke:#9803FC;stroke-width:1.0416666666666667;" width="2076.5625" x="20.8333" y="213.2833"/><text fill="#9C27B0" font-family="Verdana" font-size="12.5" font-weight="bold" lengthAdjust="spacing" textLength="17.7083" x="46.875" y="237.3088">alt</text><text fill="#222222" font-family="Verdana" font-size="12.5" font-weight="bold" lengthAdjust="spacing" textLength="354.1667" x="132.2917" y="238.3504">[currentNode instanceof Room and monster != null]</text><polygon fill="#9803FC" points="1361.9792,309.8999,1372.3958,314.0666,1361.9792,318.2332,1366.1458,314.0666" style="stroke:#9803FC;stroke-width:1.0416666666666667;"/><line style="stroke:#9803FC;stroke-width:3.125;" x1="159.375" x2="1368.2292" y1="314.0666" y2="314.0666"/><text fill="#222222" font-family="Verdana" font-size="12.5" lengthAdjust="spacing" textLength="51.0417" x="177.0833" y="298.9421">isAlive()</text><polygon fill="#9803FC" points="170.8333,324.4832,160.4167,328.6499,170.8333,332.8166,166.6667,328.6499" style="stroke:#9803FC;stroke-width:1.0416666666666667;"/><line style="stroke:#9803FC;stroke-width:3.125;stroke-dasharray:2.0,2.0;" x1="164.5833" x2="1378.6458" y1="328.6499" y2="328.6499"/><path d="M35.4167,344.2749 L116.6667,344.2749 L116.6667,371.9666 L106.25,382.3832 L31.25,382.3832 L31.25,348.4416 A4.1667,4.1667 0 0 1 35.4167,344.2749 " fill="#FFFFFF" style="stroke:#9803FC;stroke-width:1.0416666666666667;"/><rect fill="none" height="1787.6994" rx="4.1667" ry="4.1667" style="stroke:#9803FC;stroke-width:1.0416666666666667;" width="2055.7292" x="31.25" y="344.2749"/><text fill="#9C27B0" font-family="Verdana" font-size="12.5" font-weight="bold" lengthAdjust="spacing" textLength="17.7083" x="57.2917" y="368.3004">alt</text><text fill="#222222" font-family="Verdana" font-size="12.5" font-weight="bold" lengthAdjust="spacing" textLength="121.875" x="142.7083" y="369.342">[monster is alive]</text><polygon fill="#9803FC" points="521.875,456.0832,532.2917,460.2498,521.875,464.4165,526.0417,460.2498" style="stroke:#9803FC;stroke-width:1.0416666666666667;"/><line style="stroke:#9803FC;stroke-width:3.125;" x1="159.375" x2="528.125" y1="460.2498" y2="460.2498"/><text fill="#222222" font-family="Verdana" font-size="12.5" lengthAdjust="spacing" textLength="181.25" x="177.0833" y="429.9337">Enable fight commands and</text><text fill="#222222" font-family="Verdana" font-size="12.5" lengthAdjust="spacing" textLength="183.3333" x="177.0833" y="445.1253">disable all other commands.</text><polygon fill="#9803FC" points="1544.7917,506.6915,1555.2083,510.8582,1544.7917,515.0248,1548.9583,510.8582" style="stroke:#9803FC;stroke-width:1.0416666666666667;"/><line style="stroke:#9803FC;stroke-width:3.125;" x1="159.375" x2="1551.0417" y1="510.8582" y2="510.8582"/><text fill="#222222" font-family="Verdana" font-size="12.5" lengthAdjust="spacing" textLength="220.8333" x="177.0833" y="495.7336">setFightStatus(true) of the player</text><line style="stroke:#9803FC;stroke-width:3.125;" x1="159.375" x2="203.125" y1="591.8498" y2="591.8498"/><line style="stroke:#9803FC;stroke-width:3.125;" x1="203.125" x2="203.125" y1="591.8498" y2="605.3914"/><line style="stroke:#9803FC;stroke-width:3.125;" x1="160.4167" x2="203.125" y1="605.3914" y2="605.3914"/><polygon fill="#9803FC" points="170.8333,601.2248,160.4167,605.3914,170.8333,609.5581,166.6667,605.3914" style="stroke:#9803FC;stroke-width:1.0416666666666667;"/><text fill="#222222" font-family="Verdana" font-size="12.5" lengthAdjust="spacing" textLength="132.2917" x="177.0833" y="546.342">Reset player dodge,</text><text fill="#222222" font-family="Verdana" font-size="12.5" lengthAdjust="spacing" textLength="142.7083" x="177.0833" y="561.5336">reset monster dodge,</text><text fill="#222222" font-family="Verdana" font-size="12.5" lengthAdjust="spacing" textLength="117.7083" x="177.0833" y="576.7253">reset monster hp.</text><polygon fill="#9803FC" points="1182.8125,651.8331,1193.2292,655.9998,1182.8125,660.1664,1186.9792,655.9998" style="stroke:#9803FC;stroke-width:1.0416666666666667;"/><line style="stroke:#9803FC;stroke-width:3.125;" x1="159.375" x2="1189.0625" y1="655.9998" y2="655.9998"/><text fill="#222222" font-family="Verdana" font-size="12.5" lengthAdjust="spacing" textLength="51.0417" x="177.0833" y="640.8752">isAlive()</text><polygon fill="#9803FC" points="170.8333,666.4164,160.4167,670.5831,170.8333,674.7498,166.6667,670.5831" style="stroke:#9803FC;stroke-width:1.0416666666666667;"/><line style="stroke:#9803FC;stroke-width:3.125;stroke-dasharray:2.0,2.0;" x1="164.5833" x2="1199.4792" y1="670.5831" y2="670.5831"/><path d="M45.8333,686.2081 L138.5417,686.2081 L138.5417,713.8997 L128.125,724.3164 L41.6667,724.3164 L41.6667,690.3748 A4.1667,4.1667 0 0 1 45.8333,686.2081 " fill="#FFFFFF" style="stroke:#9803FC;stroke-width:1.0416666666666667;"/><rect fill="none" height="615.6331" rx="4.1667" ry="4.1667" style="stroke:#9803FC;stroke-width:1.0416666666666667;" width="1814.0625" x="41.6667" y="686.2081"/><text fill="#9C27B0" font-family="Verdana" font-size="12.5" font-weight="bold" lengthAdjust="spacing" textLength="29.1667" x="67.7083" y="710.2336">loop</text><text fill="#222222" font-family="Verdana" font-size="12.5" font-weight="bold" lengthAdjust="spacing" textLength="401.0417" x="164.5833" y="711.2752">[player is alive and monster is alive and player is fighting]</text><polygon fill="#9803FC" points="739.0625,782.8247,749.4792,786.9914,739.0625,791.158,743.2292,786.9914" style="stroke:#9803FC;stroke-width:1.0416666666666667;"/><line style="stroke:#9803FC;stroke-width:3.125;" x1="159.375" x2="745.3125" y1="786.9914" y2="786.9914"/><text fill="#222222" font-family="Verdana" font-size="12.5" lengthAdjust="spacing" textLength="243.75" x="177.0833" y="771.8669">Gets command from from I/O Stream.</text><polygon fill="#9803FC" points="170.8333,797.408,160.4167,801.5747,170.8333,805.7414,166.6667,801.5747" style="stroke:#9803FC;stroke-width:1.0416666666666667;"/><line style="stroke:#9803FC;stroke-width:3.125;stroke-dasharray:2.0,2.0;" x1="164.5833" x2="755.7292" y1="801.5747" y2="801.5747"/><polygon fill="#9803FC" points="516.6667,848.0164,527.0833,852.183,516.6667,856.3497,520.8333,852.183" style="stroke:#9803FC;stroke-width:1.0416666666666667;"/><line style="stroke:#9803FC;stroke-width:3.125;" x1="159.375" x2="522.9167" y1="852.183" y2="852.183"/><text fill="#222222" font-family="Verdana" font-size="12.5" lengthAdjust="spacing" textLength="139.5833" x="177.0833" y="837.0585">parseCommand(cmd)</text><polygon fill="#9803FC" points="1676.5625,898.6247,1686.9792,902.7913,1676.5625,906.958,1680.7292,902.7913" style="stroke:#9803FC;stroke-width:1.0416666666666667;"/><line style="stroke:#9803FC;stroke-width:3.125;" x1="539.5833" x2="1682.8125" y1="902.7913" y2="902.7913"/><text fill="#222222" font-family="Verdana" font-size="12.5" lengthAdjust="spacing" textLength="52.0833" x="557.2917" y="887.6668">create()</text><rect fill="#FFFFFF" filter="url(#f17dcabr5e2w0f)" height="50.6083" rx="4.1667" ry="4.1667" style="stroke:#9803FC;stroke-width:1.0416666666666667;" width="101.0417" x="1689.0625" y="860.5164"/><text fill="#9803FC" font-family="Verdana" font-size="12.5" lengthAdjust="spacing" textLength="65.625" x="1706.7708" y="890.7918">Command</text><polygon fill="#9803FC" points="551.0417,927.7913,540.625,931.958,551.0417,936.1247,546.875,931.958" style="stroke:#9803FC;stroke-width:1.0416666666666667;"/><line style="stroke:#9803FC;stroke-width:3.125;stroke-dasharray:2.0,2.0;" x1="544.7917" x2="1740.1042" y1="931.958" y2="931.958"/><polygon fill="#9803FC" points="170.8333,942.3747,160.4167,946.5413,170.8333,950.708,166.6667,946.5413" style="stroke:#9803FC;stroke-width:1.0416666666666667;"/><line style="stroke:#9803FC;stroke-width:3.125;stroke-dasharray:2.0,2.0;" x1="164.5833" x2="533.3333" y1="946.5413" y2="946.5413"/><path d="M56.25,962.1663 L137.5,962.1663 L137.5,989.858 L127.0833,1000.2747 L52.0833,1000.2747 L52.0833,966.333 A4.1667,4.1667 0 0 1 56.25,962.1663 " fill="#FFFFFF" style="stroke:#9803FC;stroke-width:1.0416666666666667;"/><rect fill="none" height="313.6332" rx="4.1667" ry="4.1667" style="stroke:#9803FC;stroke-width:1.0416666666666667;" width="1793.2292" x="52.0833" y="962.1663"/><text fill="#9C27B0" font-family="Verdana" font-size="12.5" font-weight="bold" lengthAdjust="spacing" textLength="17.7083" x="78.125" y="986.1918">alt</text><text fill="#222222" font-family="Verdana" font-size="12.5" font-weight="bold" lengthAdjust="spacing" textLength="301.0417" x="163.5417" y="987.2335">[command = one of the enabled commands]</text><polygon fill="#9803FC" points="1728.6458,1058.783,1739.0625,1062.9496,1728.6458,1067.1163,1732.8125,1062.9496" style="stroke:#9803FC;stroke-width:1.0416666666666667;"/><line style="stroke:#9803FC;stroke-width:3.125;" x1="159.375" x2="1734.8958" y1="1062.9496" y2="1062.9496"/><text fill="#222222" font-family="Verdana" font-size="12.5" lengthAdjust="spacing" textLength="221.875" x="177.0833" y="1047.8251">setInputStream(this.inputStream)</text><polygon fill="#9803FC" points="1728.6458,1109.3913,1739.0625,1113.5579,1728.6458,1117.7246,1732.8125,1113.5579" style="stroke:#9803FC;stroke-width:1.0416666666666667;"/><line style="stroke:#9803FC;stroke-width:3.125;" x1="159.375" x2="1734.8958" y1="1113.5579" y2="1113.5579"/><text fill="#222222" font-family="Verdana" font-size="12.5" lengthAdjust="spacing" textLength="138.5417" x="177.0833" y="1098.4334">setWriter(this.writer)</text><polygon fill="#9803FC" points="1723.4375,1159.9996,1733.8542,1164.1663,1723.4375,1168.3329,1727.6042,1164.1663" style="stroke:#9803FC;stroke-width:1.0416666666666667;"/><line style="stroke:#9803FC;stroke-width:3.125;" x1="159.375" x2="1729.6875" y1="1164.1663" y2="1164.1663"/><text fill="#222222" font-family="Verdana" font-size="12.5" lengthAdjust="spacing" textLength="62.5" x="177.0833" y="1149.0417">execute()</text><polygon fill="#9803FC" points="170.8333,1174.5829,160.4167,1178.7496,170.8333,1182.9163,166.6667,1178.7496" style="stroke:#9803FC;stroke-width:1.0416666666666667;"/><line style="stroke:#9803FC;stroke-width:3.125;stroke-dasharray:2.0,2.0;" x1="164.5833" x2="1740.1042" y1="1178.7496" y2="1178.7496"/><line style="stroke:#9803FC;stroke-width:1.0416666666666667;stroke-dasharray:2.0,2.0;" x1="52.0833" x2="1845.3125" y1="1188.1246" y2="1188.1246"/><text fill="#222222" font-family="Verdana" font-size="12.5" font-weight="bold" lengthAdjust="spacing" textLength="40.625" x="67.7083" y="1211.1084">[else]</text><polygon fill="#9803FC" points="744.2708,1263.2996,754.6875,1267.4662,744.2708,1271.6329,748.4375,1267.4662" style="stroke:#9803FC;stroke-width:1.0416666666666667;"/><line style="stroke:#9803FC;stroke-width:3.125;" x1="159.375" x2="750.5208" y1="1267.4662" y2="1267.4662"/><text fill="#222222" font-family="Verdana" font-size="12.5" lengthAdjust="spacing" textLength="244.7917" x="177.0833" y="1252.3417">Notify that the command is unknown.</text><line style="stroke:#CCCCCC;stroke-width:2.0833333333333335;" x1="1731.7708" x2="1750.5208" y1="1283.0912" y2="1301.8412"/><line style="stroke:#CCCCCC;stroke-width:2.0833333333333335;" x1="1731.7708" x2="1750.5208" y1="1301.8412" y2="1283.0912"/><polygon fill="#9803FC" points="521.875,1347.2412,532.2917,1351.4079,521.875,1355.5745,526.0417,1351.4079" style="stroke:#9803FC;stroke-width:1.0416666666666667;"/><line style="stroke:#9803FC;stroke-width:3.125;" x1="159.375" x2="528.125" y1="1351.4079" y2="1351.4079"/><text fill="#222222" font-family="Verdana" font-size="12.5" lengthAdjust="spacing" textLength="329.1667" x="177.0833" y="1336.2834">Enable all commands and disable fight commands.</text><path d="M45.8333,1367.0329 L127.0833,1367.0329 L127.0833,1394.7245 L116.6667,1405.1412 L41.6667,1405.1412 L41.6667,1371.1995 A4.1667,4.1667 0 0 1 45.8333,1367.0329 " fill="#FFFFFF" style="stroke:#9803FC;stroke-width:1.0416666666666667;"/><rect fill="none" height="668.9331" rx="4.1667" ry="4.1667" style="stroke:#9803FC;stroke-width:1.0416666666666667;" width="2034.8958" x="41.6667" y="1367.0329"/><text fill="#9C27B0" font-family="Verdana" font-size="12.5" font-weight="bold" lengthAdjust="spacing" textLength="17.7083" x="67.7083" y="1391.0583">alt</text><text fill="#222222" font-family="Verdana" font-size="12.5" font-weight="bold" lengthAdjust="spacing" textLength="256.25" x="153.125" y="1392.1">[Player.isAlive and Player.isFighting]</text><polygon fill="#9803FC" points="744.2708,1463.6495,754.6875,1467.8162,744.2708,1471.9828,748.4375,1467.8162" style="stroke:#9803FC;stroke-width:1.0416666666666667;"/><line style="stroke:#9803FC;stroke-width:3.125;" x1="159.375" x2="750.5208" y1="1467.8162" y2="1467.8162"/><text fill="#222222" font-family="Verdana" font-size="12.5" lengthAdjust="spacing" textLength="176.0417" x="177.0833" y="1452.6917">Notify that the player won.</text><polygon fill="#9803FC" points="1188.0208,1514.2578,1198.4375,1518.4245,1188.0208,1522.5911,1192.1875,1518.4245" style="stroke:#9803FC;stroke-width:1.0416666666666667;"/><line style="stroke:#9803FC;stroke-width:3.125;" x1="159.375" x2="1194.2708" y1="1518.4245" y2="1518.4245"/><text fill="#222222" font-family="Verdana" font-size="12.5" lengthAdjust="spacing" textLength="137.5" x="177.0833" y="1503.3">setFightStatus(false)</text><path d="M56.25,1534.0495 L141.6667,1534.0495 L141.6667,1561.7411 L131.25,1572.1578 L52.0833,1572.1578 L52.0833,1538.2161 A4.1667,4.1667 0 0 1 56.25,1534.0495 " fill="#FFFFFF" style="stroke:#9803FC;stroke-width:1.0416666666666667;"/><rect fill="none" height="210.3333" rx="4.1667" ry="4.1667" style="stroke:#9803FC;stroke-width:1.0416666666666667;" width="1595.3125" x="52.0833" y="1534.0495"/><text fill="#9C27B0" font-family="Verdana" font-size="12.5" font-weight="bold" lengthAdjust="spacing" textLength="21.875" x="78.125" y="1558.075">opt</text><text fill="#222222" font-family="Verdana" font-size="12.5" font-weight="bold" lengthAdjust="spacing" textLength="270.8333" x="167.7083" y="1559.1166">[inventory of the monster is not empty]</text><polygon fill="#9803FC" points="1361.9792,1630.6661,1372.3958,1634.8328,1361.9792,1638.9994,1366.1458,1634.8328" style="stroke:#9803FC;stroke-width:1.0416666666666667;"/><line style="stroke:#9803FC;stroke-width:3.125;" x1="159.375" x2="1368.2292" y1="1634.8328" y2="1634.8328"/><text fill="#222222" font-family="Verdana" font-size="12.5" lengthAdjust="spacing" textLength="253.125" x="177.0833" y="1619.7083">Remove items from monster inventory.</text><polygon fill="#9803FC" points="170.8333,1681.2744,160.4167,1685.4411,170.8333,1689.6077,166.6667,1685.4411" style="stroke:#9803FC;stroke-width:1.0416666666666667;"/><line style="stroke:#9803FC;stroke-width:3.125;stroke-dasharray:2.0,2.0;" x1="164.5833" x2="1378.6458" y1="1685.4411" y2="1685.4411"/><text fill="#222222" font-family="Verdana" font-size="12.5" lengthAdjust="spacing" textLength="104.1667" x="187.5" y="1670.3166">Removed items.</text><polygon fill="#9803FC" points="1544.7917,1731.8827,1555.2083,1736.0494,1544.7917,1740.2161,1548.9583,1736.0494" style="stroke:#9803FC;stroke-width:1.0416666666666667;"/><line style="stroke:#9803FC;stroke-width:3.125;" x1="159.375" x2="1551.0417" y1="1736.0494" y2="1736.0494"/><text fill="#222222" font-family="Verdana" font-size="12.5" lengthAdjust="spacing" textLength="228.125" x="177.0833" y="1720.9249">Set removed items in currentNode.</text><line style="stroke:#9803FC;stroke-width:1.0416666666666667;stroke-dasharray:2.0,2.0;" x1="41.6667" x2="2076.5625" y1="1752.7161" y2="1752.7161"/><text fill="#222222" font-family="Verdana" font-size="12.5" font-weight="bold" lengthAdjust="spacing" textLength="40.625" x="57.2917" y="1775.6999">[else]</text><polygon fill="#9803FC" points="739.0625,1827.891,749.4792,1832.0577,739.0625,1836.2244,743.2292,1832.0577" style="stroke:#9803FC;stroke-width:1.0416666666666667;"/><line style="stroke:#9803FC;stroke-width:3.125;" x1="159.375" x2="745.3125" y1="1832.0577" y2="1832.0577"/><text fill="#222222" font-family="Verdana" font-size="12.5" lengthAdjust="spacing" textLength="122.9167" x="177.0833" y="1816.9332">Wait for Enter key.</text><polygon fill="#9803FC" points="170.8333,1842.4744,160.4167,1846.641,170.8333,1850.8077,166.6667,1846.641" style="stroke:#9803FC;stroke-width:1.0416666666666667;"/><line style="stroke:#9803FC;stroke-width:3.125;stroke-dasharray:2.0,2.0;" x1="164.5833" x2="755.7292" y1="1846.641" y2="1846.641"/><polygon fill="#9803FC" points="968.75,1893.0827,979.1667,1897.2493,968.75,1901.416,972.9167,1897.2493" style="stroke:#9803FC;stroke-width:1.0416666666666667;"/><line style="stroke:#9803FC;stroke-width:3.125;" x1="159.375" x2="975" y1="1897.2493" y2="1897.2493"/><text fill="#222222" font-family="Verdana" font-size="12.5" lengthAdjust="spacing" textLength="131.25" x="177.0833" y="1882.1248">getStorageService()</text><polygon fill="#9803FC" points="170.8333,1907.666,160.4167,1911.8327,170.8333,1915.9993,166.6667,1911.8327" style="stroke:#9803FC;stroke-width:1.0416666666666667;"/><line style="stroke:#9803FC;stroke-width:3.125;stroke-dasharray:2.0,2.0;" x1="164.5833" x2="985.4167" y1="1911.8327" y2="1911.8327"/><polygon fill="#9803FC" points="1938.0208,1958.2743,1948.4375,1962.441,1938.0208,1966.6077,1942.1875,1962.441" style="stroke:#9803FC;stroke-width:1.0416666666666667;"/><line style="stroke:#9803FC;stroke-width:3.125;" x1="159.375" x2="1944.2708" y1="1962.441" y2="1962.441"/><text fill="#222222" font-family="Verdana" font-size="12.5" lengthAdjust="spacing" textLength="234.375" x="177.0833" y="1947.3165">newGame() with same playerName.</text><polygon fill="#9803FC" points="170.8333,1972.8577,160.4167,1977.0243,170.8333,1981.191,166.6667,1977.0243" style="stroke:#9803FC;stroke-width:1.0416666666666667;"/><line style="stroke:#9803FC;stroke-width:3.125;stroke-dasharray:2.0,2.0;" x1="164.5833" x2="1954.6875" y1="1977.0243" y2="1977.0243"/><polygon fill="#9803FC" points="973.9583,2023.466,984.375,2027.6326,973.9583,2031.7993,978.125,2027.6326" style="stroke:#9803FC;stroke-width:1.0416666666666667;"/><line style="stroke:#9803FC;stroke-width:3.125;" x1="159.375" x2="980.2083" y1="2027.6326" y2="2027.6326"/><text fill="#222222" font-family="Verdana" font-size="12.5" lengthAdjust="spacing" textLength="134.375" x="177.0833" y="2012.5081">setGame(newGame)</text><line style="stroke:#9803FC;stroke-width:1.0416666666666667;stroke-dasharray:2.0,2.0;" x1="31.25" x2="2086.9792" y1="2044.2993" y2="2044.2993"/><text fill="#222222" font-family="Verdana" font-size="12.5" font-weight="bold" lengthAdjust="spacing" textLength="40.625" x="46.875" y="2067.2831">[else]</text><polygon fill="#9803FC" points="744.2708,2119.4743,754.6875,2123.641,744.2708,2127.8076,748.4375,2123.641" style="stroke:#9803FC;stroke-width:1.0416666666666667;"/><line style="stroke:#9803FC;stroke-width:3.125;" x1="159.375" x2="750.5208" y1="2123.641" y2="2123.641"/><text fill="#222222" font-family="Verdana" font-size="12.5" lengthAdjust="spacing" textLength="131.25" x="177.0833" y="2108.5164">No monster to fight.</text><line style="stroke:#9803FC;stroke-width:1.0416666666666667;stroke-dasharray:2.0,2.0;" x1="20.8333" x2="2097.3958" y1="2140.3076" y2="2140.3076"/><polygon fill="#9803FC" points="744.2708,2179.4576,754.6875,2183.6243,744.2708,2187.7909,748.4375,2183.6243" style="stroke:#9803FC;stroke-width:1.0416666666666667;"/><line style="stroke:#9803FC;stroke-width:3.125;" x1="159.375" x2="750.5208" y1="2183.6243" y2="2183.6243"/><text fill="#222222" font-family="Verdana" font-size="12.5" lengthAdjust="spacing" textLength="153.125" x="177.0833" y="2168.4998">Can't fight in this room.</text><!--SRC=[pLOzRzim4DtrAoxfK1kEtG9TMWCfu1X9aA5f4GzPih3IsIOiaIf5nJ6A_lSUAT4czPMWKpKODE_kyVXuzyWplSKC8MCQ5MTJMUgK2uoYOiT5pXJBOA6Kt2zbAXMy-_BvuwTrx1clMBpRA5cAfFQuiTzRmnUnbkfAgWJLeCkD57eOevb7o-q7Kvh7F6T23w5vRiDv-Owlal0xWXN-Ab74U4kEUHVqdoZAJvYmp98RljdgS59c6HC9hLsW2YpdTn- -mqehPDbvO5ZaUSfZfhaKIzetleI8Fr9sQ41zawBGZRbRbc5N9i7SYWw2RN25wfd7L4Dk2vF9SGZJhnqPJIPpsA0sYup6KTiEKmex4jAsJwTHi881gZ6h_Ot65-RFibGAXRwN2TOpzLvfLHCJhcDc339BDSIdIE0KmkWavHeUfCo0Q82ime6pIn1bcaOHqEUdL2zaikB58kNFPgV6gJQ4Iti6au7vQx9mg_22_XA4DJHN2cfa3jU2_KmHrjOSLxR2vlma4bvO8qjJa2G4wkWmwuGsZCoXG6rdLfhfiXXfLU8OY0m2WBmgfywywl4S7f0WQbT8PBB1YoUXxAJROVViDfz5dTZLARV9DLzbQ_DxiZcApPTAcRlK7Ct12GUJ9qVBBnURw0JLJD9lqJdSeYuStR1ML4Vsv-Gp2u1OhFapYNJOwBw7R-ZUhVaIx4RgpJee9yDmRaRrx2ZEad4G6XCSOJjv251z90_QW5PXet5NGBMPGFawlEWG1nRheoDmy-l0jPmxeKkG0bsLe-sfvDWjGLGFWRPlxaHUwehoaTxoOiPF4-CtepmgRZJB0kpjU1oz9TWGZIyOboscMsntSTLFDgO5sf_1BCBwlvUQhmz49zEMKqSqzL8fTaBkHTW0IDNKgEH2AtbebHfwum5TTC9ej2-GHIUAeM9wmcFAeXAEMQqsDkuuTUEauD-8g3LbBni4jFMk9SLhHcSGdgpCDLrOptHtINLmzUjfcP0QCClrOV3elDlh0JD9EwQgoufAieveRfbP2wlhadDGIONL6zIejUuxQKMtXFBXA1l_qcxNqd3jzX_N8-CQrlHkknPcHpiy_2T2tVki2fzbZSv_xR4rxDjKJ3-VS5cJYy1zzSI3FTTRACoBgwhsUng6D8RH_Jc5VirBO90UspuseJgnSKj3siKnrCV7Jj2oKezgImRiYD4VlsJYlQvLXuhNg3ieUb_E8WFm5m00]--></g></svg>