<?xml version="1.0" encoding="us-ascii" standalone="no"?><svg xmlns="http://www.w3.org/2000/svg" xmlns:xlink="http://www.w3.org/1999/xlink" contentStyleType="text/css" height="1353.125px" preserveAspectRatio="none" style="width:1882px;height:1353px;background:#FFFFFF;" version="1.1" viewBox="0 0 1882 1353" width="1882.2917px" zoomAndPan="magnify"><defs><filter height="300%" id="f11ti3ppgumxry" width="300%" x="-1" y="-1"><feGaussianBlur result="blurOut" stdDeviation="2.0833333333333335"/><feColorMatrix in="blurOut" result="blurOut2" type="matrix" values="0 0 0 0 0 0 0 0 0 0 0 0 0 0 0 0 0 0 .4 0"/><feOffset dx="4.166666666666667" dy="4.166666666666667" in="blurOut2" result="blurOut3"/><feBlend in="SourceGraphic" in2="blurOut3" mode="normal"/></filter></defs><g><rect fill="none" filter="url(#f11ti3ppgumxry)" height="1158.3496" style="stroke:#CCCCCC;stroke-width:1.0416666666666667;" width="10.4167" x="150" y="117.8833"/><rect fill="none" filter="url(#f11ti3ppgumxry)" height="14.5833" style="stroke:#CCCCCC;stroke-width:1.0416666666666667;" width="10.4167" x="732.8125" y="233.6833"/><rect fill="none" filter="url(#f11ti3ppgumxry)" height="14.5833" style="stroke:#CCCCCC;stroke-width:1.0416666666666667;" width="10.4167" x="904.1667" y="691.8498"/><rect fill="none" filter="url(#f11ti3ppgumxry)" height="14.5833" style="stroke:#CCCCCC;stroke-width:1.0416666666666667;" width="10.4167" x="1095.3125" y="298.8749"/><rect fill="none" filter="url(#f11ti3ppgumxry)" height="14.5833" style="stroke:#CCCCCC;stroke-width:1.0416666666666667;" width="10.4167" x="1313.5417" y="560.8582"/><rect fill="none" filter="url(#f11ti3ppgumxry)" height="14.5833" style="stroke:#CCCCCC;stroke-width:1.0416666666666667;" width="10.4167" x="1554.6875" y="168.4916"/><rect fill="none" filter="url(#f11ti3ppgumxry)" height="14.5833" style="stroke:#CCCCCC;stroke-width:1.0416666666666667;" width="10.4167" x="1768.2292" y="429.8665"/><rect fill="none" filter="url(#f11ti3ppgumxry)" height="816.158" rx="4.1667" ry="4.1667" style="stroke:#9803FC;stroke-width:1.0416666666666667;" width="1843.75" x="20.8333" y="329.0833"/><rect fill="none" filter="url(#f11ti3ppgumxry)" height="677.8748" rx="4.1667" ry="4.1667" style="stroke:#9803FC;stroke-width:1.0416666666666667;" width="1427.0833" x="31.25" y="460.0749"/><rect fill="none" filter="url(#f11ti3ppgumxry)" height="539.5915" rx="4.1667" ry="4.1667" style="stroke:#9803FC;stroke-width:1.0416666666666667;" width="1406.25" x="41.6667" y="591.0665"/><rect fill="none" filter="url(#f11ti3ppgumxry)" height="248.4416" rx="4.1667" ry="4.1667" style="stroke:#9803FC;stroke-width:1.0416666666666667;" width="1385.4167" x="52.0833" y="786.2081"/><rect fill="none" filter="url(#f11ti3ppgumxry)" height="109.1166" rx="4.1667" ry="4.1667" style="stroke:#9803FC;stroke-width:1.0416666666666667;" width="606.25" x="52.0833" y="1159.8246"/><line style="stroke:#CCCCCC;stroke-width:1.0416666666666667;stroke-dasharray:5.0,5.0;" x1="155.2083" x2="155.2083" y1="65.1917" y2="1286.6496"/><line style="stroke:#CCCCCC;stroke-width:1.0416666666666667;stroke-dasharray:5.0,5.0;" x1="551.0417" x2="551.0417" y1="65.1917" y2="1286.6496"/><line style="stroke:#CCCCCC;stroke-width:1.0416666666666667;stroke-dasharray:5.0,5.0;" x1="737.5" x2="737.5" y1="65.1917" y2="1286.6496"/><line style="stroke:#CCCCCC;stroke-width:1.0416666666666667;stroke-dasharray:5.0,5.0;" x1="909.375" x2="909.375" y1="65.1917" y2="1286.6496"/><line style="stroke:#CCCCCC;stroke-width:1.0416666666666667;stroke-dasharray:5.0,5.0;" x1="1100" x2="1100" y1="65.1917" y2="1286.6496"/><line style="stroke:#CCCCCC;stroke-width:1.0416666666666667;stroke-dasharray:5.0,5.0;" x1="1318.75" x2="1318.75" y1="65.1917" y2="1286.6496"/><line style="stroke:#CCCCCC;stroke-width:1.0416666666666667;stroke-dasharray:5.0,5.0;" x1="1559.375" x2="1559.375" y1="65.1917" y2="1286.6496"/><line style="stroke:#CCCCCC;stroke-width:1.0416666666666667;stroke-dasharray:5.0,5.0;" x1="1772.9167" x2="1772.9167" y1="65.1917" y2="1286.6496"/><rect fill="#FFFFFF" filter="url(#f11ti3ppgumxry)" height="50.6083" rx="4.1667" ry="4.1667" style="stroke:#9803FC;stroke-width:1.0416666666666667;" width="98.9583" x="104.1667" y="10.4167"/><text fill="#9803FC" font-family="Verdana" font-size="12.5" lengthAdjust="spacing" textLength="63.5417" x="121.875" y="40.6921">CmdMove</text><rect fill="#FFFFFF" filter="url(#f11ti3ppgumxry)" height="50.6083" rx="4.1667" ry="4.1667" style="stroke:#9803FC;stroke-width:1.0416666666666667;" width="98.9583" x="104.1667" y="1285.6079"/><text fill="#9803FC" font-family="Verdana" font-size="12.5" lengthAdjust="spacing" textLength="63.5417" x="121.875" y="1315.8834">CmdMove</text><rect fill="#FFFFFF" filter="url(#f11ti3ppgumxry)" height="50.6083" rx="4.1667" ry="4.1667" style="stroke:#9803FC;stroke-width:1.0416666666666667;" width="107.2917" x="495.8333" y="10.4167"/><text fill="#9803FC" font-family="Verdana" font-size="12.5" lengthAdjust="spacing" textLength="71.875" x="513.5417" y="40.6921">I/O Stream</text><rect fill="#FFFFFF" filter="url(#f11ti3ppgumxry)" height="50.6083" rx="4.1667" ry="4.1667" style="stroke:#9803FC;stroke-width:1.0416666666666667;" width="107.2917" x="495.8333" y="1285.6079"/><text fill="#9803FC" font-family="Verdana" font-size="12.5" lengthAdjust="spacing" textLength="71.875" x="513.5417" y="1315.8834">I/O Stream</text><rect fill="#FFFFFF" filter="url(#f11ti3ppgumxry)" height="50.6083" rx="4.1667" ry="4.1667" style="stroke:#9803FC;stroke-width:1.0416666666666667;" width="72.9167" x="700" y="10.4167"/><text fill="#9803FC" font-family="Verdana" font-size="12.5" lengthAdjust="spacing" textLength="37.5" x="717.7083" y="40.6921">Game</text><rect fill="#FFFFFF" filter="url(#f11ti3ppgumxry)" height="50.6083" rx="4.1667" ry="4.1667" style="stroke:#9803FC;stroke-width:1.0416666666666667;" width="72.9167" x="700" y="1285.6079"/><text fill="#9803FC" font-family="Verdana" font-size="12.5" lengthAdjust="spacing" textLength="37.5" x="717.7083" y="1315.8834">Game</text><rect fill="#FFFFFF" filter="url(#f11ti3ppgumxry)" height="50.6083" rx="4.1667" ry="4.1667" style="stroke:#9803FC;stroke-width:1.0416666666666667;" width="76.0417" x="869.7917" y="10.4167"/><text fill="#9803FC" font-family="Verdana" font-size="12.5" lengthAdjust="spacing" textLength="40.625" x="887.5" y="40.6921">Player</text><rect fill="#FFFFFF" filter="url(#f11ti3ppgumxry)" height="50.6083" rx="4.1667" ry="4.1667" style="stroke:#9803FC;stroke-width:1.0416666666666667;" width="76.0417" x="869.7917" y="1285.6079"/><text fill="#9803FC" font-family="Verdana" font-size="12.5" lengthAdjust="spacing" textLength="40.625" x="887.5" y="1315.8834">Player</text><rect fill="#FFFFFF" filter="url(#f11ti3ppgumxry)" height="50.6083" rx="4.1667" ry="4.1667" style="stroke:#9803FC;stroke-width:1.0416666666666667;" width="112.5" x="1042.7083" y="10.4167"/><text fill="#9803FC" font-family="Verdana" font-size="12.5" lengthAdjust="spacing" textLength="77.0833" x="1060.4167" y="40.6921">GameGraph</text><rect fill="#FFFFFF" filter="url(#f11ti3ppgumxry)" height="50.6083" rx="4.1667" ry="4.1667" style="stroke:#9803FC;stroke-width:1.0416666666666667;" width="112.5" x="1042.7083" y="1285.6079"/><text fill="#9803FC" font-family="Verdana" font-size="12.5" lengthAdjust="spacing" textLength="77.0833" x="1060.4167" y="1315.8834">GameGraph</text><rect fill="#FFFFFF" filter="url(#f11ti3ppgumxry)" height="50.6083" rx="4.1667" ry="4.1667" style="stroke:#9803FC;stroke-width:1.0416666666666667;" width="130.2083" x="1252.0833" y="10.4167"/><text fill="#9803FC" font-family="Verdana" font-size="12.5" lengthAdjust="spacing" textLength="94.7917" x="1269.7917" y="40.6921">StoryNodeLink</text><rect fill="#FFFFFF" filter="url(#f11ti3ppgumxry)" height="50.6083" rx="4.1667" ry="4.1667" style="stroke:#9803FC;stroke-width:1.0416666666666667;" width="130.2083" x="1252.0833" y="1285.6079"/><text fill="#9803FC" font-family="Verdana" font-size="12.5" lengthAdjust="spacing" textLength="94.7917" x="1269.7917" y="1315.8834">StoryNodeLink</text><rect fill="#FFFFFF" filter="url(#f11ti3ppgumxry)" height="50.6083" rx="4.1667" ry="4.1667" style="stroke:#9803FC;stroke-width:1.0416666666666667;" width="158.3333" x="1479.1667" y="10.4167"/><text fill="#9803FC" font-family="Verdana" font-size="12.5" lengthAdjust="spacing" textLength="122.9167" x="1496.875" y="40.6921">ApplicationContext</text><rect fill="#FFFFFF" filter="url(#f11ti3ppgumxry)" height="50.6083" rx="4.1667" ry="4.1667" style="stroke:#9803FC;stroke-width:1.0416666666666667;" width="158.3333" x="1479.1667" y="1285.6079"/><text fill="#9803FC" font-family="Verdana" font-size="12.5" lengthAdjust="spacing" textLength="122.9167" x="1496.875" y="1315.8834">ApplicationContext</text><rect fill="#FFFFFF" filter="url(#f11ti3ppgumxry)" height="50.6083" rx="4.1667" ry="4.1667" style="stroke:#9803FC;stroke-width:1.0416666666666667;" width="75" x="1734.375" y="10.4167"/><text fill="#9803FC" font-family="Verdana" font-size="12.5" lengthAdjust="spacing" textLength="39.5833" x="1752.0833" y="40.6921">Action</text><rect fill="#FFFFFF" filter="url(#f11ti3ppgumxry)" height="50.6083" rx="4.1667" ry="4.1667" style="stroke:#9803FC;stroke-width:1.0416666666666667;" width="75" x="1734.375" y="1285.6079"/><text fill="#9803FC" font-family="Verdana" font-size="12.5" lengthAdjust="spacing" textLength="39.5833" x="1752.0833" y="1315.8834">Action</text><rect fill="none" filter="url(#f11ti3ppgumxry)" height="1158.3496" style="stroke:#CCCCCC;stroke-width:1.0416666666666667;" width="10.4167" x="150" y="117.8833"/><rect fill="none" filter="url(#f11ti3ppgumxry)" height="14.5833" style="stroke:#CCCCCC;stroke-width:1.0416666666666667;" width="10.4167" x="732.8125" y="233.6833"/><rect fill="none" filter="url(#f11ti3ppgumxry)" height="14.5833" style="stroke:#CCCCCC;stroke-width:1.0416666666666667;" width="10.4167" x="904.1667" y="691.8498"/><rect fill="none" filter="url(#f11ti3ppgumxry)" height="14.5833" style="stroke:#CCCCCC;stroke-width:1.0416666666666667;" width="10.4167" x="1095.3125" y="298.8749"/><rect fill="none" filter="url(#f11ti3ppgumxry)" height="14.5833" style="stroke:#CCCCCC;stroke-width:1.0416666666666667;" width="10.4167" x="1313.5417" y="560.8582"/><rect fill="none" filter="url(#f11ti3ppgumxry)" height="14.5833" style="stroke:#CCCCCC;stroke-width:1.0416666666666667;" width="10.4167" x="1554.6875" y="168.4916"/><rect fill="none" filter="url(#f11ti3ppgumxry)" height="14.5833" style="stroke:#CCCCCC;stroke-width:1.0416666666666667;" width="10.4167" x="1768.2292" y="429.8665"/><polygon fill="#9803FC" points="137.5,113.7166,147.9167,117.8833,137.5,122.05,141.6667,117.8833" style="stroke:#9803FC;stroke-width:1.0416666666666667;"/><line style="stroke:#9803FC;stroke-width:3.125;" x1="10.4167" x2="143.75" y1="117.8833" y2="117.8833"/><text fill="#222222" font-family="Verdana" font-size="12.5" lengthAdjust="spacing" textLength="62.5" x="28.125" y="102.7588">execute()</text><polygon fill="#9803FC" points="1542.1875,164.325,1552.6042,168.4916,1542.1875,172.6583,1546.3542,168.4916" style="stroke:#9803FC;stroke-width:1.0416666666666667;"/><line style="stroke:#9803FC;stroke-width:3.125;" x1="160.4167" x2="1548.4375" y1="168.4916" y2="168.4916"/><text fill="#222222" font-family="Verdana" font-size="12.5" lengthAdjust="spacing" textLength="69.7917" x="178.125" y="153.3671">getGame()</text><polygon fill="#9803FC" points="171.875,178.9083,161.4583,183.075,171.875,187.2416,167.7083,183.075" style="stroke:#9803FC;stroke-width:1.0416666666666667;"/><line style="stroke:#9803FC;stroke-width:3.125;stroke-dasharray:2.0,2.0;" x1="165.625" x2="1558.8542" y1="183.075" y2="183.075"/><polygon fill="#9803FC" points="720.3125,229.5166,730.7292,233.6833,720.3125,237.8499,724.4792,233.6833" style="stroke:#9803FC;stroke-width:1.0416666666666667;"/><line style="stroke:#9803FC;stroke-width:3.125;" x1="160.4167" x2="726.5625" y1="233.6833" y2="233.6833"/><text fill="#222222" font-family="Verdana" font-size="12.5" lengthAdjust="spacing" textLength="234.375" x="178.125" y="218.5588">getCurrentNode(), getGameGraph()</text><polygon fill="#9803FC" points="171.875,244.0999,161.4583,248.2666,171.875,252.4333,167.7083,248.2666" style="stroke:#9803FC;stroke-width:1.0416666666666667;"/><line style="stroke:#9803FC;stroke-width:3.125;stroke-dasharray:2.0,2.0;" x1="165.625" x2="736.9792" y1="248.2666" y2="248.2666"/><polygon fill="#9803FC" points="1082.8125,294.7083,1093.2292,298.8749,1082.8125,303.0416,1086.9792,298.8749" style="stroke:#9803FC;stroke-width:1.0416666666666667;"/><line style="stroke:#9803FC;stroke-width:3.125;" x1="160.4167" x2="1089.0625" y1="298.8749" y2="298.8749"/><text fill="#222222" font-family="Verdana" font-size="12.5" lengthAdjust="spacing" textLength="214.5833" x="178.125" y="283.7504">getOutgoingEdges(currentNode)</text><polygon fill="#9803FC" points="171.875,309.2916,161.4583,313.4583,171.875,317.6249,167.7083,313.4583" style="stroke:#9803FC;stroke-width:1.0416666666666667;"/><line style="stroke:#9803FC;stroke-width:3.125;stroke-dasharray:2.0,2.0;" x1="165.625" x2="1099.4792" y1="313.4583" y2="313.4583"/><path d="M25,329.0833 L117.7083,329.0833 L117.7083,356.7749 L107.2917,367.1916 L20.8333,367.1916 L20.8333,333.2499 A4.1667,4.1667 0 0 1 25,329.0833 " fill="#FFFFFF" style="stroke:#9803FC;stroke-width:1.0416666666666667;"/><rect fill="none" height="816.158" rx="4.1667" ry="4.1667" style="stroke:#9803FC;stroke-width:1.0416666666666667;" width="1843.75" x="20.8333" y="329.0833"/><text fill="#9C27B0" font-family="Verdana" font-size="12.5" font-weight="bold" lengthAdjust="spacing" textLength="29.1667" x="46.875" y="353.1087">loop</text><text fill="#222222" font-family="Verdana" font-size="12.5" font-weight="bold" lengthAdjust="spacing" textLength="161.4583" x="143.75" y="354.1504">[foreach outgoingEdge]</text><polygon fill="#9803FC" points="1755.7292,425.6999,1766.1458,429.8665,1755.7292,434.0332,1759.8958,429.8665" style="stroke:#9803FC;stroke-width:1.0416666666666667;"/><line style="stroke:#9803FC;stroke-width:3.125;" x1="160.4167" x2="1761.9792" y1="429.8665" y2="429.8665"/><text fill="#222222" font-family="Verdana" font-size="12.5" lengthAdjust="spacing" textLength="71.875" x="178.125" y="414.742">getAction()</text><polygon fill="#9803FC" points="171.875,440.2832,161.4583,444.4499,171.875,448.6165,167.7083,444.4499" style="stroke:#9803FC;stroke-width:1.0416666666666667;"/><line style="stroke:#9803FC;stroke-width:3.125;stroke-dasharray:2.0,2.0;" x1="165.625" x2="1772.3958" y1="444.4499" y2="444.4499"/><path d="M35.4167,460.0749 L120.8333,460.0749 L120.8333,487.7665 L110.4167,498.1832 L31.25,498.1832 L31.25,464.2415 A4.1667,4.1667 0 0 1 35.4167,460.0749 " fill="#FFFFFF" style="stroke:#9803FC;stroke-width:1.0416666666666667;"/><rect fill="none" height="677.8748" rx="4.1667" ry="4.1667" style="stroke:#9803FC;stroke-width:1.0416666666666667;" width="1427.0833" x="31.25" y="460.0749"/><text fill="#9C27B0" font-family="Verdana" font-size="12.5" font-weight="bold" lengthAdjust="spacing" textLength="21.875" x="57.2917" y="484.1003">opt</text><text fill="#222222" font-family="Verdana" font-size="12.5" font-weight="bold" lengthAdjust="spacing" textLength="402.0833" x="146.875" y="485.142">[action matches command argument (eg. north, south, ...)]</text><polygon fill="#9803FC" points="1301.0417,556.6915,1311.4583,560.8582,1301.0417,565.0248,1305.2083,560.8582" style="stroke:#9803FC;stroke-width:1.0416666666666667;"/><line style="stroke:#9803FC;stroke-width:3.125;" x1="160.4167" x2="1307.2917" y1="560.8582" y2="560.8582"/><text fill="#222222" font-family="Verdana" font-size="12.5" lengthAdjust="spacing" textLength="78.125" x="178.125" y="545.7336">getLocked()</text><polygon fill="#9803FC" points="171.875,571.2748,161.4583,575.4415,171.875,579.6082,167.7083,575.4415" style="stroke:#9803FC;stroke-width:1.0416666666666667;"/><line style="stroke:#9803FC;stroke-width:3.125;stroke-dasharray:2.0,2.0;" x1="165.625" x2="1317.7083" y1="575.4415" y2="575.4415"/><path d="M45.8333,591.0665 L127.0833,591.0665 L127.0833,618.7581 L116.6667,629.1748 L41.6667,629.1748 L41.6667,595.2332 A4.1667,4.1667 0 0 1 45.8333,591.0665 " fill="#FFFFFF" style="stroke:#9803FC;stroke-width:1.0416666666666667;"/><rect fill="none" height="539.5915" rx="4.1667" ry="4.1667" style="stroke:#9803FC;stroke-width:1.0416666666666667;" width="1406.25" x="41.6667" y="591.0665"/><text fill="#9C27B0" font-family="Verdana" font-size="12.5" font-weight="bold" lengthAdjust="spacing" textLength="17.7083" x="67.7083" y="615.092">alt</text><text fill="#222222" font-family="Verdana" font-size="12.5" font-weight="bold" lengthAdjust="spacing" textLength="94.7917" x="153.125" y="616.1336">[edge locked]</text><polygon fill="#9803FC" points="891.6667,687.6831,902.0833,691.8498,891.6667,696.0164,895.8333,691.8498" style="stroke:#9803FC;stroke-width:1.0416666666666667;"/><line style="stroke:#9803FC;stroke-width:3.125;" x1="160.4167" x2="897.9167" y1="691.8498" y2="691.8498"/><text fill="#222222" font-family="Verdana" font-size="12.5" lengthAdjust="spacing" textLength="69.7917" x="178.125" y="676.7253">getItems()</text><polygon fill="#9803FC" points="171.875,702.2664,161.4583,706.4331,171.875,710.5998,167.7083,706.4331" style="stroke:#9803FC;stroke-width:1.0416666666666667;"/><line style="stroke:#9803FC;stroke-width:3.125;stroke-dasharray:2.0,2.0;" x1="165.625" x2="908.3333" y1="706.4331" y2="706.4331"/><line style="stroke:#9803FC;stroke-width:3.125;" x1="160.4167" x2="204.1667" y1="757.0414" y2="757.0414"/><line style="stroke:#9803FC;stroke-width:3.125;" x1="204.1667" x2="204.1667" y1="757.0414" y2="770.5831"/><line style="stroke:#9803FC;stroke-width:3.125;" x1="161.4583" x2="204.1667" y1="770.5831" y2="770.5831"/><polygon fill="#9803FC" points="171.875,766.4164,161.4583,770.5831,171.875,774.7498,167.7083,770.5831" style="stroke:#9803FC;stroke-width:1.0416666666666667;"/><text fill="#222222" font-family="Verdana" font-size="12.5" lengthAdjust="spacing" textLength="325" x="178.125" y="741.9169">Search a key in the items that matches edge key.</text><path d="M56.25,786.2081 L137.5,786.2081 L137.5,813.8997 L127.0833,824.3164 L52.0833,824.3164 L52.0833,790.3748 A4.1667,4.1667 0 0 1 56.25,786.2081 " fill="#FFFFFF" style="stroke:#9803FC;stroke-width:1.0416666666666667;"/><rect fill="none" height="248.4416" rx="4.1667" ry="4.1667" style="stroke:#9803FC;stroke-width:1.0416666666666667;" width="1385.4167" x="52.0833" y="786.2081"/><text fill="#9C27B0" font-family="Verdana" font-size="12.5" font-weight="bold" lengthAdjust="spacing" textLength="17.7083" x="78.125" y="810.2336">alt</text><text fill="#222222" font-family="Verdana" font-size="12.5" font-weight="bold" lengthAdjust="spacing" textLength="80.2083" x="163.5417" y="811.2752">[key found]</text><polygon fill="#9803FC" points="1306.25,882.8247,1316.6667,886.9914,1306.25,891.158,1310.4167,886.9914" style="stroke:#9803FC;stroke-width:1.0416666666666667;"/><line style="stroke:#9803FC;stroke-width:3.125;" x1="160.4167" x2="1312.5" y1="886.9914" y2="886.9914"/><text fill="#222222" font-family="Verdana" font-size="12.5" lengthAdjust="spacing" textLength="85.4167" x="178.125" y="871.8669">unlockEdge()</text><polygon fill="#9803FC" points="725.5208,933.433,735.9375,937.5997,725.5208,941.7664,729.6875,937.5997" style="stroke:#9803FC;stroke-width:1.0416666666666667;"/><line style="stroke:#9803FC;stroke-width:3.125;" x1="160.4167" x2="731.7708" y1="937.5997" y2="937.5997"/><text fill="#222222" font-family="Verdana" font-size="12.5" lengthAdjust="spacing" textLength="190.625" x="178.125" y="922.4752">setCurrentNode(targetNode)</text><line style="stroke:#9803FC;stroke-width:1.0416666666666667;stroke-dasharray:2.0,2.0;" x1="52.0833" x2="1437.5" y1="946.9747" y2="946.9747"/><text fill="#222222" font-family="Verdana" font-size="12.5" font-weight="bold" lengthAdjust="spacing" textLength="40.625" x="67.7083" y="969.9585">[else]</text><polygon fill="#9803FC" points="538.5417,1022.1497,548.9583,1026.3163,538.5417,1030.483,542.7083,1026.3163" style="stroke:#9803FC;stroke-width:1.0416666666666667;"/><line style="stroke:#9803FC;stroke-width:3.125;" x1="160.4167" x2="544.7917" y1="1026.3163" y2="1026.3163"/><text fill="#222222" font-family="Verdana" font-size="12.5" lengthAdjust="spacing" textLength="344.7917" x="178.125" y="1011.1918">Notify that the player does not have the correct key.</text><line style="stroke:#9803FC;stroke-width:1.0416666666666667;stroke-dasharray:2.0,2.0;" x1="41.6667" x2="1447.9167" y1="1042.983" y2="1042.983"/><text fill="#222222" font-family="Verdana" font-size="12.5" font-weight="bold" lengthAdjust="spacing" textLength="40.625" x="57.2917" y="1065.9668">[else]</text><polygon fill="#9803FC" points="725.5208,1118.158,735.9375,1122.3246,725.5208,1126.4913,729.6875,1122.3246" style="stroke:#9803FC;stroke-width:1.0416666666666667;"/><line style="stroke:#9803FC;stroke-width:3.125;" x1="160.4167" x2="731.7708" y1="1122.3246" y2="1122.3246"/><text fill="#222222" font-family="Verdana" font-size="12.5" lengthAdjust="spacing" textLength="190.625" x="178.125" y="1107.2001">setCurrentNode(targetNode)</text><path d="M56.25,1159.8246 L141.6667,1159.8246 L141.6667,1187.5163 L131.25,1197.9329 L52.0833,1197.9329 L52.0833,1163.9913 A4.1667,4.1667 0 0 1 56.25,1159.8246 " fill="#FFFFFF" style="stroke:#9803FC;stroke-width:1.0416666666666667;"/><rect fill="none" height="109.1166" rx="4.1667" ry="4.1667" style="stroke:#9803FC;stroke-width:1.0416666666666667;" width="606.25" x="52.0833" y="1159.8246"/><text fill="#9C27B0" font-family="Verdana" font-size="12.5" font-weight="bold" lengthAdjust="spacing" textLength="21.875" x="78.125" y="1183.8501">opt</text><text fill="#222222" font-family="Verdana" font-size="12.5" font-weight="bold" lengthAdjust="spacing" textLength="277.0833" x="167.7083" y="1184.8918">[no action matched command argument]</text><polygon fill="#9803FC" points="538.5417,1256.4412,548.9583,1260.6079,538.5417,1264.7746,542.7083,1260.6079" style="stroke:#9803FC;stroke-width:1.0416666666666667;"/><line style="stroke:#9803FC;stroke-width:3.125;" x1="160.4167" x2="544.7917" y1="1260.6079" y2="1260.6079"/><text fill="#222222" font-family="Verdana" font-size="12.5" lengthAdjust="spacing" textLength="241.6667" x="178.125" y="1245.4834">Notify that the argument is not valid.</text><!--SRC=[bLJRZjem47ttLqotBo0jQQM-j3nKOb4NhRJTNOali9mXiKWygUFGHLN_lRw4O1EQTf48PdncpZcJiT-P4ck4cXlKaY-eCvLKo5YxbwhXcjUmqff-hgaY3U-_VFxuQIUYpJikzeMcJkKzujv__ZTz9GpfEz8vwad8FIapNUDInmZsmhMHGZPScQbg4MnQLmpyPnD-CTZYZmwLm8q5DjTA_sQiETU4TPr_fmCciPk73y-mDHfvVPDiR7YT8bygVaGzmcmqRyeakhNDEpvHZezIxPETLTDKKd0ZIQrjm_3LCBRuUjAr17n5qHcSpHaNHXxi00sQ-r-my76L9HHed9WuymhPE0IBCp_BSIevbk2uFEcwqngLSMvdyzkJ3D-JM8jlfdlyZSy3BXby6K_pt9c2f2g-vGMsCt4clU08BsDOJR45A6CLKGCxiWCWIg28Xm74JHUk5rvCM5fx0ET- -PYDX4L2310tDW1ja1hZyotQNXMYn1O4rJLNEN1TTBLr23CiCb2aJNaBhHLdVx8icxlqH5qoSbxa8uazvbva93CTJRULH2va9yBJr52sCe2sKr1vCXzBP8KZu_Ky6ApRNauag3zK8Hh-Z4GaClg4CTTmYBR8jNsL7FPu1Ad0tiOW7RjTSJFqsWktaEnKoxbnAJjtw_IngIPtojbsapBOIk3XZBJf6J7srM8_kI43gnRzurgD-7PQmXCPkJi66yvL4_gLaxMZo439RPRR46GPXGdsUfhUqoNTMmM7EkxflimDiQ9qZlFH7BCtc1fcNmPJ1rx9F0jiqHoS1eJz0G00]--></g></svg>