<?xml version="1.0" encoding="us-ascii" standalone="no"?><svg xmlns="http://www.w3.org/2000/svg" xmlns:xlink="http://www.w3.org/1999/xlink" contentStyleType="text/css" height="435.4167px" preserveAspectRatio="none" style="width:1317px;height:435px;background:#FFFFFF;" version="1.1" viewBox="0 0 1317 435" width="1317.7083px" zoomAndPan="magnify"><defs><filter height="300%" id="f1byxd34zceb2a" width="300%" x="-1" y="-1"><feGaussianBlur result="blurOut" stdDeviation="2.0833333333333335"/><feColorMatrix in="blurOut" result="blurOut2" type="matrix" values="0 0 0 0 0 0 0 0 0 0 0 0 0 0 0 0 0 0 .4 0"/><feOffset dx="4.166666666666667" dy="4.166666666666667" in="blurOut2" result="blurOut3"/><feBlend in="SourceGraphic" in2="blurOut3" mode="normal"/></filter></defs><g><rect fill="none" filter="url(#f1byxd34zceb2a)" height="283.2499" style="stroke:#CCCCCC;stroke-width:1.0416666666666667;" width="10.4167" x="102.0833" y="75.6083"/><rect fill="none" filter="url(#f1byxd34zceb2a)" height="240.9749" style="stroke:#CCCCCC;stroke-width:1.0416666666666667;" width="10.4167" x="292.1875" y="117.8833"/><rect fill="none" filter="url(#f1byxd34zceb2a)" height="14.5833" style="stroke:#CCCCCC;stroke-width:1.0416666666666667;" width="10.4167" x="875" y="168.4916"/><rect fill="none" filter="url(#f1byxd34zceb2a)" height="14.5833" style="stroke:#CCCCCC;stroke-width:1.0416666666666667;" width="10.4167" x="1087.5" y="233.6833"/><line style="stroke:#CCCCCC;stroke-width:1.0416666666666667;stroke-dasharray:5.0,5.0;" x1="107.2917" x2="107.2917" y1="65.1917" y2="368.2332"/><line style="stroke:#CCCCCC;stroke-width:1.0416666666666667;stroke-dasharray:5.0,5.0;" x1="296.875" x2="296.875" y1="65.1917" y2="368.2332"/><line style="stroke:#CCCCCC;stroke-width:1.0416666666666667;stroke-dasharray:5.0,5.0;" x1="650.5208" x2="650.5208" y1="65.1917" y2="368.2332"/><line style="stroke:#CCCCCC;stroke-width:1.0416666666666667;stroke-dasharray:5.0,5.0;" x1="879.6875" x2="879.6875" y1="65.1917" y2="368.2332"/><line style="stroke:#CCCCCC;stroke-width:1.0416666666666667;stroke-dasharray:5.0,5.0;" x1="1092.1875" x2="1092.1875" y1="65.1917" y2="368.2332"/><line style="stroke:#CCCCCC;stroke-width:1.0416666666666667;stroke-dasharray:5.0,5.0;" x1="1264.0625" x2="1264.0625" y1="65.1917" y2="368.2332"/><rect fill="#FFFFFF" filter="url(#f1byxd34zceb2a)" height="50.6083" rx="4.1667" ry="4.1667" style="stroke:#9803FC;stroke-width:1.0416666666666667;" width="96.875" x="57.2917" y="10.4167"/><text fill="#9803FC" font-family="Verdana" font-size="12.5" lengthAdjust="spacing" textLength="61.4583" x="75" y="40.6921">CmdFight</text><rect fill="#FFFFFF" filter="url(#f1byxd34zceb2a)" height="50.6083" rx="4.1667" ry="4.1667" style="stroke:#9803FC;stroke-width:1.0416666666666667;" width="96.875" x="57.2917" y="367.1916"/><text fill="#9803FC" font-family="Verdana" font-size="12.5" lengthAdjust="spacing" textLength="61.4583" x="75" y="397.467">CmdFight</text><rect fill="#FFFFFF" filter="url(#f1byxd34zceb2a)" height="50.6083" rx="4.1667" ry="4.1667" style="stroke:#9803FC;stroke-width:1.0416666666666667;" width="89.5833" x="251.0417" y="10.4167"/><text fill="#9803FC" font-family="Verdana" font-size="12.5" lengthAdjust="spacing" textLength="54.1667" x="268.75" y="40.6921">CmdRun</text><rect fill="#FFFFFF" filter="url(#f1byxd34zceb2a)" height="50.6083" rx="4.1667" ry="4.1667" style="stroke:#9803FC;stroke-width:1.0416666666666667;" width="89.5833" x="251.0417" y="367.1916"/><text fill="#9803FC" font-family="Verdana" font-size="12.5" lengthAdjust="spacing" textLength="54.1667" x="268.75" y="397.467">CmdRun</text><rect fill="#FFFFFF" filter="url(#f1byxd34zceb2a)" height="50.6083" rx="4.1667" ry="4.1667" style="stroke:#9803FC;stroke-width:1.0416666666666667;" width="107.2917" x="595.3125" y="10.4167"/><text fill="#9803FC" font-family="Verdana" font-size="12.5" lengthAdjust="spacing" textLength="71.875" x="613.0208" y="40.6921">I/O Stream</text><rect fill="#FFFFFF" filter="url(#f1byxd34zceb2a)" height="50.6083" rx="4.1667" ry="4.1667" style="stroke:#9803FC;stroke-width:1.0416666666666667;" width="107.2917" x="595.3125" y="367.1916"/><text fill="#9803FC" font-family="Verdana" font-size="12.5" lengthAdjust="spacing" textLength="71.875" x="613.0208" y="397.467">I/O Stream</text><rect fill="#FFFFFF" filter="url(#f1byxd34zceb2a)" height="50.6083" rx="4.1667" ry="4.1667" style="stroke:#9803FC;stroke-width:1.0416666666666667;" width="158.3333" x="799.4792" y="10.4167"/><text fill="#9803FC" font-family="Verdana" font-size="12.5" lengthAdjust="spacing" textLength="122.9167" x="817.1875" y="40.6921">ApplicationContext</text><rect fill="#FFFFFF" filter="url(#f1byxd34zceb2a)" height="50.6083" rx="4.1667" ry="4.1667" style="stroke:#9803FC;stroke-width:1.0416666666666667;" width="158.3333" x="799.4792" y="367.1916"/><text fill="#9803FC" font-family="Verdana" font-size="12.5" lengthAdjust="spacing" textLength="122.9167" x="817.1875" y="397.467">ApplicationContext</text><rect fill="#FFFFFF" filter="url(#f1byxd34zceb2a)" height="50.6083" rx="4.1667" ry="4.1667" style="stroke:#9803FC;stroke-width:1.0416666666666667;" width="72.9167" x="1054.6875" y="10.4167"/><text fill="#9803FC" font-family="Verdana" font-size="12.5" lengthAdjust="spacing" textLength="37.5" x="1072.3958" y="40.6921">Game</text><rect fill="#FFFFFF" filter="url(#f1byxd34zceb2a)" height="50.6083" rx="4.1667" ry="4.1667" style="stroke:#9803FC;stroke-width:1.0416666666666667;" width="72.9167" x="1054.6875" y="367.1916"/><text fill="#9803FC" font-family="Verdana" font-size="12.5" lengthAdjust="spacing" textLength="37.5" x="1072.3958" y="397.467">Game</text><rect fill="#FFFFFF" filter="url(#f1byxd34zceb2a)" height="50.6083" rx="4.1667" ry="4.1667" style="stroke:#9803FC;stroke-width:1.0416666666666667;" width="76.0417" x="1224.4792" y="10.4167"/><text fill="#9803FC" font-family="Verdana" font-size="12.5" lengthAdjust="spacing" textLength="40.625" x="1242.1875" y="40.6921">Player</text><rect fill="#FFFFFF" filter="url(#f1byxd34zceb2a)" height="50.6083" rx="4.1667" ry="4.1667" style="stroke:#9803FC;stroke-width:1.0416666666666667;" width="76.0417" x="1224.4792" y="367.1916"/><text fill="#9803FC" font-family="Verdana" font-size="12.5" lengthAdjust="spacing" textLength="40.625" x="1242.1875" y="397.467">Player</text><rect fill="none" filter="url(#f1byxd34zceb2a)" height="283.2499" style="stroke:#CCCCCC;stroke-width:1.0416666666666667;" width="10.4167" x="102.0833" y="75.6083"/><rect fill="none" filter="url(#f1byxd34zceb2a)" height="240.9749" style="stroke:#CCCCCC;stroke-width:1.0416666666666667;" width="10.4167" x="292.1875" y="117.8833"/><rect fill="none" filter="url(#f1byxd34zceb2a)" height="14.5833" style="stroke:#CCCCCC;stroke-width:1.0416666666666667;" width="10.4167" x="875" y="168.4916"/><rect fill="none" filter="url(#f1byxd34zceb2a)" height="14.5833" style="stroke:#CCCCCC;stroke-width:1.0416666666666667;" width="10.4167" x="1087.5" y="233.6833"/><polygon fill="#9803FC" points="279.6875,113.7166,290.1042,117.8833,279.6875,122.05,283.8542,117.8833" style="stroke:#9803FC;stroke-width:1.0416666666666667;"/><line style="stroke:#9803FC;stroke-width:3.125;" x1="112.5" x2="285.9375" y1="117.8833" y2="117.8833"/><text fill="#222222" font-family="Verdana" font-size="12.5" lengthAdjust="spacing" textLength="21.875" x="130.2083" y="102.7588">run</text><polygon fill="#9803FC" points="862.5,164.325,872.9167,168.4916,862.5,172.6583,866.6667,168.4916" style="stroke:#9803FC;stroke-width:1.0416666666666667;"/><line style="stroke:#9803FC;stroke-width:3.125;" x1="302.6042" x2="868.75" y1="168.4916" y2="168.4916"/><text fill="#222222" font-family="Verdana" font-size="12.5" lengthAdjust="spacing" textLength="69.7917" x="320.3125" y="153.3671">getGame()</text><polygon fill="#9803FC" points="314.0625,178.9083,303.6458,183.075,314.0625,187.2416,309.8958,183.075" style="stroke:#9803FC;stroke-width:1.0416666666666667;"/><line style="stroke:#9803FC;stroke-width:3.125;stroke-dasharray:2.0,2.0;" x1="307.8125" x2="879.1667" y1="183.075" y2="183.075"/><polygon fill="#9803FC" points="1075,229.5166,1085.4167,233.6833,1075,237.8499,1079.1667,233.6833" style="stroke:#9803FC;stroke-width:1.0416666666666667;"/><line style="stroke:#9803FC;stroke-width:3.125;" x1="302.6042" x2="1081.25" y1="233.6833" y2="233.6833"/><text fill="#222222" font-family="Verdana" font-size="12.5" lengthAdjust="spacing" textLength="72.9167" x="320.3125" y="218.5588">getPlayer()</text><polygon fill="#9803FC" points="314.0625,244.0999,303.6458,248.2666,314.0625,252.4333,309.8958,248.2666" style="stroke:#9803FC;stroke-width:1.0416666666666667;"/><line style="stroke:#9803FC;stroke-width:3.125;stroke-dasharray:2.0,2.0;" x1="307.8125" x2="1091.6667" y1="248.2666" y2="248.2666"/><polygon fill="#9803FC" points="1251.5625,294.7083,1261.9792,298.8749,1251.5625,303.0416,1255.7292,298.8749" style="stroke:#9803FC;stroke-width:1.0416666666666667;"/><line style="stroke:#9803FC;stroke-width:3.125;" x1="302.6042" x2="1257.8125" y1="298.8749" y2="298.8749"/><text fill="#222222" font-family="Verdana" font-size="12.5" lengthAdjust="spacing" textLength="126.0417" x="320.3125" y="283.7504">setFightingStatus()</text><polygon fill="#9803FC" points="638.0208,345.3166,648.4375,349.4832,638.0208,353.6499,642.1875,349.4832" style="stroke:#9803FC;stroke-width:1.0416666666666667;"/><line style="stroke:#9803FC;stroke-width:3.125;" x1="302.6042" x2="644.2708" y1="349.4832" y2="349.4832"/><text fill="#222222" font-family="Verdana" font-size="12.5" lengthAdjust="spacing" textLength="302.0833" x="320.3125" y="334.3587">Notify that the player ran away from the fight.</text><!--SRC=[ZP3FJiCm3CRlUGepBg2gWCG5Ua3Q9ctY0XDx0gjpksZD7pnNOqAyEqqtHhfDXHoYsD_dd-rSo98CWK4XrfYwMYfjIQdrIbkFZ0Q6p6upTfLZk7nykBilyaWSORugsTLsiNTCslFVyc4kZaUE5yIzbecpqiyudkF4DaCMdMkFLlfeaQr_hjZuvoTyAfZJUqqsfsbZzEVGNqef_mk5iLbCTBcKu-HRRJkfmVFjAyo52SsW8mozhtIEefqTDnlJHnSrHKETnAp2BR5IFusJvF24z6dVEaaou6O2jGk3SDedc4gIqE7gMftga1vuPzGqZUa1ikVj1co88HSpGjojsbapM9Eq2sXRpWMbNZVLaIt-kmnUdEXY2x94QIu2tqA0qG9kS0i5EzCAHK3UAFKD]--></g></svg>