<?xml version="1.0" encoding="us-ascii" standalone="no"?><svg xmlns="http://www.w3.org/2000/svg" xmlns:xlink="http://www.w3.org/1999/xlink" contentStyleType="text/css" height="903.125px" preserveAspectRatio="none" style="width:1343px;height:903px;background:#FFFFFF;" version="1.1" viewBox="0 0 1343 903" width="1343.75px" zoomAndPan="magnify"><defs><filter height="300%" id="f3gfotlzic0v1" width="300%" x="-1" y="-1"><feGaussianBlur result="blurOut" stdDeviation="2.0833333333333335"/><feColorMatrix in="blurOut" result="blurOut2" type="matrix" values="0 0 0 0 0 0 0 0 0 0 0 0 0 0 0 0 0 0 .4 0"/><feOffset dx="4.166666666666667" dy="4.166666666666667" in="blurOut2" result="blurOut3"/><feBlend in="SourceGraphic" in2="blurOut3" mode="normal"/></filter></defs><g><rect fill="none" filter="url(#f3gfotlzic0v1)" height="751.8331" style="stroke:#CCCCCC;stroke-width:1.0416666666666667;" width="10.4167" x="130.2083" y="75.6083"/><rect fill="none" filter="url(#f3gfotlzic0v1)" height="14.5833" style="stroke:#CCCCCC;stroke-width:1.0416666666666667;" width="10.4167" x="409.375" y="313.4583"/><rect fill="none" filter="url(#f3gfotlzic0v1)" height="14.5833" style="stroke:#CCCCCC;stroke-width:1.0416666666666667;" width="10.4167" x="639.0625" y="117.8833"/><rect fill="none" filter="url(#f3gfotlzic0v1)" height="14.5833" style="stroke:#CCCCCC;stroke-width:1.0416666666666667;" width="10.4167" x="851.5625" y="183.075"/><rect fill="none" filter="url(#f3gfotlzic0v1)" height="14.5833" style="stroke:#CCCCCC;stroke-width:1.0416666666666667;" width="10.4167" x="1022.9167" y="248.2666"/><rect fill="none" filter="url(#f3gfotlzic0v1)" height="14.5833" style="stroke:#CCCCCC;stroke-width:1.0416666666666667;" width="10.4167" x="1207.2917" y="378.6499"/><rect fill="none" filter="url(#f3gfotlzic0v1)" height="410.2498" rx="4.1667" ry="4.1667" style="stroke:#9803FC;stroke-width:1.0416666666666667;" width="1305.2083" x="20.8333" y="408.8582"/><rect fill="none" filter="url(#f3gfotlzic0v1)" height="248.4416" rx="4.1667" ry="4.1667" style="stroke:#9803FC;stroke-width:1.0416666666666667;" width="1284.375" x="31.25" y="474.6582"/><line style="stroke:#CCCCCC;stroke-width:1.0416666666666667;stroke-dasharray:5.0,5.0;" x1="135.4167" x2="135.4167" y1="65.1917" y2="836.8164"/><line style="stroke:#CCCCCC;stroke-width:1.0416666666666667;stroke-dasharray:5.0,5.0;" x1="414.5833" x2="414.5833" y1="65.1917" y2="836.8164"/><line style="stroke:#CCCCCC;stroke-width:1.0416666666666667;stroke-dasharray:5.0,5.0;" x1="643.75" x2="643.75" y1="65.1917" y2="836.8164"/><line style="stroke:#CCCCCC;stroke-width:1.0416666666666667;stroke-dasharray:5.0,5.0;" x1="856.25" x2="856.25" y1="65.1917" y2="836.8164"/><line style="stroke:#CCCCCC;stroke-width:1.0416666666666667;stroke-dasharray:5.0,5.0;" x1="1028.125" x2="1028.125" y1="65.1917" y2="836.8164"/><line style="stroke:#CCCCCC;stroke-width:1.0416666666666667;stroke-dasharray:5.0,5.0;" x1="1212.5" x2="1212.5" y1="65.1917" y2="836.8164"/><rect fill="#FFFFFF" filter="url(#f3gfotlzic0v1)" height="50.6083" rx="4.1667" ry="4.1667" style="stroke:#9803FC;stroke-width:1.0416666666666667;" width="101.0417" x="83.3333" y="10.4167"/><text fill="#9803FC" font-family="Verdana" font-size="12.5" lengthAdjust="spacing" textLength="65.625" x="101.0417" y="40.6921">CmdEquip</text><rect fill="#FFFFFF" filter="url(#f3gfotlzic0v1)" height="50.6083" rx="4.1667" ry="4.1667" style="stroke:#9803FC;stroke-width:1.0416666666666667;" width="101.0417" x="83.3333" y="835.7747"/><text fill="#9803FC" font-family="Verdana" font-size="12.5" lengthAdjust="spacing" textLength="65.625" x="101.0417" y="866.0502">CmdEquip</text><rect fill="#FFFFFF" filter="url(#f3gfotlzic0v1)" height="50.6083" rx="4.1667" ry="4.1667" style="stroke:#9803FC;stroke-width:1.0416666666666667;" width="107.2917" x="359.375" y="10.4167"/><text fill="#9803FC" font-family="Verdana" font-size="12.5" lengthAdjust="spacing" textLength="71.875" x="377.0833" y="40.6921">I/O Stream</text><rect fill="#FFFFFF" filter="url(#f3gfotlzic0v1)" height="50.6083" rx="4.1667" ry="4.1667" style="stroke:#9803FC;stroke-width:1.0416666666666667;" width="107.2917" x="359.375" y="835.7747"/><text fill="#9803FC" font-family="Verdana" font-size="12.5" lengthAdjust="spacing" textLength="71.875" x="377.0833" y="866.0502">I/O Stream</text><rect fill="#FFFFFF" filter="url(#f3gfotlzic0v1)" height="50.6083" rx="4.1667" ry="4.1667" style="stroke:#9803FC;stroke-width:1.0416666666666667;" width="158.3333" x="563.5417" y="10.4167"/><text fill="#9803FC" font-family="Verdana" font-size="12.5" lengthAdjust="spacing" textLength="122.9167" x="581.25" y="40.6921">ApplicationContext</text><rect fill="#FFFFFF" filter="url(#f3gfotlzic0v1)" height="50.6083" rx="4.1667" ry="4.1667" style="stroke:#9803FC;stroke-width:1.0416666666666667;" width="158.3333" x="563.5417" y="835.7747"/><text fill="#9803FC" font-family="Verdana" font-size="12.5" lengthAdjust="spacing" textLength="122.9167" x="581.25" y="866.0502">ApplicationContext</text><rect fill="#FFFFFF" filter="url(#f3gfotlzic0v1)" height="50.6083" rx="4.1667" ry="4.1667" style="stroke:#9803FC;stroke-width:1.0416666666666667;" width="72.9167" x="818.75" y="10.4167"/><text fill="#9803FC" font-family="Verdana" font-size="12.5" lengthAdjust="spacing" textLength="37.5" x="836.4583" y="40.6921">Game</text><rect fill="#FFFFFF" filter="url(#f3gfotlzic0v1)" height="50.6083" rx="4.1667" ry="4.1667" style="stroke:#9803FC;stroke-width:1.0416666666666667;" width="72.9167" x="818.75" y="835.7747"/><text fill="#9803FC" font-family="Verdana" font-size="12.5" lengthAdjust="spacing" textLength="37.5" x="836.4583" y="866.0502">Game</text><rect fill="#FFFFFF" filter="url(#f3gfotlzic0v1)" height="50.6083" rx="4.1667" ry="4.1667" style="stroke:#9803FC;stroke-width:1.0416666666666667;" width="76.0417" x="988.5417" y="10.4167"/><text fill="#9803FC" font-family="Verdana" font-size="12.5" lengthAdjust="spacing" textLength="40.625" x="1006.25" y="40.6921">Player</text><rect fill="#FFFFFF" filter="url(#f3gfotlzic0v1)" height="50.6083" rx="4.1667" ry="4.1667" style="stroke:#9803FC;stroke-width:1.0416666666666667;" width="76.0417" x="988.5417" y="835.7747"/><text fill="#9803FC" font-family="Verdana" font-size="12.5" lengthAdjust="spacing" textLength="40.625" x="1006.25" y="866.0502">Player</text><rect fill="#FFFFFF" filter="url(#f3gfotlzic0v1)" height="50.6083" rx="4.1667" ry="4.1667" style="stroke:#9803FC;stroke-width:1.0416666666666667;" width="98.9583" x="1161.4583" y="10.4167"/><text fill="#9803FC" font-family="Verdana" font-size="12.5" lengthAdjust="spacing" textLength="63.5417" x="1179.1667" y="40.6921">Inventory</text><rect fill="#FFFFFF" filter="url(#f3gfotlzic0v1)" height="50.6083" rx="4.1667" ry="4.1667" style="stroke:#9803FC;stroke-width:1.0416666666666667;" width="98.9583" x="1161.4583" y="835.7747"/><text fill="#9803FC" font-family="Verdana" font-size="12.5" lengthAdjust="spacing" textLength="63.5417" x="1179.1667" y="866.0502">Inventory</text><rect fill="none" filter="url(#f3gfotlzic0v1)" height="751.8331" style="stroke:#CCCCCC;stroke-width:1.0416666666666667;" width="10.4167" x="130.2083" y="75.6083"/><rect fill="none" filter="url(#f3gfotlzic0v1)" height="14.5833" style="stroke:#CCCCCC;stroke-width:1.0416666666666667;" width="10.4167" x="409.375" y="313.4583"/><rect fill="none" filter="url(#f3gfotlzic0v1)" height="14.5833" style="stroke:#CCCCCC;stroke-width:1.0416666666666667;" width="10.4167" x="639.0625" y="117.8833"/><rect fill="none" filter="url(#f3gfotlzic0v1)" height="14.5833" style="stroke:#CCCCCC;stroke-width:1.0416666666666667;" width="10.4167" x="851.5625" y="183.075"/><rect fill="none" filter="url(#f3gfotlzic0v1)" height="14.5833" style="stroke:#CCCCCC;stroke-width:1.0416666666666667;" width="10.4167" x="1022.9167" y="248.2666"/><rect fill="none" filter="url(#f3gfotlzic0v1)" height="14.5833" style="stroke:#CCCCCC;stroke-width:1.0416666666666667;" width="10.4167" x="1207.2917" y="378.6499"/><polygon fill="#9803FC" points="626.5625,113.7166,636.9792,117.8833,626.5625,122.05,630.7292,117.8833" style="stroke:#9803FC;stroke-width:1.0416666666666667;"/><line style="stroke:#9803FC;stroke-width:3.125;" x1="140.625" x2="632.8125" y1="117.8833" y2="117.8833"/><text fill="#222222" font-family="Verdana" font-size="12.5" lengthAdjust="spacing" textLength="69.7917" x="158.3333" y="102.7588">getGame()</text><polygon fill="#9803FC" points="152.0833,128.3,141.6667,132.4666,152.0833,136.6333,147.9167,132.4666" style="stroke:#9803FC;stroke-width:1.0416666666666667;"/><line style="stroke:#9803FC;stroke-width:3.125;stroke-dasharray:2.0,2.0;" x1="145.8333" x2="643.2292" y1="132.4666" y2="132.4666"/><polygon fill="#9803FC" points="839.0625,178.9083,849.4792,183.075,839.0625,187.2416,843.2292,183.075" style="stroke:#9803FC;stroke-width:1.0416666666666667;"/><line style="stroke:#9803FC;stroke-width:3.125;" x1="140.625" x2="845.3125" y1="183.075" y2="183.075"/><text fill="#222222" font-family="Verdana" font-size="12.5" lengthAdjust="spacing" textLength="72.9167" x="158.3333" y="167.9504">getPlayer()</text><polygon fill="#9803FC" points="152.0833,193.4916,141.6667,197.6583,152.0833,201.825,147.9167,197.6583" style="stroke:#9803FC;stroke-width:1.0416666666666667;"/><line style="stroke:#9803FC;stroke-width:3.125;stroke-dasharray:2.0,2.0;" x1="145.8333" x2="855.7292" y1="197.6583" y2="197.6583"/><polygon fill="#9803FC" points="1010.4167,244.0999,1020.8333,248.2666,1010.4167,252.4333,1014.5833,248.2666" style="stroke:#9803FC;stroke-width:1.0416666666666667;"/><line style="stroke:#9803FC;stroke-width:3.125;" x1="140.625" x2="1016.6667" y1="248.2666" y2="248.2666"/><text fill="#222222" font-family="Verdana" font-size="12.5" lengthAdjust="spacing" textLength="95.8333" x="158.3333" y="233.1421">getInventory()</text><polygon fill="#9803FC" points="152.0833,258.6833,141.6667,262.8499,152.0833,267.0166,147.9167,262.8499" style="stroke:#9803FC;stroke-width:1.0416666666666667;"/><line style="stroke:#9803FC;stroke-width:3.125;stroke-dasharray:2.0,2.0;" x1="145.8333" x2="1027.0833" y1="262.8499" y2="262.8499"/><polygon fill="#9803FC" points="396.875,309.2916,407.2917,313.4583,396.875,317.6249,401.0417,313.4583" style="stroke:#9803FC;stroke-width:1.0416666666666667;"/><line style="stroke:#9803FC;stroke-width:3.125;" x1="140.625" x2="403.125" y1="313.4583" y2="313.4583"/><text fill="#222222" font-family="Verdana" font-size="12.5" lengthAdjust="spacing" textLength="100" x="158.3333" y="298.3337">Get item name.</text><polygon fill="#9803FC" points="152.0833,323.8749,141.6667,328.0416,152.0833,332.2083,147.9167,328.0416" style="stroke:#9803FC;stroke-width:1.0416666666666667;"/><line style="stroke:#9803FC;stroke-width:3.125;stroke-dasharray:2.0,2.0;" x1="145.8333" x2="413.5417" y1="328.0416" y2="328.0416"/><polygon fill="#9803FC" points="1194.7917,374.4832,1205.2083,378.6499,1194.7917,382.8166,1198.9583,378.6499" style="stroke:#9803FC;stroke-width:1.0416666666666667;"/><line style="stroke:#9803FC;stroke-width:3.125;" x1="140.625" x2="1201.0417" y1="378.6499" y2="378.6499"/><text fill="#222222" font-family="Verdana" font-size="12.5" lengthAdjust="spacing" textLength="192.7083" x="158.3333" y="363.5254">Get item with the name read.</text><polygon fill="#9803FC" points="152.0833,389.0666,141.6667,393.2332,152.0833,397.3999,147.9167,393.2332" style="stroke:#9803FC;stroke-width:1.0416666666666667;"/><line style="stroke:#9803FC;stroke-width:3.125;stroke-dasharray:2.0,2.0;" x1="145.8333" x2="1211.4583" y1="393.2332" y2="393.2332"/><path d="M25,408.8582 L106.25,408.8582 L106.25,436.5499 L95.8333,446.9666 L20.8333,446.9666 L20.8333,413.0249 A4.1667,4.1667 0 0 1 25,408.8582 " fill="#FFFFFF" style="stroke:#9803FC;stroke-width:1.0416666666666667;"/><rect fill="none" height="410.2498" rx="4.1667" ry="4.1667" style="stroke:#9803FC;stroke-width:1.0416666666666667;" width="1305.2083" x="20.8333" y="408.8582"/><text fill="#9C27B0" font-family="Verdana" font-size="12.5" font-weight="bold" lengthAdjust="spacing" textLength="17.7083" x="46.875" y="432.8837">alt</text><text fill="#222222" font-family="Verdana" font-size="12.5" font-weight="bold" lengthAdjust="spacing" textLength="91.6667" x="132.2917" y="433.9254">[item != null]</text><path d="M35.4167,474.6582 L116.6667,474.6582 L116.6667,502.3499 L106.25,512.7665 L31.25,512.7665 L31.25,478.8249 A4.1667,4.1667 0 0 1 35.4167,474.6582 " fill="#FFFFFF" style="stroke:#9803FC;stroke-width:1.0416666666666667;"/><rect fill="none" height="248.4416" rx="4.1667" ry="4.1667" style="stroke:#9803FC;stroke-width:1.0416666666666667;" width="1284.375" x="31.25" y="474.6582"/><text fill="#9C27B0" font-family="Verdana" font-size="12.5" font-weight="bold" lengthAdjust="spacing" textLength="17.7083" x="57.2917" y="498.6837">alt</text><text fill="#222222" font-family="Verdana" font-size="12.5" font-weight="bold" lengthAdjust="spacing" textLength="129.1667" x="142.7083" y="499.7253">[item is Equipable]</text><polygon fill="#9803FC" points="1200,571.2748,1210.4167,575.4415,1200,579.6082,1204.1667,575.4415" style="stroke:#9803FC;stroke-width:1.0416666666666667;"/><line style="stroke:#9803FC;stroke-width:3.125;" x1="140.625" x2="1206.25" y1="575.4415" y2="575.4415"/><text fill="#222222" font-family="Verdana" font-size="12.5" lengthAdjust="spacing" textLength="105.2083" x="158.3333" y="560.317">equipItem(item)</text><polygon fill="#9803FC" points="402.0833,621.8831,412.5,626.0498,402.0833,630.2165,406.25,626.0498" style="stroke:#9803FC;stroke-width:1.0416666666666667;"/><line style="stroke:#9803FC;stroke-width:3.125;" x1="140.625" x2="408.3333" y1="626.0498" y2="626.0498"/><text fill="#222222" font-family="Verdana" font-size="12.5" lengthAdjust="spacing" textLength="228.125" x="158.3333" y="610.9253">Notify that the item was equipped.</text><line style="stroke:#9803FC;stroke-width:1.0416666666666667;stroke-dasharray:2.0,2.0;" x1="31.25" x2="1315.625" y1="635.4248" y2="635.4248"/><text fill="#222222" font-family="Verdana" font-size="12.5" font-weight="bold" lengthAdjust="spacing" textLength="40.625" x="46.875" y="658.4086">[else]</text><polygon fill="#9803FC" points="402.0833,710.5998,412.5,714.7664,402.0833,718.9331,406.25,714.7664" style="stroke:#9803FC;stroke-width:1.0416666666666667;"/><line style="stroke:#9803FC;stroke-width:3.125;" x1="140.625" x2="408.3333" y1="714.7664" y2="714.7664"/><text fill="#222222" font-family="Verdana" font-size="12.5" lengthAdjust="spacing" textLength="214.5833" x="158.3333" y="699.6419">Notify that item is not equipable.</text><line style="stroke:#9803FC;stroke-width:1.0416666666666667;stroke-dasharray:2.0,2.0;" x1="20.8333" x2="1326.0417" y1="731.4331" y2="731.4331"/><text fill="#222222" font-family="Verdana" font-size="12.5" font-weight="bold" lengthAdjust="spacing" textLength="40.625" x="36.4583" y="754.4169">[else]</text><polygon fill="#9803FC" points="402.0833,806.6081,412.5,810.7747,402.0833,814.9414,406.25,810.7747" style="stroke:#9803FC;stroke-width:1.0416666666666667;"/><line style="stroke:#9803FC;stroke-width:3.125;" x1="140.625" x2="408.3333" y1="810.7747" y2="810.7747"/><text fill="#222222" font-family="Verdana" font-size="12.5" lengthAdjust="spacing" textLength="220.8333" x="158.3333" y="795.6502">Notify that the item wasn't found.</text><!--SRC=[bPDHJy8m58NV-oik-22434ryKH9DW0ZXHKdu1NMxG4FNZkuE9CR_Rhl1N1cPmWCXvvxptTEIjcYDCKBC2OtWWSv82eMCfHkX4cvu34DZz7wifJPmy_Hu_x0CAyCH3pShepCL7HsJ_FFV-30aRKRQH6WQBHEjg9bntgDcctD38XG9LzH4gzYQUrMDVrx25uC5RZDK8KwjCRc4_cQC9RzG6CVHwpOJYIUsPtVli223F6xxzc6II15o4bgDxVdmaxpnbCVe2NF93sWyQQPsgEnb7XWxBU_rofyGl5nOqkiDO8Nay9qkgyyXiB7oAFLv431lWmCTcKL3ItMQpt7AURAm7xFbKMoy6FY0GZj7L6yN76cA188m1cKNzfatztWHyf34phwYix-eYYzBUUYze3NOLvZl01kB-gnq-bjAsHNdyWXeFOFAf6G0fIHIo1FyGwBL0IxM600wRMOJ7HVhrgpLimpWJPDO7cnNJddXeZvF2qo2jZW0oXJphojWfyvAKy5olNEOYbWLU7qtTKkmT4-ppnpi1m00]--></g></svg>