<?xml version="1.0" encoding="us-ascii" standalone="no"?><svg xmlns="http://www.w3.org/2000/svg" xmlns:xlink="http://www.w3.org/1999/xlink" contentStyleType="text/css" height="1181.25px" preserveAspectRatio="none" style="width:1185px;height:1181px;background:#FFFFFF;" version="1.1" viewBox="0 0 1185 1181" width="1185.4167px" zoomAndPan="magnify"><defs><filter height="300%" id="f1m0p1vrzwahuh" width="300%" x="-1" y="-1"><feGaussianBlur result="blurOut" stdDeviation="2.0833333333333335"/><feColorMatrix in="blurOut" result="blurOut2" type="matrix" values="0 0 0 0 0 0 0 0 0 0 0 0 0 0 0 0 0 0 .4 0"/><feOffset dx="4.166666666666667" dy="4.166666666666667" in="blurOut2" result="blurOut3"/><feBlend in="SourceGraphic" in2="blurOut3" mode="normal"/></filter></defs><g><rect fill="none" filter="url(#f1m0p1vrzwahuh)" height="837.9883" style="stroke:#CCCCCC;stroke-width:1.0416666666666667;" width="10.4167" x="161.4583" y="266.5365"/><rect fill="none" filter="url(#f1m0p1vrzwahuh)" height="49.9674" style="stroke:#CCCCCC;stroke-width:1.0416666666666667;" width="10.4167" x="446.875" y="116.6016"/><rect fill="none" filter="url(#f1m0p1vrzwahuh)" height="572.526" style="stroke:#CCCCCC;stroke-width:1.0416666666666667;" width="10.4167" x="446.875" y="316.5039"/><rect fill="none" filter="url(#f1m0p1vrzwahuh)" height="49.9674" style="stroke:#CCCCCC;stroke-width:1.0416666666666667;" width="10.4167" x="879.1667" y="1038.9323"/><rect fill="none" filter="url(#f1m0p1vrzwahuh)" height="637.0443" rx="4.1667" ry="4.1667" style="stroke:#9803FC;stroke-width:1.0416666666666667;" width="1098.4375" x="69.2708" y="460.1888"/><line style="stroke:#CCCCCC;stroke-width:1.0416666666666667;stroke-dasharray:5.0,5.0;" x1="166.1458" x2="166.1458" y1="64.5508" y2="174.9023"/><line style="stroke:#CCCCCC;stroke-width:1.0416666666666667;stroke-dasharray:1.0,4.0;" x1="166.1458" x2="166.1458" y1="174.9023" y2="224.9023"/><line style="stroke:#CCCCCC;stroke-width:1.0416666666666667;stroke-dasharray:5.0,5.0;" x1="166.1458" x2="166.1458" y1="224.9023" y2="1114.9414"/><line style="stroke:#CCCCCC;stroke-width:1.0416666666666667;stroke-dasharray:5.0,5.0;" x1="452.0833" x2="452.0833" y1="64.5508" y2="174.9023"/><line style="stroke:#CCCCCC;stroke-width:1.0416666666666667;stroke-dasharray:1.0,4.0;" x1="452.0833" x2="452.0833" y1="174.9023" y2="224.9023"/><line style="stroke:#CCCCCC;stroke-width:1.0416666666666667;stroke-dasharray:5.0,5.0;" x1="452.0833" x2="452.0833" y1="224.9023" y2="1114.9414"/><line style="stroke:#CCCCCC;stroke-width:1.0416666666666667;stroke-dasharray:5.0,5.0;" x1="695.8333" x2="695.8333" y1="64.5508" y2="174.9023"/><line style="stroke:#CCCCCC;stroke-width:1.0416666666666667;stroke-dasharray:1.0,4.0;" x1="695.8333" x2="695.8333" y1="174.9023" y2="224.9023"/><line style="stroke:#CCCCCC;stroke-width:1.0416666666666667;stroke-dasharray:5.0,5.0;" x1="695.8333" x2="695.8333" y1="224.9023" y2="1114.9414"/><line style="stroke:#CCCCCC;stroke-width:1.0416666666666667;stroke-dasharray:5.0,5.0;" x1="884.375" x2="884.375" y1="64.5508" y2="174.9023"/><line style="stroke:#CCCCCC;stroke-width:1.0416666666666667;stroke-dasharray:1.0,4.0;" x1="884.375" x2="884.375" y1="174.9023" y2="224.9023"/><line style="stroke:#CCCCCC;stroke-width:1.0416666666666667;stroke-dasharray:5.0,5.0;" x1="884.375" x2="884.375" y1="224.9023" y2="1114.9414"/><line style="stroke:#CCCCCC;stroke-width:1.0416666666666667;stroke-dasharray:5.0,5.0;" x1="1063.5417" x2="1063.5417" y1="64.5508" y2="174.9023"/><line style="stroke:#CCCCCC;stroke-width:1.0416666666666667;stroke-dasharray:1.0,4.0;" x1="1063.5417" x2="1063.5417" y1="174.9023" y2="224.9023"/><line style="stroke:#CCCCCC;stroke-width:1.0416666666666667;stroke-dasharray:5.0,5.0;" x1="1063.5417" x2="1063.5417" y1="224.9023" y2="1114.9414"/><rect fill="#FFFFFF" filter="url(#f1m0p1vrzwahuh)" height="49.9674" rx="4.1667" ry="4.1667" style="stroke:#9803FC;stroke-width:1.0416666666666667;" width="87.5" x="121.3542" y="10.4167"/><text fill="#9803FC" font-family="Verdana" font-size="12.5" lengthAdjust="spacing" textLength="52.0833" x="139.0625" y="39.7278">Console</text><rect fill="#FFFFFF" filter="url(#f1m0p1vrzwahuh)" height="49.9674" rx="4.1667" ry="4.1667" style="stroke:#9803FC;stroke-width:1.0416666666666667;" width="87.5" x="121.3542" y="1113.8997"/><text fill="#9803FC" font-family="Verdana" font-size="12.5" lengthAdjust="spacing" textLength="52.0833" x="139.0625" y="1143.2109">Console</text><rect fill="#FFFFFF" filter="url(#f1m0p1vrzwahuh)" height="49.9674" rx="4.1667" ry="4.1667" style="stroke:#9803FC;stroke-width:1.0416666666666667;" width="142.7083" x="379.1667" y="10.4167"/><text fill="#9803FC" font-family="Verdana" font-size="12.5" lengthAdjust="spacing" textLength="107.2917" x="396.875" y="39.7278">CommandParser</text><rect fill="#FFFFFF" filter="url(#f1m0p1vrzwahuh)" height="49.9674" rx="4.1667" ry="4.1667" style="stroke:#9803FC;stroke-width:1.0416666666666667;" width="142.7083" x="379.1667" y="1113.8997"/><text fill="#9803FC" font-family="Verdana" font-size="12.5" lengthAdjust="spacing" textLength="107.2917" x="396.875" y="1143.2109">CommandParser</text><rect fill="#FFFFFF" filter="url(#f1m0p1vrzwahuh)" height="49.9674" rx="4.1667" ry="4.1667" style="stroke:#9803FC;stroke-width:1.0416666666666667;" width="117.7083" x="635.4167" y="10.4167"/><text fill="#9803FC" font-family="Verdana" font-size="12.5" lengthAdjust="spacing" textLength="82.2917" x="653.125" y="39.7278">LookupTable</text><rect fill="#FFFFFF" filter="url(#f1m0p1vrzwahuh)" height="49.9674" rx="4.1667" ry="4.1667" style="stroke:#9803FC;stroke-width:1.0416666666666667;" width="117.7083" x="635.4167" y="1113.8997"/><text fill="#9803FC" font-family="Verdana" font-size="12.5" lengthAdjust="spacing" textLength="82.2917" x="653.125" y="1143.2109">LookupTable</text><rect fill="#FFFFFF" filter="url(#f1m0p1vrzwahuh)" height="49.9674" rx="4.1667" ry="4.1667" style="stroke:#9803FC;stroke-width:1.0416666666666667;" width="65.625" x="850" y="10.4167"/><text fill="#9803FC" font-family="Verdana" font-size="12.5" lengthAdjust="spacing" textLength="30.2083" x="867.7083" y="39.7278">Task</text><rect fill="#FFFFFF" filter="url(#f1m0p1vrzwahuh)" height="49.9674" rx="4.1667" ry="4.1667" style="stroke:#9803FC;stroke-width:1.0416666666666667;" width="65.625" x="850" y="1113.8997"/><text fill="#9803FC" font-family="Verdana" font-size="12.5" lengthAdjust="spacing" textLength="30.2083" x="867.7083" y="1143.2109">Task</text><rect fill="#FFFFFF" filter="url(#f1m0p1vrzwahuh)" height="49.9674" rx="4.1667" ry="4.1667" style="stroke:#9803FC;stroke-width:1.0416666666666667;" width="100" x="1012.5" y="10.4167"/><text fill="#9803FC" font-family="Verdana" font-size="12.5" lengthAdjust="spacing" textLength="64.5833" x="1030.2083" y="39.7278">Command</text><rect fill="#FFFFFF" filter="url(#f1m0p1vrzwahuh)" height="49.9674" rx="4.1667" ry="4.1667" style="stroke:#9803FC;stroke-width:1.0416666666666667;" width="100" x="1012.5" y="1113.8997"/><text fill="#9803FC" font-family="Verdana" font-size="12.5" lengthAdjust="spacing" textLength="64.5833" x="1030.2083" y="1143.2109">Command</text><rect fill="none" filter="url(#f1m0p1vrzwahuh)" height="837.9883" style="stroke:#CCCCCC;stroke-width:1.0416666666666667;" width="10.4167" x="161.4583" y="266.5365"/><rect fill="none" filter="url(#f1m0p1vrzwahuh)" height="49.9674" style="stroke:#CCCCCC;stroke-width:1.0416666666666667;" width="10.4167" x="446.875" y="116.6016"/><rect fill="none" filter="url(#f1m0p1vrzwahuh)" height="572.526" style="stroke:#CCCCCC;stroke-width:1.0416666666666667;" width="10.4167" x="446.875" y="316.5039"/><rect fill="none" filter="url(#f1m0p1vrzwahuh)" height="49.9674" style="stroke:#CCCCCC;stroke-width:1.0416666666666667;" width="10.4167" x="879.1667" y="1038.9323"/><polygon fill="#9803FC" points="434.375,112.4349,444.7917,116.6016,434.375,120.7682,438.5417,116.6016" style="stroke:#9803FC;stroke-width:1.0416666666666667;"/><line style="stroke:#9803FC;stroke-width:3.125;" x1="10.4167" x2="440.625" y1="116.6016" y2="116.6016"/><text fill="#222222" font-family="Verdana" font-size="12.5" lengthAdjust="spacing" textLength="270.8333" x="28.125" y="101.1536">registerCommand(key, class, description)</text><polygon fill="#9803FC" points="683.3333,162.4023,693.75,166.569,683.3333,170.7357,687.5,166.569" style="stroke:#9803FC;stroke-width:1.0416666666666667;"/><line style="stroke:#9803FC;stroke-width:3.125;" x1="452.0833" x2="689.5833" y1="166.569" y2="166.569"/><text fill="#222222" font-family="Verdana" font-size="12.5" lengthAdjust="spacing" textLength="192.7083" x="469.7917" y="151.121">insert(key, class, description)</text><polygon fill="#9803FC" points="148.9583,262.3698,159.375,266.5365,148.9583,270.7031,153.125,266.5365" style="stroke:#9803FC;stroke-width:1.0416666666666667;"/><line style="stroke:#9803FC;stroke-width:3.125;" x1="10.4167" x2="155.2083" y1="266.5365" y2="266.5365"/><text fill="#222222" font-family="Verdana" font-size="12.5" lengthAdjust="spacing" textLength="110.4167" x="28.125" y="251.0885">String command.</text><polygon fill="#9803FC" points="434.375,312.3372,444.7917,316.5039,434.375,320.6706,438.5417,316.5039" style="stroke:#9803FC;stroke-width:1.0416666666666667;"/><line style="stroke:#9803FC;stroke-width:3.125;" x1="171.875" x2="440.625" y1="316.5039" y2="316.5039"/><text fill="#222222" font-family="Verdana" font-size="12.5" lengthAdjust="spacing" textLength="139.5833" x="189.5833" y="301.0559">parseCommand(cmd)</text><line style="stroke:#9803FC;stroke-width:3.125;" x1="457.2917" x2="501.0417" y1="366.4714" y2="366.4714"/><line style="stroke:#9803FC;stroke-width:3.125;" x1="501.0417" x2="501.0417" y1="366.4714" y2="380.013"/><line style="stroke:#9803FC;stroke-width:3.125;" x1="458.3333" x2="501.0417" y1="380.013" y2="380.013"/><polygon fill="#9803FC" points="468.75,375.8464,458.3333,380.013,468.75,384.1797,464.5833,380.013" style="stroke:#9803FC;stroke-width:1.0416666666666667;"/><text fill="#222222" font-family="Verdana" font-size="12.5" lengthAdjust="spacing" textLength="128.125" x="475" y="351.0234">Tokenize command.</text><polygon fill="#9803FC" points="683.3333,425.8138,693.75,429.9805,683.3333,434.1471,687.5,429.9805" style="stroke:#9803FC;stroke-width:1.0416666666666667;"/><line style="stroke:#9803FC;stroke-width:3.125;" x1="457.2917" x2="689.5833" y1="429.9805" y2="429.9805"/><text fill="#222222" font-family="Verdana" font-size="12.5" lengthAdjust="spacing" textLength="148.9583" x="475" y="414.5325">getCommandMetadata</text><polygon fill="#9803FC" points="468.75,440.3971,458.3333,444.5638,468.75,448.7305,464.5833,444.5638" style="stroke:#9803FC;stroke-width:1.0416666666666667;"/><line style="stroke:#9803FC;stroke-width:3.125;stroke-dasharray:2.0,2.0;" x1="462.5" x2="694.7917" y1="444.5638" y2="444.5638"/><path d="M73.4375,460.1888 L156.7708,460.1888 L156.7708,487.2396 L146.3542,497.6563 L69.2708,497.6563 L69.2708,464.3555 A4.1667,4.1667 0 0 1 73.4375,460.1888 " fill="#FFFFFF" style="stroke:#9803FC;stroke-width:1.0416666666666667;"/><rect fill="none" height="637.0443" rx="4.1667" ry="4.1667" style="stroke:#9803FC;stroke-width:1.0416666666666667;" width="1098.4375" x="69.2708" y="460.1888"/><text fill="#9C27B0" font-family="Verdana" font-size="12.5" font-weight="bold" lengthAdjust="spacing" textLength="19.7917" x="95.3125" y="483.2499">alt</text><text fill="#222222" font-family="Verdana" font-size="12.5" font-weight="bold" lengthAdjust="spacing" textLength="138.5417" x="182.8125" y="484.2916">[metadata == null]</text><polygon fill="#9803FC" points="183.3333,554.8828,172.9167,559.0495,183.3333,563.2161,179.1667,559.0495" style="stroke:#9803FC;stroke-width:1.0416666666666667;"/><line style="stroke:#9803FC;stroke-width:3.125;stroke-dasharray:2.0,2.0;" x1="177.0833" x2="445.8333" y1="559.0495" y2="559.0495"/><text fill="#222222" font-family="Verdana" font-size="12.5" lengthAdjust="spacing" textLength="136.4583" x="200" y="543.6015">Command not found.</text><line style="stroke:#9803FC;stroke-width:3.125;" x1="171.875" x2="215.625" y1="609.0169" y2="609.0169"/><line style="stroke:#9803FC;stroke-width:3.125;" x1="215.625" x2="215.625" y1="609.0169" y2="622.5586"/><line style="stroke:#9803FC;stroke-width:3.125;" x1="172.9167" x2="215.625" y1="622.5586" y2="622.5586"/><polygon fill="#9803FC" points="183.3333,618.3919,172.9167,622.5586,183.3333,626.7253,179.1667,622.5586" style="stroke:#9803FC;stroke-width:1.0416666666666667;"/><text fill="#222222" font-family="Verdana" font-size="12.5" lengthAdjust="spacing" textLength="239.5833" x="189.5833" y="593.5689">Display that the comman is unknown</text><line style="stroke:#9803FC;stroke-width:1.0416666666666667;stroke-dasharray:2.0,2.0;" x1="69.2708" x2="1167.7083" y1="631.9336" y2="631.9336"/><text fill="#222222" font-family="Verdana" font-size="12.5" font-weight="bold" lengthAdjust="spacing" textLength="41.6667" x="84.8958" y="653.953">[else]</text><polygon fill="#9803FC" points="1051.5625,720.3776,1061.9792,724.5443,1051.5625,728.7109,1055.7292,724.5443" style="stroke:#9803FC;stroke-width:1.0416666666666667;"/><line style="stroke:#9803FC;stroke-width:3.125;" x1="457.2917" x2="1057.8125" y1="724.5443" y2="724.5443"/><text fill="#222222" font-family="Verdana" font-size="12.5" lengthAdjust="spacing" textLength="260.4167" x="475" y="694.5455">Create correct instance using reflection</text><text fill="#222222" font-family="Verdana" font-size="12.5" lengthAdjust="spacing" textLength="164.5833" x="475" y="709.0963">and command metadata.</text><polygon fill="#9803FC" points="468.75,734.9609,458.3333,739.1276,468.75,743.2943,464.5833,739.1276" style="stroke:#9803FC;stroke-width:1.0416666666666667;"/><line style="stroke:#9803FC;stroke-width:3.125;stroke-dasharray:2.0,2.0;" x1="462.5" x2="1063.0208" y1="739.1276" y2="739.1276"/><polygon fill="#9803FC" points="1051.5625,784.9284,1061.9792,789.0951,1051.5625,793.2617,1055.7292,789.0951" style="stroke:#9803FC;stroke-width:1.0416666666666667;"/><line style="stroke:#9803FC;stroke-width:3.125;" x1="457.2917" x2="1057.8125" y1="789.0951" y2="789.0951"/><text fill="#222222" font-family="Verdana" font-size="12.5" lengthAdjust="spacing" textLength="158.3333" x="475" y="773.6471">setContext(this.context)</text><polygon fill="#9803FC" points="1051.5625,834.8958,1061.9792,839.0625,1051.5625,843.2292,1055.7292,839.0625" style="stroke:#9803FC;stroke-width:1.0416666666666667;"/><line style="stroke:#9803FC;stroke-width:3.125;" x1="457.2917" x2="1057.8125" y1="839.0625" y2="839.0625"/><text fill="#222222" font-family="Verdana" font-size="12.5" lengthAdjust="spacing" textLength="152.0833" x="475" y="823.6145">setArgs(tokenizedArgs)</text><polygon fill="#9803FC" points="183.3333,884.8633,172.9167,889.0299,183.3333,893.1966,179.1667,889.0299" style="stroke:#9803FC;stroke-width:1.0416666666666667;"/><line style="stroke:#9803FC;stroke-width:3.125;stroke-dasharray:2.0,2.0;" x1="177.0833" x2="451.0417" y1="889.0299" y2="889.0299"/><text fill="#222222" font-family="Verdana" font-size="12.5" lengthAdjust="spacing" textLength="129.1667" x="200" y="873.5819">Command instance.</text><polygon fill="#9803FC" points="1051.5625,934.8307,1061.9792,938.9974,1051.5625,943.1641,1055.7292,938.9974" style="stroke:#9803FC;stroke-width:1.0416666666666667;"/><line style="stroke:#9803FC;stroke-width:3.125;" x1="171.875" x2="1057.8125" y1="938.9974" y2="938.9974"/><text fill="#222222" font-family="Verdana" font-size="12.5" lengthAdjust="spacing" textLength="219.7917" x="189.5833" y="923.5494">setInputStream(this.inputStream)</text><polygon fill="#9803FC" points="1051.5625,984.7982,1061.9792,988.9648,1051.5625,993.1315,1055.7292,988.9648" style="stroke:#9803FC;stroke-width:1.0416666666666667;"/><line style="stroke:#9803FC;stroke-width:3.125;" x1="171.875" x2="1057.8125" y1="988.9648" y2="988.9648"/><text fill="#222222" font-family="Verdana" font-size="12.5" lengthAdjust="spacing" textLength="241.6667" x="189.5833" y="973.5168">setOutputStream(this.outputStream)</text><polygon fill="#9803FC" points="866.6667,1034.7656,877.0833,1038.9323,866.6667,1043.099,870.8333,1038.9323" style="stroke:#9803FC;stroke-width:1.0416666666666667;"/><line style="stroke:#9803FC;stroke-width:3.125;" x1="171.875" x2="872.9167" y1="1038.9323" y2="1038.9323"/><text fill="#222222" font-family="Verdana" font-size="12.5" lengthAdjust="spacing" textLength="195.8333" x="189.5833" y="1023.4843">createTask(currentCommand)</text><polygon fill="#9803FC" points="1051.5625,1084.7331,1061.9792,1088.8997,1051.5625,1093.0664,1055.7292,1088.8997" style="stroke:#9803FC;stroke-width:1.0416666666666667;"/><line style="stroke:#9803FC;stroke-width:3.125;" x1="884.375" x2="1057.8125" y1="1088.8997" y2="1088.8997"/><text fill="#222222" font-family="Verdana" font-size="12.5" lengthAdjust="spacing" textLength="62.5" x="902.0833" y="1073.4517">execute()</text><!--SRC=[bLHDZzCm4BtxLmpYaaZR28aBL5gaxg95I22GjaSkNcUQMad6mHwpko3-EtQQDXzjqoM791u_ptlpPf9NlCKQePQCLik5yLnfGY5SgQcHLjQmijOytfhAM7Zz_jsRjnirsBoHgYoiyPHtYBlsUkdnbM9ZRupDqSv2xWpnV8wfZYFOTsbPAzr8uhbi0zYyhY7meWb_1DpZJu-ay5C0DgTI_nMYwNF2hI5dAfp4wbfI7gWTsj7E5sDAtwpbm-J4MhhoL0eX5X_6wPPWiT2Eewmsd9JuV0MgaivTGOvEMTsmDfGAgLZ_2WCpqID6ImW40rLBq1IYV3vhZkVoPbdMwMqjMS8zMqq5g1qi6mhQcIQw5pYkiedFVOcgpl-Zd4ccjIcHz6_iTLnme43k05-HPIvPYi4-BAOKGiYAeUwmS7qDvAjA04neXjPqMq26OHD7Ccln0pSwu4Vjcae-0sybXzk-2j0EF9La7abWvH3YxPZoe3GmMepcAMCjAevjPXdc7BoBFRAugK8uTFW7HLsTLuUgiZxt2GFcU5rqanYVEE6jTfdQBT9BXrQsS0btlSlZAdsPfVlAekJpmpfnk-VzJ8tdCBaewvrWtGVIyyU-UPwSCuD8EY6Ct_iILDkI-9ue7zf2-xcBF0VXxRyX1E9pn8fFg3nZaeuBRV4O_nsZwblkVm00]--></g></svg>