<?xml version="1.0" encoding="us-ascii" standalone="no"?><svg xmlns="http://www.w3.org/2000/svg" xmlns:xlink="http://www.w3.org/1999/xlink" contentStyleType="text/css" height="1534.375px" preserveAspectRatio="none" style="width:1618px;height:1534px;background:#FFFFFF;" version="1.1" viewBox="0 0 1618 1534" width="1618.75px" zoomAndPan="magnify"><defs><filter height="300%" id="fxnwg0tetmzt5" width="300%" x="-1" y="-1"><feGaussianBlur result="blurOut" stdDeviation="2.0833333333333335"/><feColorMatrix in="blurOut" result="blurOut2" type="matrix" values="0 0 0 0 0 0 0 0 0 0 0 0 0 0 0 0 0 0 .4 0"/><feOffset dx="4.166666666666667" dy="4.166666666666667" in="blurOut2" result="blurOut3"/><feBlend in="SourceGraphic" in2="blurOut3" mode="normal"/></filter></defs><g><rect fill="none" filter="url(#fxnwg0tetmzt5)" height="1382.8328" style="stroke:#CCCCCC;stroke-width:1.0416666666666667;" width="10.4167" x="134.8958" y="75.6083"/><rect fill="none" filter="url(#fxnwg0tetmzt5)" height="14.5833" style="stroke:#CCCCCC;stroke-width:1.0416666666666667;" width="10.4167" x="516.1458" y="313.4583"/><rect fill="none" filter="url(#fxnwg0tetmzt5)" height="14.5833" style="stroke:#CCCCCC;stroke-width:1.0416666666666667;" width="10.4167" x="745.8333" y="117.8833"/><rect fill="none" filter="url(#fxnwg0tetmzt5)" height="14.5833" style="stroke:#CCCCCC;stroke-width:1.0416666666666667;" width="10.4167" x="958.3333" y="183.075"/><rect fill="none" filter="url(#fxnwg0tetmzt5)" height="14.5833" style="stroke:#CCCCCC;stroke-width:1.0416666666666667;" width="10.4167" x="1127.6042" y="248.2666"/><rect fill="none" filter="url(#fxnwg0tetmzt5)" height="14.5833" style="stroke:#CCCCCC;stroke-width:1.0416666666666667;" width="10.4167" x="1298.4375" y="641.6748"/><rect fill="none" filter="url(#fxnwg0tetmzt5)" height="50.6083" style="stroke:#CCCCCC;stroke-width:1.0416666666666667;" width="10.4167" x="1298.4375" y="1120.8496"/><rect fill="none" filter="url(#fxnwg0tetmzt5)" height="50.6083" style="stroke:#CCCCCC;stroke-width:1.0416666666666667;" width="10.4167" x="1477.6042" y="1222.0662"/><rect fill="none" filter="url(#fxnwg0tetmzt5)" height="197.8333" rx="4.1667" ry="4.1667" style="stroke:#9803FC;stroke-width:1.0416666666666667;" width="586.9792" x="41.6667" y="394.2749"/><rect fill="none" filter="url(#fxnwg0tetmzt5)" height="778.2247" rx="4.1667" ry="4.1667" style="stroke:#9803FC;stroke-width:1.0416666666666667;" width="1580.7292" x="20.8333" y="671.8831"/><rect fill="none" filter="url(#fxnwg0tetmzt5)" height="122.6583" rx="4.1667" ry="4.1667" style="stroke:#9803FC;stroke-width:1.0416666666666667;" width="577.0833" x="41.6667" y="817.0247"/><rect fill="none" filter="url(#fxnwg0tetmzt5)" height="488.5498" rx="4.1667" ry="4.1667" style="stroke:#9803FC;stroke-width:1.0416666666666667;" width="1559.8958" x="31.25" y="954.2664"/><rect fill="none" filter="url(#fxnwg0tetmzt5)" height="415.4582" rx="4.1667" ry="4.1667" style="stroke:#9803FC;stroke-width:1.0416666666666667;" width="1539.0625" x="41.6667" y="1020.0663"/><line style="stroke:#CCCCCC;stroke-width:1.0416666666666667;stroke-dasharray:5.0,5.0;" x1="139.5833" x2="139.5833" y1="65.1917" y2="1467.8162"/><line style="stroke:#CCCCCC;stroke-width:1.0416666666666667;stroke-dasharray:5.0,5.0;" x1="521.3542" x2="521.3542" y1="65.1917" y2="1467.8162"/><line style="stroke:#CCCCCC;stroke-width:1.0416666666666667;stroke-dasharray:5.0,5.0;" x1="750.5208" x2="750.5208" y1="65.1917" y2="1467.8162"/><line style="stroke:#CCCCCC;stroke-width:1.0416666666666667;stroke-dasharray:5.0,5.0;" x1="963.0208" x2="963.0208" y1="65.1917" y2="1467.8162"/><line style="stroke:#CCCCCC;stroke-width:1.0416666666666667;stroke-dasharray:5.0,5.0;" x1="1132.8125" x2="1132.8125" y1="65.1917" y2="1467.8162"/><line style="stroke:#CCCCCC;stroke-width:1.0416666666666667;stroke-dasharray:5.0,5.0;" x1="1303.6458" x2="1303.6458" y1="65.1917" y2="1467.8162"/><line style="stroke:#CCCCCC;stroke-width:1.0416666666666667;stroke-dasharray:5.0,5.0;" x1="1482.8125" x2="1482.8125" y1="65.1917" y2="1467.8162"/><rect fill="#FFFFFF" filter="url(#fxnwg0tetmzt5)" height="50.6083" rx="4.1667" ry="4.1667" style="stroke:#9803FC;stroke-width:1.0416666666666667;" width="89.5833" x="93.75" y="10.4167"/><text fill="#9803FC" font-family="Verdana" font-size="12.5" lengthAdjust="spacing" textLength="54.1667" x="111.4583" y="40.6921">CmdUse</text><rect fill="#FFFFFF" filter="url(#fxnwg0tetmzt5)" height="50.6083" rx="4.1667" ry="4.1667" style="stroke:#9803FC;stroke-width:1.0416666666666667;" width="89.5833" x="93.75" y="1466.7745"/><text fill="#9803FC" font-family="Verdana" font-size="12.5" lengthAdjust="spacing" textLength="54.1667" x="111.4583" y="1497.05">CmdUse</text><rect fill="#FFFFFF" filter="url(#fxnwg0tetmzt5)" height="50.6083" rx="4.1667" ry="4.1667" style="stroke:#9803FC;stroke-width:1.0416666666666667;" width="107.2917" x="466.1458" y="10.4167"/><text fill="#9803FC" font-family="Verdana" font-size="12.5" lengthAdjust="spacing" textLength="71.875" x="483.8542" y="40.6921">I/O Stream</text><rect fill="#FFFFFF" filter="url(#fxnwg0tetmzt5)" height="50.6083" rx="4.1667" ry="4.1667" style="stroke:#9803FC;stroke-width:1.0416666666666667;" width="107.2917" x="466.1458" y="1466.7745"/><text fill="#9803FC" font-family="Verdana" font-size="12.5" lengthAdjust="spacing" textLength="71.875" x="483.8542" y="1497.05">I/O Stream</text><rect fill="#FFFFFF" filter="url(#fxnwg0tetmzt5)" height="50.6083" rx="4.1667" ry="4.1667" style="stroke:#9803FC;stroke-width:1.0416666666666667;" width="158.3333" x="670.3125" y="10.4167"/><text fill="#9803FC" font-family="Verdana" font-size="12.5" lengthAdjust="spacing" textLength="122.9167" x="688.0208" y="40.6921">ApplicationContext</text><rect fill="#FFFFFF" filter="url(#fxnwg0tetmzt5)" height="50.6083" rx="4.1667" ry="4.1667" style="stroke:#9803FC;stroke-width:1.0416666666666667;" width="158.3333" x="670.3125" y="1466.7745"/><text fill="#9803FC" font-family="Verdana" font-size="12.5" lengthAdjust="spacing" textLength="122.9167" x="688.0208" y="1497.05">ApplicationContext</text><rect fill="#FFFFFF" filter="url(#fxnwg0tetmzt5)" height="50.6083" rx="4.1667" ry="4.1667" style="stroke:#9803FC;stroke-width:1.0416666666666667;" width="72.9167" x="925.5208" y="10.4167"/><text fill="#9803FC" font-family="Verdana" font-size="12.5" lengthAdjust="spacing" textLength="37.5" x="943.2292" y="40.6921">Game</text><rect fill="#FFFFFF" filter="url(#fxnwg0tetmzt5)" height="50.6083" rx="4.1667" ry="4.1667" style="stroke:#9803FC;stroke-width:1.0416666666666667;" width="72.9167" x="925.5208" y="1466.7745"/><text fill="#9803FC" font-family="Verdana" font-size="12.5" lengthAdjust="spacing" textLength="37.5" x="943.2292" y="1497.05">Game</text><rect fill="#FFFFFF" filter="url(#fxnwg0tetmzt5)" height="50.6083" rx="4.1667" ry="4.1667" style="stroke:#9803FC;stroke-width:1.0416666666666667;" width="71.875" x="1095.3125" y="10.4167"/><text fill="#9803FC" font-family="Verdana" font-size="12.5" lengthAdjust="spacing" textLength="36.4583" x="1113.0208" y="40.6921">Room</text><rect fill="#FFFFFF" filter="url(#fxnwg0tetmzt5)" height="50.6083" rx="4.1667" ry="4.1667" style="stroke:#9803FC;stroke-width:1.0416666666666667;" width="71.875" x="1095.3125" y="1466.7745"/><text fill="#9803FC" font-family="Verdana" font-size="12.5" lengthAdjust="spacing" textLength="36.4583" x="1113.0208" y="1497.05">Room</text><rect fill="#FFFFFF" filter="url(#fxnwg0tetmzt5)" height="50.6083" rx="4.1667" ry="4.1667" style="stroke:#9803FC;stroke-width:1.0416666666666667;" width="76.0417" x="1264.0625" y="10.4167"/><text fill="#9803FC" font-family="Verdana" font-size="12.5" lengthAdjust="spacing" textLength="40.625" x="1281.7708" y="40.6921">Player</text><rect fill="#FFFFFF" filter="url(#fxnwg0tetmzt5)" height="50.6083" rx="4.1667" ry="4.1667" style="stroke:#9803FC;stroke-width:1.0416666666666667;" width="76.0417" x="1264.0625" y="1466.7745"/><text fill="#9803FC" font-family="Verdana" font-size="12.5" lengthAdjust="spacing" textLength="40.625" x="1281.7708" y="1497.05">Player</text><rect fill="#FFFFFF" filter="url(#fxnwg0tetmzt5)" height="50.6083" rx="4.1667" ry="4.1667" style="stroke:#9803FC;stroke-width:1.0416666666666667;" width="88.5417" x="1436.9792" y="10.4167"/><text fill="#9803FC" font-family="Verdana" font-size="12.5" lengthAdjust="spacing" textLength="53.125" x="1454.6875" y="40.6921">Monster</text><rect fill="#FFFFFF" filter="url(#fxnwg0tetmzt5)" height="50.6083" rx="4.1667" ry="4.1667" style="stroke:#9803FC;stroke-width:1.0416666666666667;" width="88.5417" x="1436.9792" y="1466.7745"/><text fill="#9803FC" font-family="Verdana" font-size="12.5" lengthAdjust="spacing" textLength="53.125" x="1454.6875" y="1497.05">Monster</text><rect fill="none" filter="url(#fxnwg0tetmzt5)" height="1382.8328" style="stroke:#CCCCCC;stroke-width:1.0416666666666667;" width="10.4167" x="134.8958" y="75.6083"/><rect fill="none" filter="url(#fxnwg0tetmzt5)" height="14.5833" style="stroke:#CCCCCC;stroke-width:1.0416666666666667;" width="10.4167" x="516.1458" y="313.4583"/><rect fill="none" filter="url(#fxnwg0tetmzt5)" height="14.5833" style="stroke:#CCCCCC;stroke-width:1.0416666666666667;" width="10.4167" x="745.8333" y="117.8833"/><rect fill="none" filter="url(#fxnwg0tetmzt5)" height="14.5833" style="stroke:#CCCCCC;stroke-width:1.0416666666666667;" width="10.4167" x="958.3333" y="183.075"/><rect fill="none" filter="url(#fxnwg0tetmzt5)" height="14.5833" style="stroke:#CCCCCC;stroke-width:1.0416666666666667;" width="10.4167" x="1127.6042" y="248.2666"/><rect fill="none" filter="url(#fxnwg0tetmzt5)" height="14.5833" style="stroke:#CCCCCC;stroke-width:1.0416666666666667;" width="10.4167" x="1298.4375" y="641.6748"/><rect fill="none" filter="url(#fxnwg0tetmzt5)" height="50.6083" style="stroke:#CCCCCC;stroke-width:1.0416666666666667;" width="10.4167" x="1298.4375" y="1120.8496"/><rect fill="none" filter="url(#fxnwg0tetmzt5)" height="50.6083" style="stroke:#CCCCCC;stroke-width:1.0416666666666667;" width="10.4167" x="1477.6042" y="1222.0662"/><polygon fill="#9803FC" points="733.3333,113.7166,743.75,117.8833,733.3333,122.05,737.5,117.8833" style="stroke:#9803FC;stroke-width:1.0416666666666667;"/><line style="stroke:#9803FC;stroke-width:3.125;" x1="145.3125" x2="739.5833" y1="117.8833" y2="117.8833"/><text fill="#222222" font-family="Verdana" font-size="12.5" lengthAdjust="spacing" textLength="69.7917" x="163.0208" y="102.7588">getGame()</text><polygon fill="#9803FC" points="156.7708,128.3,146.3542,132.4666,156.7708,136.6333,152.6042,132.4666" style="stroke:#9803FC;stroke-width:1.0416666666666667;"/><line style="stroke:#9803FC;stroke-width:3.125;stroke-dasharray:2.0,2.0;" x1="150.5208" x2="750" y1="132.4666" y2="132.4666"/><polygon fill="#9803FC" points="945.8333,178.9083,956.25,183.075,945.8333,187.2416,950,183.075" style="stroke:#9803FC;stroke-width:1.0416666666666667;"/><line style="stroke:#9803FC;stroke-width:3.125;" x1="145.3125" x2="952.0833" y1="183.075" y2="183.075"/><text fill="#222222" font-family="Verdana" font-size="12.5" lengthAdjust="spacing" textLength="197.9167" x="163.0208" y="167.9504">getCurrentNode(), getPlayer()</text><polygon fill="#9803FC" points="156.7708,193.4916,146.3542,197.6583,156.7708,201.825,152.6042,197.6583" style="stroke:#9803FC;stroke-width:1.0416666666666667;"/><line style="stroke:#9803FC;stroke-width:3.125;stroke-dasharray:2.0,2.0;" x1="150.5208" x2="962.5" y1="197.6583" y2="197.6583"/><polygon fill="#9803FC" points="1115.1042,244.0999,1125.5208,248.2666,1115.1042,252.4333,1119.2708,248.2666" style="stroke:#9803FC;stroke-width:1.0416666666666667;"/><line style="stroke:#9803FC;stroke-width:3.125;" x1="145.3125" x2="1121.3542" y1="248.2666" y2="248.2666"/><text fill="#222222" font-family="Verdana" font-size="12.5" lengthAdjust="spacing" textLength="85.4167" x="163.0208" y="233.1421">getMonster()</text><polygon fill="#9803FC" points="156.7708,258.6833,146.3542,262.8499,156.7708,267.0166,152.6042,262.8499" style="stroke:#9803FC;stroke-width:1.0416666666666667;"/><line style="stroke:#9803FC;stroke-width:3.125;stroke-dasharray:2.0,2.0;" x1="150.5208" x2="1131.7708" y1="262.8499" y2="262.8499"/><polygon fill="#9803FC" points="503.6458,309.2916,514.0625,313.4583,503.6458,317.6249,507.8125,313.4583" style="stroke:#9803FC;stroke-width:1.0416666666666667;"/><line style="stroke:#9803FC;stroke-width:3.125;" x1="145.3125" x2="509.8958" y1="313.4583" y2="313.4583"/><text fill="#222222" font-family="Verdana" font-size="12.5" lengthAdjust="spacing" textLength="172.9167" x="163.0208" y="298.3337">Ask the which item to use.</text><polygon fill="#9803FC" points="156.7708,323.8749,146.3542,328.0416,156.7708,332.2083,152.6042,328.0416" style="stroke:#9803FC;stroke-width:1.0416666666666667;"/><line style="stroke:#9803FC;stroke-width:3.125;stroke-dasharray:2.0,2.0;" x1="150.5208" x2="520.3125" y1="328.0416" y2="328.0416"/><polygon fill="#9803FC" points="1291.1458,374.4832,1301.5625,378.6499,1291.1458,382.8166,1295.3125,378.6499" style="stroke:#9803FC;stroke-width:1.0416666666666667;"/><line style="stroke:#9803FC;stroke-width:3.125;" x1="145.3125" x2="1297.3958" y1="378.6499" y2="378.6499"/><text fill="#222222" font-family="Verdana" font-size="12.5" lengthAdjust="spacing" textLength="332.2917" x="163.0208" y="363.5254">Use item with the name inserted received from I/O</text><path d="M45.8333,394.2749 L148.9583,394.2749 L148.9583,421.9666 L138.5417,432.3832 L41.6667,432.3832 L41.6667,398.4416 A4.1667,4.1667 0 0 1 45.8333,394.2749 " fill="#FFFFFF" style="stroke:#9803FC;stroke-width:1.0416666666666667;"/><rect fill="none" height="197.8333" rx="4.1667" ry="4.1667" style="stroke:#9803FC;stroke-width:1.0416666666666667;" width="586.9792" x="41.6667" y="394.2749"/><text fill="#9C27B0" font-family="Verdana" font-size="12.5" font-weight="bold" lengthAdjust="spacing" textLength="39.5833" x="67.7083" y="418.3004">break</text><text fill="#222222" font-family="Verdana" font-size="12.5" font-weight="bold" lengthAdjust="spacing" textLength="137.5" x="175" y="419.342">[Item is not Usable]</text><polygon fill="#9803FC" points="508.8542,490.8915,519.2708,495.0582,508.8542,499.2249,513.0208,495.0582" style="stroke:#9803FC;stroke-width:1.0416666666666667;"/><line style="stroke:#9803FC;stroke-width:3.125;" x1="145.3125" x2="515.1042" y1="495.0582" y2="495.0582"/><text fill="#222222" font-family="Verdana" font-size="12.5" lengthAdjust="spacing" textLength="108.3333" x="163.0208" y="479.9337">Item not usable.</text><line style="stroke:#9803FC;stroke-width:1.0416666666666667;stroke-dasharray:2.0,2.0;" x1="41.6667" x2="628.6458" y1="504.4332" y2="504.4332"/><text fill="#222222" font-family="Verdana" font-size="12.5" font-weight="bold" lengthAdjust="spacing" textLength="145.8333" x="57.2917" y="527.417">[Item was not found]</text><polygon fill="#9803FC" points="508.8542,579.6082,519.2708,583.7748,508.8542,587.9415,513.0208,583.7748" style="stroke:#9803FC;stroke-width:1.0416666666666667;"/><line style="stroke:#9803FC;stroke-width:3.125;" x1="145.3125" x2="515.1042" y1="583.7748" y2="583.7748"/><text fill="#222222" font-family="Verdana" font-size="12.5" lengthAdjust="spacing" textLength="102.0833" x="163.0208" y="568.6503">Item not found.</text><polygon fill="#9803FC" points="1285.9375,637.5081,1296.3542,641.6748,1285.9375,645.8415,1290.1042,641.6748" style="stroke:#9803FC;stroke-width:1.0416666666666667;"/><line style="stroke:#9803FC;stroke-width:3.125;" x1="145.3125" x2="1292.1875" y1="641.6748" y2="641.6748"/><text fill="#222222" font-family="Verdana" font-size="12.5" lengthAdjust="spacing" textLength="72.9167" x="163.0208" y="626.5503">isFighting()</text><polygon fill="#9803FC" points="156.7708,652.0915,146.3542,656.2581,156.7708,660.4248,152.6042,656.2581" style="stroke:#9803FC;stroke-width:1.0416666666666667;"/><line style="stroke:#9803FC;stroke-width:3.125;stroke-dasharray:2.0,2.0;" x1="150.5208" x2="1302.6042" y1="656.2581" y2="656.2581"/><path d="M25,671.8831 L110.4167,671.8831 L110.4167,699.5748 L100,709.9915 L20.8333,709.9915 L20.8333,676.0498 A4.1667,4.1667 0 0 1 25,671.8831 " fill="#FFFFFF" style="stroke:#9803FC;stroke-width:1.0416666666666667;"/><rect fill="none" height="778.2247" rx="4.1667" ry="4.1667" style="stroke:#9803FC;stroke-width:1.0416666666666667;" width="1580.7292" x="20.8333" y="671.8831"/><text fill="#9C27B0" font-family="Verdana" font-size="12.5" font-weight="bold" lengthAdjust="spacing" textLength="21.875" x="46.875" y="695.9086">opt</text><text fill="#222222" font-family="Verdana" font-size="12.5" font-weight="bold" lengthAdjust="spacing" textLength="529.1667" x="136.4583" y="696.9503">[currentNode instanceof Room and monster != null and player is not fighting]</text><line style="stroke:#9803FC;stroke-width:3.125;" x1="145.3125" x2="189.0625" y1="787.8581" y2="787.8581"/><line style="stroke:#9803FC;stroke-width:3.125;" x1="189.0625" x2="189.0625" y1="787.8581" y2="801.3997"/><line style="stroke:#9803FC;stroke-width:3.125;" x1="146.3542" x2="189.0625" y1="801.3997" y2="801.3997"/><polygon fill="#9803FC" points="156.7708,797.2331,146.3542,801.3997,156.7708,805.5664,152.6042,801.3997" style="stroke:#9803FC;stroke-width:1.0416666666666667;"/><text fill="#222222" font-family="Verdana" font-size="12.5" lengthAdjust="spacing" textLength="335.4167" x="163.0208" y="757.5419">Compute monsterMove with a weighted probability</text><text fill="#222222" font-family="Verdana" font-size="12.5" lengthAdjust="spacing" textLength="191.6667" x="163.0208" y="772.7336">between DODGE and ATTACK</text><path d="M45.8333,817.0247 L131.25,817.0247 L131.25,844.7164 L120.8333,855.1331 L41.6667,855.1331 L41.6667,821.1914 A4.1667,4.1667 0 0 1 45.8333,817.0247 " fill="#FFFFFF" style="stroke:#9803FC;stroke-width:1.0416666666666667;"/><rect fill="none" height="122.6583" rx="4.1667" ry="4.1667" style="stroke:#9803FC;stroke-width:1.0416666666666667;" width="577.0833" x="41.6667" y="817.0247"/><text fill="#9C27B0" font-family="Verdana" font-size="12.5" font-weight="bold" lengthAdjust="spacing" textLength="21.875" x="67.7083" y="841.0502">opt</text><text fill="#222222" font-family="Verdana" font-size="12.5" font-weight="bold" lengthAdjust="spacing" textLength="445.8333" x="157.2917" y="842.0919">[monsterMove = DODGE and monster does not have 'dodge' left]</text><line style="stroke:#9803FC;stroke-width:3.125;" x1="145.3125" x2="189.0625" y1="917.808" y2="917.808"/><line style="stroke:#9803FC;stroke-width:3.125;" x1="189.0625" x2="189.0625" y1="917.808" y2="931.3497"/><line style="stroke:#9803FC;stroke-width:3.125;" x1="146.3542" x2="189.0625" y1="931.3497" y2="931.3497"/><polygon fill="#9803FC" points="156.7708,927.183,146.3542,931.3497,156.7708,935.5164,152.6042,931.3497" style="stroke:#9803FC;stroke-width:1.0416666666666667;"/><text fill="#222222" font-family="Verdana" font-size="12.5" lengthAdjust="spacing" textLength="155.2083" x="163.0208" y="902.6835">monsterMove = ATTACK</text><path d="M35.4167,954.2664 L120.8333,954.2664 L120.8333,981.958 L110.4167,992.3747 L31.25,992.3747 L31.25,958.433 A4.1667,4.1667 0 0 1 35.4167,954.2664 " fill="#FFFFFF" style="stroke:#9803FC;stroke-width:1.0416666666666667;"/><rect fill="none" height="488.5498" rx="4.1667" ry="4.1667" style="stroke:#9803FC;stroke-width:1.0416666666666667;" width="1559.8958" x="31.25" y="954.2664"/><text fill="#9C27B0" font-family="Verdana" font-size="12.5" font-weight="bold" lengthAdjust="spacing" textLength="21.875" x="57.2917" y="978.2918">opt</text><text fill="#222222" font-family="Verdana" font-size="12.5" font-weight="bold" lengthAdjust="spacing" textLength="121.875" x="146.875" y="979.3335">[monster is alive]</text><path d="M45.8333,1020.0663 L127.0833,1020.0663 L127.0833,1047.758 L116.6667,1058.1746 L41.6667,1058.1746 L41.6667,1024.233 A4.1667,4.1667 0 0 1 45.8333,1020.0663 " fill="#FFFFFF" style="stroke:#9803FC;stroke-width:1.0416666666666667;"/><rect fill="none" height="415.4582" rx="4.1667" ry="4.1667" style="stroke:#9803FC;stroke-width:1.0416666666666667;" width="1539.0625" x="41.6667" y="1020.0663"/><text fill="#9C27B0" font-family="Verdana" font-size="12.5" font-weight="bold" lengthAdjust="spacing" textLength="17.7083" x="67.7083" y="1044.0918">alt</text><text fill="#222222" font-family="Verdana" font-size="12.5" font-weight="bold" lengthAdjust="spacing" textLength="178.125" x="153.125" y="1045.1335">[monsterMove = ATTACK]</text><polygon fill="#9803FC" points="1285.9375,1116.6829,1296.3542,1120.8496,1285.9375,1125.0163,1290.1042,1120.8496" style="stroke:#9803FC;stroke-width:1.0416666666666667;"/><line style="stroke:#9803FC;stroke-width:3.125;" x1="145.3125" x2="1292.1875" y1="1120.8496" y2="1120.8496"/><text fill="#222222" font-family="Verdana" font-size="12.5" lengthAdjust="spacing" textLength="127.0833" x="163.0208" y="1105.7251">getAttackDamage()</text><polygon fill="#9803FC" points="156.7708,1167.2913,146.3542,1171.4579,156.7708,1175.6246,152.6042,1171.4579" style="stroke:#9803FC;stroke-width:1.0416666666666667;"/><line style="stroke:#9803FC;stroke-width:3.125;stroke-dasharray:2.0,2.0;" x1="150.5208" x2="1302.6042" y1="1171.4579" y2="1171.4579"/><text fill="#222222" font-family="Verdana" font-size="12.5" lengthAdjust="spacing" textLength="244.7917" x="173.4375" y="1156.3334">Returns attack damage of the player.</text><polygon fill="#9803FC" points="1465.1042,1217.8996,1475.5208,1222.0662,1465.1042,1226.2329,1469.2708,1222.0662" style="stroke:#9803FC;stroke-width:1.0416666666666667;"/><line style="stroke:#9803FC;stroke-width:3.125;" x1="145.3125" x2="1471.3542" y1="1222.0662" y2="1222.0662"/><text fill="#222222" font-family="Verdana" font-size="12.5" lengthAdjust="spacing" textLength="162.5" x="163.0208" y="1206.9417">hit(playerAttackDamage)</text><polygon fill="#9803FC" points="156.7708,1268.5079,146.3542,1272.6746,156.7708,1276.8412,152.6042,1272.6746" style="stroke:#9803FC;stroke-width:1.0416666666666667;"/><line style="stroke:#9803FC;stroke-width:3.125;stroke-dasharray:2.0,2.0;" x1="150.5208" x2="1481.7708" y1="1272.6746" y2="1272.6746"/><text fill="#222222" font-family="Verdana" font-size="12.5" lengthAdjust="spacing" textLength="211.4583" x="173.4375" y="1257.55">Returns inflicted attack damage.</text><polygon fill="#9803FC" points="508.8542,1334.3079,519.2708,1338.4745,508.8542,1342.6412,513.0208,1338.4745" style="stroke:#9803FC;stroke-width:1.0416666666666667;"/><line style="stroke:#9803FC;stroke-width:3.125;" x1="145.3125" x2="515.1042" y1="1338.4745" y2="1338.4745"/><text fill="#222222" font-family="Verdana" font-size="12.5" lengthAdjust="spacing" textLength="281.25" x="163.0208" y="1308.1584">Notify that the player dodged the incoming</text><text fill="#222222" font-family="Verdana" font-size="12.5" lengthAdjust="spacing" textLength="179.1667" x="163.0208" y="1323.35">attack and hit the monster.</text><line style="stroke:#9803FC;stroke-width:1.0416666666666667;stroke-dasharray:2.0,2.0;" x1="41.6667" x2="1580.7292" y1="1347.8495" y2="1347.8495"/><text fill="#222222" font-family="Verdana" font-size="12.5" font-weight="bold" lengthAdjust="spacing" textLength="40.625" x="57.2917" y="1370.8333">[else]</text><polygon fill="#9803FC" points="508.8542,1423.0245,519.2708,1427.1912,508.8542,1431.3578,513.0208,1427.1912" style="stroke:#9803FC;stroke-width:1.0416666666666667;"/><line style="stroke:#9803FC;stroke-width:3.125;" x1="145.3125" x2="515.1042" y1="1427.1912" y2="1427.1912"/><text fill="#222222" font-family="Verdana" font-size="12.5" lengthAdjust="spacing" textLength="185.4167" x="163.0208" y="1412.0667">Notify thar monster dodged.</text><!--SRC=[bLHDRzim3BthLx3TeHsoP0DssG9qG9gkHJ7q0srtwqMnwKI8BNaotQmOzjz7okuY9qxM-P1OrEDxZoBb0rfWWL1eGc_qqDMK6ujALKjZI-rr0HFltMhgSkVXpUTF7pvcIRHvgfFbtBlQfYtYF3olJPyavFofyodwlP1pPsa_nwQFBTYjzcGIKsfB-zWYs7vVCV2VX_1BmJt-gD4cUC70ie_wjrAgN9F2j4Y_LzW97Lw-lu5xygYBmyx6f2npasWopawvEFn9dUqBNNI9xfmhEe7RN3-ZxuIkdAruA9HgZ0m6Bsym_D8ZE1YCOOuaKiTlrVO-33cjhMbxTpYCsOMavPlMtgEbQvSoxJk9D5PPGr0ngwoxF59cozDMmsaIZDDatKsBZtaCase9V4bWjJ390WnX0UIWhd2aT4BcYMzEjp7n8XPAiHyVAJUrZK6MGMbbQ17KhHHhR8MUC0MF2PedViay5yDaIisOR0cNacGgi8wOHCzoLC3Fhje2NB1rm8uKvWmBqPLkM3APwzUH12XpC7wh9cc3gSxDV476phaDJJW-doOYhN0bGR9klDHDck-Eoq9BGTiKYgQXS702jixp42iRphR-h1NRCD-yZM7gYhBcNhH4L-u9c-FMi499vUCjlPlfcSaDFJ_Q6T8AqSBPpTd5rw0tUNYOJB-f822UOwgJ2FVYDNNOM5jeHXobBftZ4UIOKQ3eymdZ3TPMKx3Xe3UqfNYTyspyPTGvxQRObbstYs_DX8Y_RMUwq7EvrN76Ll_6S8TKUylw8GlIa0RSD1dWfZUZ7WxfUB-NzjAAcOMXuuOYzjIrrC9xFHcRyIT7UjfnD-eZs6seE_ZNZapspDLfYag4qDOqH8nDNC4Z-6XRLPa6BYLijaqPhSN2xPEV_vJtqOI9zhegRE-k_8TnuUSF]--></g></svg>