<?xml version="1.0" encoding="us-ascii" standalone="no"?><svg xmlns="http://www.w3.org/2000/svg" xmlns:xlink="http://www.w3.org/1999/xlink" contentStyleType="text/css" height="1194.7917px" preserveAspectRatio="none" style="width:1186px;height:1194px;background:#FFFFFF;" version="1.1" viewBox="0 0 1186 1194" width="1186.4583px" zoomAndPan="magnify"><defs><filter height="300%" id="futn2xmt6a0o9" width="300%" x="-1" y="-1"><feGaussianBlur result="blurOut" stdDeviation="2.0833333333333335"/><feColorMatrix in="blurOut" result="blurOut2" type="matrix" values="0 0 0 0 0 0 0 0 0 0 0 0 0 0 0 0 0 0 .4 0"/><feOffset dx="4.166666666666667" dy="4.166666666666667" in="blurOut2" result="blurOut3"/><feBlend in="SourceGraphic" in2="blurOut3" mode="normal"/></filter></defs><g><rect fill="none" filter="url(#futn2xmt6a0o9)" height="848.8831" style="stroke:#CCCCCC;stroke-width:1.0416666666666667;" width="10.4167" x="160.4167" y="269.0999"/><rect fill="none" filter="url(#futn2xmt6a0o9)" height="50.6083" style="stroke:#CCCCCC;stroke-width:1.0416666666666667;" width="10.4167" x="447.9167" y="117.8833"/><rect fill="none" filter="url(#futn2xmt6a0o9)" height="565.6331" style="stroke:#CCCCCC;stroke-width:1.0416666666666667;" width="10.4167" x="447.9167" y="319.7083"/><rect fill="none" filter="url(#futn2xmt6a0o9)" height="54.775" style="stroke:#CCCCCC;stroke-width:1.0416666666666667;" width="10.4167" x="879.6875" y="1047.583"/><rect fill="none" filter="url(#futn2xmt6a0o9)" height="646.0164" rx="4.1667" ry="4.1667" style="stroke:#9803FC;stroke-width:1.0416666666666667;" width="1101.5625" x="67.7083" y="464.6749"/><line style="stroke:#CCCCCC;stroke-width:1.0416666666666667;stroke-dasharray:5.0,5.0;" x1="165.625" x2="165.625" y1="65.1917" y2="176.825"/><line style="stroke:#CCCCCC;stroke-width:1.0416666666666667;stroke-dasharray:1.0,4.0;" x1="165.625" x2="165.625" y1="176.825" y2="226.825"/><line style="stroke:#CCCCCC;stroke-width:1.0416666666666667;stroke-dasharray:5.0,5.0;" x1="165.625" x2="165.625" y1="226.825" y2="1128.3997"/><line style="stroke:#CCCCCC;stroke-width:1.0416666666666667;stroke-dasharray:5.0,5.0;" x1="452.6042" x2="452.6042" y1="65.1917" y2="176.825"/><line style="stroke:#CCCCCC;stroke-width:1.0416666666666667;stroke-dasharray:1.0,4.0;" x1="452.6042" x2="452.6042" y1="176.825" y2="226.825"/><line style="stroke:#CCCCCC;stroke-width:1.0416666666666667;stroke-dasharray:5.0,5.0;" x1="452.6042" x2="452.6042" y1="226.825" y2="1128.3997"/><line style="stroke:#CCCCCC;stroke-width:1.0416666666666667;stroke-dasharray:5.0,5.0;" x1="695.3125" x2="695.3125" y1="65.1917" y2="176.825"/><line style="stroke:#CCCCCC;stroke-width:1.0416666666666667;stroke-dasharray:1.0,4.0;" x1="695.3125" x2="695.3125" y1="176.825" y2="226.825"/><line style="stroke:#CCCCCC;stroke-width:1.0416666666666667;stroke-dasharray:5.0,5.0;" x1="695.3125" x2="695.3125" y1="226.825" y2="1128.3997"/><line style="stroke:#CCCCCC;stroke-width:1.0416666666666667;stroke-dasharray:5.0,5.0;" x1="884.8958" x2="884.8958" y1="1037.9038" y2="1128.3997"/><line style="stroke:#CCCCCC;stroke-width:1.0416666666666667;stroke-dasharray:5.0,5.0;" x1="1065.1042" x2="1065.1042" y1="719.3665" y2="1128.3997"/><rect fill="#FFFFFF" filter="url(#futn2xmt6a0o9)" height="50.6083" rx="4.1667" ry="4.1667" style="stroke:#9803FC;stroke-width:1.0416666666666667;" width="88.5417" x="119.7917" y="10.4167"/><text fill="#9803FC" font-family="Verdana" font-size="12.5" lengthAdjust="spacing" textLength="53.125" x="137.5" y="40.6921">Console</text><rect fill="#FFFFFF" filter="url(#futn2xmt6a0o9)" height="50.6083" rx="4.1667" ry="4.1667" style="stroke:#9803FC;stroke-width:1.0416666666666667;" width="88.5417" x="119.7917" y="1127.358"/><text fill="#9803FC" font-family="Verdana" font-size="12.5" lengthAdjust="spacing" textLength="53.125" x="137.5" y="1157.6335">Console</text><rect fill="#FFFFFF" filter="url(#futn2xmt6a0o9)" height="50.6083" rx="4.1667" ry="4.1667" style="stroke:#9803FC;stroke-width:1.0416666666666667;" width="143.75" x="379.6875" y="10.4167"/><text fill="#9803FC" font-family="Verdana" font-size="12.5" lengthAdjust="spacing" textLength="108.3333" x="397.3958" y="40.6921">CommandParser</text><rect fill="#FFFFFF" filter="url(#futn2xmt6a0o9)" height="50.6083" rx="4.1667" ry="4.1667" style="stroke:#9803FC;stroke-width:1.0416666666666667;" width="143.75" x="379.6875" y="1127.358"/><text fill="#9803FC" font-family="Verdana" font-size="12.5" lengthAdjust="spacing" textLength="108.3333" x="397.3958" y="1157.6335">CommandParser</text><rect fill="#FFFFFF" filter="url(#futn2xmt6a0o9)" height="50.6083" rx="4.1667" ry="4.1667" style="stroke:#9803FC;stroke-width:1.0416666666666667;" width="118.75" x="634.8958" y="10.4167"/><text fill="#9803FC" font-family="Verdana" font-size="12.5" lengthAdjust="spacing" textLength="83.3333" x="652.6042" y="40.6921">LookupTable</text><rect fill="#FFFFFF" filter="url(#futn2xmt6a0o9)" height="50.6083" rx="4.1667" ry="4.1667" style="stroke:#9803FC;stroke-width:1.0416666666666667;" width="118.75" x="634.8958" y="1127.358"/><text fill="#9803FC" font-family="Verdana" font-size="12.5" lengthAdjust="spacing" textLength="83.3333" x="652.6042" y="1157.6335">LookupTable</text><rect fill="#FFFFFF" filter="url(#futn2xmt6a0o9)" height="50.6083" rx="4.1667" ry="4.1667" style="stroke:#9803FC;stroke-width:1.0416666666666667;" width="65.625" x="850.5208" y="1127.358"/><text fill="#9803FC" font-family="Verdana" font-size="12.5" lengthAdjust="spacing" textLength="30.2083" x="868.2292" y="1157.6335">Task</text><rect fill="#FFFFFF" filter="url(#futn2xmt6a0o9)" height="50.6083" rx="4.1667" ry="4.1667" style="stroke:#9803FC;stroke-width:1.0416666666666667;" width="101.0417" x="1013.0208" y="1127.358"/><text fill="#9803FC" font-family="Verdana" font-size="12.5" lengthAdjust="spacing" textLength="65.625" x="1030.7292" y="1157.6335">Command</text><rect fill="none" filter="url(#futn2xmt6a0o9)" height="848.8831" style="stroke:#CCCCCC;stroke-width:1.0416666666666667;" width="10.4167" x="160.4167" y="269.0999"/><rect fill="none" filter="url(#futn2xmt6a0o9)" height="50.6083" style="stroke:#CCCCCC;stroke-width:1.0416666666666667;" width="10.4167" x="447.9167" y="117.8833"/><rect fill="none" filter="url(#futn2xmt6a0o9)" height="565.6331" style="stroke:#CCCCCC;stroke-width:1.0416666666666667;" width="10.4167" x="447.9167" y="319.7083"/><rect fill="none" filter="url(#futn2xmt6a0o9)" height="54.775" style="stroke:#CCCCCC;stroke-width:1.0416666666666667;" width="10.4167" x="879.6875" y="1047.583"/><polygon fill="#9803FC" points="435.4167,113.7166,445.8333,117.8833,435.4167,122.05,439.5833,117.8833" style="stroke:#9803FC;stroke-width:1.0416666666666667;"/><line style="stroke:#9803FC;stroke-width:3.125;" x1="10.4167" x2="441.6667" y1="117.8833" y2="117.8833"/><text fill="#222222" font-family="Verdana" font-size="12.5" lengthAdjust="spacing" textLength="270.8333" x="28.125" y="102.7588">registerCommand(key, class, description)</text><polygon fill="#9803FC" points="683.3333,164.325,693.75,168.4916,683.3333,172.6583,687.5,168.4916" style="stroke:#9803FC;stroke-width:1.0416666666666667;"/><line style="stroke:#9803FC;stroke-width:3.125;" x1="453.125" x2="689.5833" y1="168.4916" y2="168.4916"/><text fill="#222222" font-family="Verdana" font-size="12.5" lengthAdjust="spacing" textLength="191.6667" x="470.8333" y="153.3671">insert(key, class, description)</text><polygon fill="#9803FC" points="147.9167,264.9333,158.3333,269.0999,147.9167,273.2666,152.0833,269.0999" style="stroke:#9803FC;stroke-width:1.0416666666666667;"/><line style="stroke:#9803FC;stroke-width:3.125;" x1="10.4167" x2="154.1667" y1="269.0999" y2="269.0999"/><text fill="#222222" font-family="Verdana" font-size="12.5" lengthAdjust="spacing" textLength="109.375" x="28.125" y="253.9754">String command.</text><polygon fill="#9803FC" points="435.4167,315.5416,445.8333,319.7083,435.4167,323.8749,439.5833,319.7083" style="stroke:#9803FC;stroke-width:1.0416666666666667;"/><line style="stroke:#9803FC;stroke-width:3.125;" x1="170.8333" x2="441.6667" y1="319.7083" y2="319.7083"/><text fill="#222222" font-family="Verdana" font-size="12.5" lengthAdjust="spacing" textLength="139.5833" x="188.5417" y="304.5837">parseCommand(cmd)</text><line style="stroke:#9803FC;stroke-width:3.125;" x1="458.3333" x2="502.0833" y1="370.3166" y2="370.3166"/><line style="stroke:#9803FC;stroke-width:3.125;" x1="502.0833" x2="502.0833" y1="370.3166" y2="383.8582"/><line style="stroke:#9803FC;stroke-width:3.125;" x1="459.375" x2="502.0833" y1="383.8582" y2="383.8582"/><polygon fill="#9803FC" points="469.7917,379.6916,459.375,383.8582,469.7917,388.0249,465.625,383.8582" style="stroke:#9803FC;stroke-width:1.0416666666666667;"/><text fill="#222222" font-family="Verdana" font-size="12.5" lengthAdjust="spacing" textLength="129.1667" x="476.0417" y="355.1921">Tokenize command.</text><polygon fill="#9803FC" points="683.3333,430.2999,693.75,434.4666,683.3333,438.6332,687.5,434.4666" style="stroke:#9803FC;stroke-width:1.0416666666666667;"/><line style="stroke:#9803FC;stroke-width:3.125;" x1="458.3333" x2="689.5833" y1="434.4666" y2="434.4666"/><text fill="#222222" font-family="Verdana" font-size="12.5" lengthAdjust="spacing" textLength="160.4167" x="476.0417" y="419.342">getCommandMetadata()</text><polygon fill="#9803FC" points="469.7917,444.8832,459.375,449.0499,469.7917,453.2166,465.625,449.0499" style="stroke:#9803FC;stroke-width:1.0416666666666667;"/><line style="stroke:#9803FC;stroke-width:3.125;stroke-dasharray:2.0,2.0;" x1="463.5417" x2="694.7917" y1="449.0499" y2="449.0499"/><path d="M71.875,464.6749 L153.125,464.6749 L153.125,492.3665 L142.7083,502.7832 L67.7083,502.7832 L67.7083,468.8416 A4.1667,4.1667 0 0 1 71.875,464.6749 " fill="#FFFFFF" style="stroke:#9803FC;stroke-width:1.0416666666666667;"/><rect fill="none" height="646.0164" rx="4.1667" ry="4.1667" style="stroke:#9803FC;stroke-width:1.0416666666666667;" width="1101.5625" x="67.7083" y="464.6749"/><text fill="#9C27B0" font-family="Verdana" font-size="12.5" font-weight="bold" lengthAdjust="spacing" textLength="17.7083" x="93.75" y="488.7004">alt</text><text fill="#222222" font-family="Verdana" font-size="12.5" font-weight="bold" lengthAdjust="spacing" textLength="131.25" x="179.1667" y="489.742">[metadata == null]</text><polygon fill="#9803FC" points="182.2917,561.2915,171.875,565.4582,182.2917,569.6248,178.125,565.4582" style="stroke:#9803FC;stroke-width:1.0416666666666667;"/><line style="stroke:#9803FC;stroke-width:3.125;stroke-dasharray:2.0,2.0;" x1="176.0417" x2="446.875" y1="565.4582" y2="565.4582"/><text fill="#222222" font-family="Verdana" font-size="12.5" lengthAdjust="spacing" textLength="137.5" x="198.9583" y="550.3337">Command not found.</text><line style="stroke:#9803FC;stroke-width:3.125;" x1="170.8333" x2="214.5833" y1="616.0665" y2="616.0665"/><line style="stroke:#9803FC;stroke-width:3.125;" x1="214.5833" x2="214.5833" y1="616.0665" y2="629.6082"/><line style="stroke:#9803FC;stroke-width:3.125;" x1="171.875" x2="214.5833" y1="629.6082" y2="629.6082"/><polygon fill="#9803FC" points="182.2917,625.4415,171.875,629.6082,182.2917,633.7748,178.125,629.6082" style="stroke:#9803FC;stroke-width:1.0416666666666667;"/><text fill="#222222" font-family="Verdana" font-size="12.5" lengthAdjust="spacing" textLength="241.6667" x="188.5417" y="600.942">Display that the comman is unknown</text><line style="stroke:#9803FC;stroke-width:1.0416666666666667;stroke-dasharray:2.0,2.0;" x1="67.7083" x2="1169.2708" y1="638.9832" y2="638.9832"/><text fill="#222222" font-family="Verdana" font-size="12.5" font-weight="bold" lengthAdjust="spacing" textLength="40.625" x="83.3333" y="661.967">[else]</text><polygon fill="#9803FC" points="1000.5208,729.3498,1010.9375,733.5164,1000.5208,737.6831,1004.6875,733.5164" style="stroke:#9803FC;stroke-width:1.0416666666666667;"/><line style="stroke:#9803FC;stroke-width:3.125;" x1="458.3333" x2="1006.7708" y1="733.5164" y2="733.5164"/><text fill="#222222" font-family="Verdana" font-size="12.5" lengthAdjust="spacing" textLength="257.2917" x="476.0417" y="703.2003">Create correct instance using reflection</text><text fill="#222222" font-family="Verdana" font-size="12.5" lengthAdjust="spacing" textLength="163.5417" x="476.0417" y="718.3919">and command metadata.</text><rect fill="#FFFFFF" filter="url(#futn2xmt6a0o9)" height="50.6083" rx="4.1667" ry="4.1667" style="stroke:#9803FC;stroke-width:1.0416666666666667;" width="101.0417" x="1013.0208" y="676.6581"/><text fill="#9803FC" font-family="Verdana" font-size="12.5" lengthAdjust="spacing" textLength="65.625" x="1030.7292" y="706.9336">Command</text><polygon fill="#9803FC" points="1052.6042,779.9581,1063.0208,784.1248,1052.6042,788.2914,1056.7708,784.1248" style="stroke:#9803FC;stroke-width:1.0416666666666667;"/><line style="stroke:#9803FC;stroke-width:3.125;" x1="458.3333" x2="1058.8542" y1="784.1248" y2="784.1248"/><text fill="#222222" font-family="Verdana" font-size="12.5" lengthAdjust="spacing" textLength="160.4167" x="476.0417" y="769.0002">setContext(this.context)</text><polygon fill="#9803FC" points="1052.6042,830.5664,1063.0208,834.7331,1052.6042,838.8997,1056.7708,834.7331" style="stroke:#9803FC;stroke-width:1.0416666666666667;"/><line style="stroke:#9803FC;stroke-width:3.125;" x1="458.3333" x2="1058.8542" y1="834.7331" y2="834.7331"/><text fill="#222222" font-family="Verdana" font-size="12.5" lengthAdjust="spacing" textLength="154.1667" x="476.0417" y="819.6086">setArgs(tokenizedArgs)</text><polygon fill="#9803FC" points="182.2917,881.1747,171.875,885.3414,182.2917,889.5081,178.125,885.3414" style="stroke:#9803FC;stroke-width:1.0416666666666667;"/><line style="stroke:#9803FC;stroke-width:3.125;stroke-dasharray:2.0,2.0;" x1="176.0417" x2="452.0833" y1="885.3414" y2="885.3414"/><text fill="#222222" font-family="Verdana" font-size="12.5" lengthAdjust="spacing" textLength="129.1667" x="198.9583" y="870.2169">Command instance.</text><polygon fill="#9803FC" points="1052.6042,931.783,1063.0208,935.9497,1052.6042,940.1164,1056.7708,935.9497" style="stroke:#9803FC;stroke-width:1.0416666666666667;"/><line style="stroke:#9803FC;stroke-width:3.125;" x1="170.8333" x2="1058.8542" y1="935.9497" y2="935.9497"/><text fill="#222222" font-family="Verdana" font-size="12.5" lengthAdjust="spacing" textLength="221.875" x="188.5417" y="920.8252">setInputStream(this.inputStream)</text><polygon fill="#9803FC" points="1052.6042,982.3914,1063.0208,986.558,1052.6042,990.7247,1056.7708,986.558" style="stroke:#9803FC;stroke-width:1.0416666666666667;"/><line style="stroke:#9803FC;stroke-width:3.125;" x1="170.8333" x2="1058.8542" y1="986.558" y2="986.558"/><text fill="#222222" font-family="Verdana" font-size="12.5" lengthAdjust="spacing" textLength="138.5417" x="188.5417" y="971.4335">setWriter(this.writer)</text><polygon fill="#9803FC" points="838.0208,1032.9997,848.4375,1037.1663,838.0208,1041.333,842.1875,1037.1663" style="stroke:#9803FC;stroke-width:1.0416666666666667;"/><line style="stroke:#9803FC;stroke-width:3.125;" x1="170.8333" x2="844.2708" y1="1037.1663" y2="1037.1663"/><text fill="#222222" font-family="Verdana" font-size="12.5" lengthAdjust="spacing" textLength="194.7917" x="188.5417" y="1022.0418">createTask(currentCommand)</text><rect fill="#FFFFFF" filter="url(#futn2xmt6a0o9)" height="50.6083" rx="4.1667" ry="4.1667" style="stroke:#9803FC;stroke-width:1.0416666666666667;" width="65.625" x="850.5208" y="994.8914"/><text fill="#9803FC" font-family="Verdana" font-size="12.5" lengthAdjust="spacing" textLength="30.2083" x="868.2292" y="1025.1668">Task</text><polygon fill="#9803FC" points="1052.6042,1098.1913,1063.0208,1102.358,1052.6042,1106.5247,1056.7708,1102.358" style="stroke:#9803FC;stroke-width:1.0416666666666667;"/><line style="stroke:#9803FC;stroke-width:3.125;" x1="884.8958" x2="1058.8542" y1="1102.358" y2="1102.358"/><text fill="#222222" font-family="Verdana" font-size="12.5" lengthAdjust="spacing" textLength="62.5" x="902.6042" y="1087.2335">execute()</text><!--SRC=[bLHDZzCm4BtxLmpYaaZR28aBL5gaxg95I20XRIKkNBpEjBNYZ8CzeRiW_ZjsaZOVtQPB3uapVlFcpVEuhtY79K8f6PsM2rkpqOH2-49J9PqiOUMStTzQOnsyVl_kpTkD6cpUI5LidQqfxn1tpU-bwIl5rjrObwERXTnPudcEgOuJs3VfM2jTIU8vjW5iNjSGUD64FmBkyMUDfF1J05RFKVyLekevuTQIjmOdiRAKb8VI7jrevukrHLsjvSCaOorzyHo548iFOxebEDngpr5M4quAVBe2PQJtLv2ZLqvNh2sbGYhMlyB0JFI8qIU40WDLIz0KedoUDSTpl5cMTNeRIvPmpqxJ5bGBouQ2MjD4ju3JBgluFhIeolm_sfamhMs1f7zZh-E20rla3l0LMUQIPPAA0G8Mqo92ICDGTcYulWQgZH40aq93Sxej8CkmYKEPDVY17ntme_QLaK_0EydXSUW3j8UQ2h9x4cWyGdm42kLmODAfXgFq8A65AkiSAeudppACFjG-7fl3ZGdXSEW_A0hjx3kscSro-sWYCJvomZljCzL-f9UILcxh4-wEB8zVwSjyFAYFiixFwCJYlkvdgceE0ukoR0NhFf2UJ_lkTBYARSQ-MQUYFuJcMezoOsJPRSTrekfWFXq6BbOwIc-oGo2-HtNn4LNDcAJZLXiynZ-DKV_jLVi7]--></g></svg>