<?xml version="1.0" encoding="us-ascii" standalone="no"?><svg xmlns="http://www.w3.org/2000/svg" xmlns:xlink="http://www.w3.org/1999/xlink" contentStyleType="text/css" height="573.9583px" preserveAspectRatio="none" style="width:560px;height:573px;background:#FFFFFF;" version="1.1" viewBox="0 0 560 573" width="560.4167px" zoomAndPan="magnify"><defs><filter height="300%" id="f11zj46ukqg5ti" width="300%" x="-1" y="-1"><feGaussianBlur result="blurOut" stdDeviation="2.0833333333333335"/><feColorMatrix in="blurOut" result="blurOut2" type="matrix" values="0 0 0 0 0 0 0 0 0 0 0 0 0 0 0 0 0 0 .4 0"/><feOffset dx="4.166666666666667" dy="4.166666666666667" in="blurOut2" result="blurOut3"/><feBlend in="SourceGraphic" in2="blurOut3" mode="normal"/></filter></defs><g><g id="elem_Player"><rect fill="none" filter="url(#f11zj46ukqg5ti)" height="55.5923" rx="4.1667" ry="4.1667" style="stroke:#9803FC;stroke-width:1.0416666666666667;" width="72.9167" x="258.3333" y="17.7083"/><text fill="#9803FC" font-family="Verdana" font-size="11.4583" lengthAdjust="spacing" textLength="37.5" x="276.0417" y="41.7282">Player</text><line style="stroke:#9803FC;stroke-width:1.0416666666666667;" x1="259.375" x2="330.2083" y1="56.634" y2="56.634"/></g><g id="elem_Inventory"><rect fill="none" filter="url(#f11zj46ukqg5ti)" height="55.5923" rx="4.1667" ry="4.1667" style="stroke:#9803FC;stroke-width:1.0416666666666667;" width="93.75" x="17.7083" y="172.9167"/><text fill="#9803FC" font-family="Verdana" font-size="11.4583" lengthAdjust="spacing" textLength="58.3333" x="35.4167" y="196.9365">Inventory</text><line style="stroke:#9803FC;stroke-width:1.0416666666666667;" x1="18.75" x2="110.4167" y1="211.8423" y2="211.8423"/></g><g id="elem_Item"><rect fill="none" filter="url(#f11zj46ukqg5ti)" height="55.5923" rx="4.1667" ry="4.1667" style="stroke:#9803FC;stroke-width:1.0416666666666667;" width="63.5417" x="152.6042" y="345.8333"/><text fill="#9803FC" font-family="Verdana" font-size="11.4583" lengthAdjust="spacing" textLength="28.125" x="170.3125" y="369.8532">Item</text><line style="stroke:#9803FC;stroke-width:1.0416666666666667;" x1="153.6458" x2="215.1042" y1="384.759" y2="384.759"/></g><g id="elem_Section"><rect fill="none" filter="url(#f11zj46ukqg5ti)" height="55.5923" rx="4.1667" ry="4.1667" style="stroke:#9803FC;stroke-width:1.0416666666666667;" width="79.1667" x="301.0417" y="501.0417"/><text fill="#9803FC" font-family="Verdana" font-size="11.4583" lengthAdjust="spacing" textLength="43.75" x="318.75" y="525.0615">Section</text><line style="stroke:#9803FC;stroke-width:1.0416666666666667;" x1="302.0833" x2="379.1667" y1="539.9673" y2="539.9673"/></g><g id="elem_Enemy"><rect fill="none" filter="url(#f11zj46ukqg5ti)" height="55.5923" rx="4.1667" ry="4.1667" style="stroke:#9803FC;stroke-width:1.0416666666666667;" width="76.0417" x="357.8125" y="259.375"/><text fill="#9803FC" font-family="Verdana" font-size="11.4583" lengthAdjust="spacing" textLength="40.625" x="375.5208" y="283.3949">Enemy</text><line style="stroke:#9803FC;stroke-width:1.0416666666666667;" x1="358.8542" x2="432.8125" y1="298.3007" y2="298.3007"/></g><g id="elem_Game"><rect fill="none" filter="url(#f11zj46ukqg5ti)" height="55.5923" rx="4.1667" ry="4.1667" style="stroke:#9803FC;stroke-width:1.0416666666666667;" width="70.8333" x="457.2917" y="172.9167"/><text fill="#9803FC" font-family="Verdana" font-size="11.4583" lengthAdjust="spacing" textLength="35.4167" x="475" y="196.9365">Game</text><line style="stroke:#9803FC;stroke-width:1.0416666666666667;" x1="458.3333" x2="527.0833" y1="211.8423" y2="211.8423"/></g><g id="elem_Map"><rect fill="none" filter="url(#f11zj46ukqg5ti)" height="55.5923" rx="4.1667" ry="4.1667" style="stroke:#9803FC;stroke-width:1.0416666666666667;" width="59.375" x="474.4792" y="345.8333"/><text fill="#9803FC" font-family="Verdana" font-size="11.4583" lengthAdjust="spacing" textLength="23.9583" x="492.1875" y="369.8532">Map</text><line style="stroke:#9803FC;stroke-width:1.0416666666666667;" x1="475.5208" x2="532.8125" y1="384.759" y2="384.759"/></g><!--reverse link Player to Inventory--><g id="link_Player_Inventory"><path codeLine="17" d="M245.7536,50.5553 C204.9932,55.3886 151.6979,67.2812 109.375,104.1667 C88.8333,122.0625 77.0313,151.4167 70.75,172.8229 " fill="none" id="Player-backto-Inventory" style="stroke:#9803FC;stroke-width:3.125;"/><polygon fill="#9803FC" points="258.1667,49.0833,251.4695,45.6816,245.7536,50.5553,252.4508,53.957,258.1667,49.0833" style="stroke:#9803FC;stroke-width:3.125;"/><text fill="#222222" font-family="Verdana" font-size="12.5" lengthAdjust="spacing" textLength="25" x="120.8333" y="128.1921">Has</text><text fill="#222222" font-family="Verdana" font-size="12.5" lengthAdjust="spacing" textLength="8.3333" x="231.2553" y="34.4471">1</text><text fill="#222222" font-family="Verdana" font-size="12.5" lengthAdjust="spacing" textLength="8.3333" x="50.343" y="151.4728">1</text></g><!--reverse link Inventory to Item--><g id="link_Inventory_Item"><path codeLine="18" d="M74.0889,240.3206 C80.7034,264.5914 89.6875,288.4583 109.375,314.5833 C120.9479,329.9479 137.6146,343.3438 152.2917,353.3646 " fill="none" id="Inventory-backto-Item" style="stroke:#9803FC;stroke-width:3.125;"/><polygon fill="#9803FC" points="70.8021,228.2604,68.4254,235.3861,74.0889,240.3206,76.4655,233.1949,70.8021,228.2604" style="stroke:#9803FC;stroke-width:3.125;"/><text fill="#222222" font-family="Verdana" font-size="12.5" lengthAdjust="spacing" textLength="25" x="120.8333" y="292.2546">Has</text><text fill="#222222" font-family="Verdana" font-size="12.5" lengthAdjust="spacing" textLength="8.3333" x="50.4576" y="259.9291">1</text><text fill="#222222" font-family="Verdana" font-size="12.5" lengthAdjust="spacing" textLength="8.3333" x="125.5208" y="334.4573">*</text></g><!--link Player to Enemy--><g id="link_Player_Enemy"><path codeLine="19" d="M307.625,72.9896 C312.2292,82.75 317.3854,93.9062 321.875,104.1667 C345.7604,158.7917 369.2747,217.8568 383.2018,253.4505 " fill="none" id="Player-to-Enemy" style="stroke:#9803FC;stroke-width:3.125;"/><polygon fill="#9803FC" points="385.4792,259.2708,385.9433,249.0221,383.5814,254.4206,378.1829,252.0586,385.4792,259.2708" style="stroke:#9803FC;stroke-width:3.125;"/><text fill="#222222" font-family="Verdana" font-size="12.5" lengthAdjust="spacing" textLength="39.5833" x="347.9167" y="128.1921">Fights</text><text fill="#222222" font-family="Verdana" font-size="12.5" lengthAdjust="spacing" textLength="8.3333" x="323.268" y="104.6464">1</text><text fill="#222222" font-family="Verdana" font-size="12.5" lengthAdjust="spacing" textLength="8.3333" x="361.8196" y="237.9186">*</text></g><!--link Player to Game--><g id="link_Player_Game"><path codeLine="20" d="M331.4063,52.0833 C365.3125,59.0938 415.2604,73.9792 447.9167,104.1667 C467.7813,122.5417 477.8312,145.5432 484.3,166.7307 " fill="none" id="Player-to-Game" style="stroke:#9803FC;stroke-width:3.125;"/><polygon fill="#9803FC" points="486.125,172.7083,487.3725,162.5252,484.6041,167.727,479.4024,164.9586,486.125,172.7083" style="stroke:#9803FC;stroke-width:3.125;"/><text fill="#222222" font-family="Verdana" font-size="12.5" lengthAdjust="spacing" textLength="34.375" x="485.4167" y="128.1921">Plays</text><text fill="#222222" font-family="Verdana" font-size="12.5" lengthAdjust="spacing" textLength="8.3333" x="349.9826" y="37.9252">1</text><text fill="#222222" font-family="Verdana" font-size="12.5" lengthAdjust="spacing" textLength="8.3333" x="463.3401" y="151.6194">1</text></g><!--link Player to Section--><g id="link_Player_Section"><path codeLine="21" d="M290.375,73.1458 C283.0938,121.5625 270.4896,226.8021 282.2917,314.5833 C291.5104,383.1771 312.571,449.1598 326.6439,489.0556 " fill="none" id="Player-to-Section" style="stroke:#9803FC;stroke-width:3.125;"/><polygon fill="#9803FC" points="330.8021,500.8438,332.6524,493.5636,326.6439,489.0556,324.7936,496.3357,330.8021,500.8438" style="stroke:#9803FC;stroke-width:3.125;"/><text fill="#222222" font-family="Verdana" font-size="12.5" lengthAdjust="spacing" textLength="34.375" x="293.75" y="292.2546">Visits</text><text fill="#222222" font-family="Verdana" font-size="12.5" lengthAdjust="spacing" textLength="8.3333" x="302.6661" y="104.5471">1</text><text fill="#222222" font-family="Verdana" font-size="12.5" lengthAdjust="spacing" textLength="8.3333" x="307.3996" y="479.7568">*</text></g><!--reverse link Enemy to Section--><g id="link_Enemy_Section"><path codeLine="22" d="M386.7988,327.2228 C376.1738,373.3582 357.4479,454.6146 346.8229,500.6875 " fill="none" id="Enemy-backto-Section" style="stroke:#9803FC;stroke-width:3.125;"/><polygon fill="#9803FC" points="389.6042,315.0417,384.1411,320.1971,386.7988,327.2228,392.2619,322.0673,389.6042,315.0417" style="stroke:#9803FC;stroke-width:3.125;"/><text fill="#222222" font-family="Verdana" font-size="12.5" lengthAdjust="spacing" textLength="28.125" x="392.7083" y="378.713">Is in</text><text fill="#222222" font-family="Verdana" font-size="12.5" lengthAdjust="spacing" textLength="8.3333" x="367.1469" y="346.1984">1</text><text fill="#222222" font-family="Verdana" font-size="12.5" lengthAdjust="spacing" textLength="8.3333" x="361.201" y="479.5708">1</text></g><!--link Item to Section--><g id="link_Item_Section"><path codeLine="23" d="M187.6354,401.1979 C191.4271,422.0729 199.5313,450.6667 216.6667,469.7917 C238.8542,494.5521 261.9119,505.7953 289.0681,514.2744 " fill="none" id="Item-to-Section" style="stroke:#9803FC;stroke-width:3.125;"/><polygon fill="#9803FC" points="301,518,296.2759,512.1599,289.0681,514.2744,293.7922,520.1145,301,518" style="stroke:#9803FC;stroke-width:3.125;"/><text fill="#222222" font-family="Verdana" font-size="12.5" lengthAdjust="spacing" textLength="28.125" x="228.125" y="456.3171">Is in</text><text fill="#222222" font-family="Verdana" font-size="12.5" lengthAdjust="spacing" textLength="8.3333" x="166.727" y="432.8706">*</text><text fill="#222222" font-family="Verdana" font-size="12.5" lengthAdjust="spacing" textLength="8.3333" x="273.9493" y="501.2426">1</text></g><!--reverse link Player to Item--><g id="link_Player_Item"><path codeLine="24" d="M264.6526,82.923 C245.4859,107.3189 226.5625,135.3646 212.5,172.9167 C190.4271,231.875 185.4896,306.5417 184.5,345.6771 " fill="none" id="Player-backto-Item" style="stroke:#9803FC;stroke-width:3.125;"/><polygon fill="#9803FC" points="272.375,73.0938,265.2374,75.4343,264.6526,82.923,271.7902,80.5825,272.375,73.0938" style="stroke:#9803FC;stroke-width:3.125;"/><text fill="#222222" font-family="Verdana" font-size="12.5" lengthAdjust="spacing" textLength="32.2917" x="223.9583" y="205.7963">Uses</text><text fill="#222222" font-family="Verdana" font-size="12.5" lengthAdjust="spacing" textLength="8.3333" x="246.8031" y="104.4854">1</text><text fill="#222222" font-family="Verdana" font-size="12.5" lengthAdjust="spacing" textLength="8.3333" x="162.9939" y="324.5981">*</text></g><!--reverse link Game to Map--><g id="link_Game_Map"><path codeLine="25" d="M495.3363,240.722 C497.4822,272.722 500.2188,313.5625 502.375,345.6042 " fill="none" id="Game-backto-Map" style="stroke:#9803FC;stroke-width:3.125;"/><polygon fill="#9803FC" points="494.5,228.25,490.7608,234.7648,495.3363,240.722,499.0755,234.2072,494.5,228.25" style="stroke:#9803FC;stroke-width:3.125;"/><text fill="#222222" font-family="Verdana" font-size="12.5" lengthAdjust="spacing" textLength="25" x="511.4583" y="292.2546">Has</text><text fill="#222222" font-family="Verdana" font-size="12.5" lengthAdjust="spacing" textLength="8.3333" x="473.3116" y="259.9167">1</text><text fill="#222222" font-family="Verdana" font-size="12.5" lengthAdjust="spacing" textLength="8.3333" x="480.5035" y="324.5113">1</text></g><!--reverse link Map to Section--><g id="link_Map_Section"><path codeLine="26" d="M472.1173,410.6059 C454.3569,430.2517 437.4792,447.9167 413.5417,469.7917 C401.8542,480.4688 388.4271,491.4479 376.3125,500.9271 " fill="none" id="Map-backto-Section" style="stroke:#9803FC;stroke-width:3.125;"/><polygon fill="#9803FC" points="480.5,401.3333,473.2178,403.1754,472.1173,410.6059,479.3995,408.7638,480.5,401.3333" style="stroke:#9803FC;stroke-width:3.125;"/><text fill="#222222" font-family="Verdana" font-size="12.5" lengthAdjust="spacing" textLength="25" x="460.4167" y="456.3171">Has</text><text fill="#222222" font-family="Verdana" font-size="12.5" lengthAdjust="spacing" textLength="8.3333" x="489.2419" y="432.7461">1</text><text fill="#222222" font-family="Verdana" font-size="12.5" lengthAdjust="spacing" textLength="25" x="398.2669" y="479.5728">1..*</text></g><!--SRC=[TL31JiCm3BtdAqovLUe4uW8z836qmWu890Jtq9ajMnDFJWRQtvEwQzPk8eV4pdj-UIyNOOKMmUg0R7H1kz0OXqhvZN5RpTh20pFzFb9339TtjrStt_K0dEfwisJQkSM1KSaQC5w_rbY7AV42-J-LZbEH2sE68W7WhT5xvBwRknzqWNYVBWBQldwFco7NjpE7Dl6UjCM-Vj5RfJfToAupo8j2pYHUmhFsAhL7Kfx9Wnq-K2YAUm7boH8giro5Sq8yMnkbP3g1Sva_92ZXqtWJ5KHlv34nvXwCKwqRcHI5S_mqPGhmuT6hrir8FVvCboqM0s0oENe38Vm1]--></g></svg>