<?xml version="1.0" encoding="us-ascii" standalone="no"?><svg xmlns="http://www.w3.org/2000/svg" xmlns:xlink="http://www.w3.org/1999/xlink" contentStyleType="text/css" height="1740.625px" preserveAspectRatio="none" style="width:767px;height:1740px;background:#FFFFFF;" version="1.1" viewBox="0 0 767 1740" width="767.7083px" zoomAndPan="magnify"><defs><filter height="300%" id="f8jsyugwoz9gm" width="300%" x="-1" y="-1"><feGaussianBlur result="blurOut" stdDeviation="2.0833333333333335"/><feColorMatrix in="blurOut" result="blurOut2" type="matrix" values="0 0 0 0 0 0 0 0 0 0 0 0 0 0 0 0 0 0 .4 0"/><feOffset dx="4.166666666666667" dy="4.166666666666667" in="blurOut2" result="blurOut3"/><feBlend in="SourceGraphic" in2="blurOut3" mode="normal"/></filter></defs><g><rect fill="none" filter="url(#f8jsyugwoz9gm)" height="1485.3841" rx="4.1667" ry="4.1667" style="stroke:#9803FC;stroke-width:1.0416666666666667;" width="729.1667" x="20.8333" y="130.1758"/><rect fill="none" filter="url(#f8jsyugwoz9gm)" height="790.1042" rx="4.1667" ry="4.1667" style="stroke:#9803FC;stroke-width:1.0416666666666667;" width="687.5" x="41.6667" y="194.694"/><rect fill="none" filter="url(#f8jsyugwoz9gm)" height="608.8867" rx="4.1667" ry="4.1667" style="stroke:#9803FC;stroke-width:1.0416666666666667;" width="708.3333" x="31.25" y="999.3815"/><rect fill="none" filter="url(#f8jsyugwoz9gm)" height="208.1706" rx="4.1667" ry="4.1667" style="stroke:#9803FC;stroke-width:1.0416666666666667;" width="500.5208" x="228.6458" y="1177.3763"/><rect fill="none" filter="url(#f8jsyugwoz9gm)" height="121.7773" rx="4.1667" ry="4.1667" style="stroke:#9803FC;stroke-width:1.0416666666666667;" width="418.75" x="41.6667" y="1479.1992"/><line style="stroke:#CCCCCC;stroke-width:1.0416666666666667;stroke-dasharray:5.0,5.0;" x1="85.4167" x2="85.4167" y1="112.4674" y2="1633.2682"/><line style="stroke:#CCCCCC;stroke-width:1.0416666666666667;stroke-dasharray:5.0,5.0;" x1="318.2292" x2="318.2292" y1="112.4674" y2="1633.2682"/><line style="stroke:#CCCCCC;stroke-width:1.0416666666666667;stroke-dasharray:5.0,5.0;" x1="608.3333" x2="608.3333" y1="112.4674" y2="1633.2682"/><text fill="#9803FC" font-family="Verdana" font-size="12.5" lengthAdjust="spacing" textLength="39.5833" x="62.5" y="99.1028">Player</text><ellipse cx="85.4167" cy="19.7917" fill="#9803FC" filter="url(#f8jsyugwoz9gm)" rx="8.3333" ry="8.3333" style="stroke:#9803FC;stroke-width:1.0416666666666667;"/><path d="M85.4167,28.125 L85.4167,56.25 M71.875,36.4583 L98.9583,36.4583 M85.4167,56.25 L71.875,71.875 M85.4167,56.25 L98.9583,71.875 " fill="none" filter="url(#f8jsyugwoz9gm)" style="stroke:#9803FC;stroke-width:1.0416666666666667;"/><text fill="#9803FC" font-family="Verdana" font-size="12.5" lengthAdjust="spacing" textLength="39.5833" x="62.5" y="1654.246">Player</text><ellipse cx="85.4167" cy="1676.9857" fill="#9803FC" filter="url(#f8jsyugwoz9gm)" rx="8.3333" ry="8.3333" style="stroke:#9803FC;stroke-width:1.0416666666666667;"/><path d="M85.4167,1685.319 L85.4167,1713.444 M71.875,1693.6523 L98.9583,1693.6523 M85.4167,1713.444 L71.875,1729.069 M85.4167,1713.444 L98.9583,1729.069 " fill="none" filter="url(#f8jsyugwoz9gm)" style="stroke:#9803FC;stroke-width:1.0416666666666667;"/><rect fill="#FFFFFF" filter="url(#f8jsyugwoz9gm)" height="49.9674" rx="4.1667" ry="4.1667" style="stroke:#9803FC;stroke-width:1.0416666666666667;" width="72.9167" x="280.7292" y="58.3333"/><text fill="#9803FC" font-family="Verdana" font-size="12.5" lengthAdjust="spacing" textLength="37.5" x="298.4375" y="87.6444">Game</text><rect fill="#FFFFFF" filter="url(#f8jsyugwoz9gm)" height="49.9674" rx="4.1667" ry="4.1667" style="stroke:#9803FC;stroke-width:1.0416666666666667;" width="72.9167" x="280.7292" y="1632.2266"/><text fill="#9803FC" font-family="Verdana" font-size="12.5" lengthAdjust="spacing" textLength="37.5" x="298.4375" y="1661.5377">Game</text><rect fill="#FFFFFF" filter="url(#f8jsyugwoz9gm)" height="49.9674" rx="4.1667" ry="4.1667" style="stroke:#9803FC;stroke-width:1.0416666666666667;" width="134.375" x="539.5833" y="58.3333"/><text fill="#9803FC" font-family="Verdana" font-size="12.5" lengthAdjust="spacing" textLength="98.9583" x="557.2917" y="87.6444">StorageService</text><rect fill="#FFFFFF" filter="url(#f8jsyugwoz9gm)" height="49.9674" rx="4.1667" ry="4.1667" style="stroke:#9803FC;stroke-width:1.0416666666666667;" width="134.375" x="539.5833" y="1632.2266"/><text fill="#9803FC" font-family="Verdana" font-size="12.5" lengthAdjust="spacing" textLength="98.9583" x="557.2917" y="1661.5377">StorageService</text><path d="M25,130.1758 L120.8333,130.1758 L120.8333,157.2266 L110.4167,167.6432 L20.8333,167.6432 L20.8333,134.3424 A4.1667,4.1667 0 0 1 25,130.1758 " fill="#FFFFFF" style="stroke:#9803FC;stroke-width:1.0416666666666667;"/><rect fill="none" height="1485.3841" rx="4.1667" ry="4.1667" style="stroke:#9803FC;stroke-width:1.0416666666666667;" width="729.1667" x="20.8333" y="130.1758"/><text fill="#9C27B0" font-family="Verdana" font-size="12.5" font-weight="bold" lengthAdjust="spacing" textLength="32.2917" x="46.875" y="153.2369">loop</text><text fill="#222222" font-family="Verdana" font-size="12.5" font-weight="bold" lengthAdjust="spacing" textLength="136.4583" x="146.875" y="154.2786">[while !Game.EXIT]</text><path d="M45.8333,194.694 L129.1667,194.694 L129.1667,221.7448 L118.75,232.1615 L41.6667,232.1615 L41.6667,198.8607 A4.1667,4.1667 0 0 1 45.8333,194.694 " fill="#FFFFFF" style="stroke:#9803FC;stroke-width:1.0416666666666667;"/><rect fill="none" height="790.1042" rx="4.1667" ry="4.1667" style="stroke:#9803FC;stroke-width:1.0416666666666667;" width="687.5" x="41.6667" y="194.694"/><text fill="#9C27B0" font-family="Verdana" font-size="12.5" font-weight="bold" lengthAdjust="spacing" textLength="19.7917" x="67.7083" y="217.7551">alt</text><text fill="#222222" font-family="Verdana" font-size="12.5" font-weight="bold" lengthAdjust="spacing" textLength="163.5417" x="155.2083" y="218.7968">[command=newGame]</text><polygon fill="#9803FC" points="306.25,289.388,316.6667,293.5547,306.25,297.7214,310.4167,293.5547" style="stroke:#9803FC;stroke-width:1.0416666666666667;"/><line style="stroke:#9803FC;stroke-width:3.125;" x1="85.4167" x2="312.5" y1="293.5547" y2="293.5547"/><text fill="#222222" font-family="Verdana" font-size="12.5" lengthAdjust="spacing" textLength="151.0417" x="103.125" y="278.1067">newGame(playerName)</text><polygon fill="#9803FC" points="595.8333,339.3555,606.25,343.5221,595.8333,347.6888,600,343.5221" style="stroke:#9803FC;stroke-width:1.0416666666666667;"/><line style="stroke:#9803FC;stroke-width:3.125;" x1="318.75" x2="602.0833" y1="343.5221" y2="343.5221"/><text fill="#222222" font-family="Verdana" font-size="12.5" lengthAdjust="spacing" textLength="240.625" x="336.4583" y="328.0741">Requests a new game for the player.</text><polygon fill="#9803FC" points="330.2083,353.9388,319.7917,358.1055,330.2083,362.2721,326.0417,358.1055" style="stroke:#9803FC;stroke-width:1.0416666666666667;"/><line style="stroke:#9803FC;stroke-width:3.125;stroke-dasharray:2.0,2.0;" x1="323.9583" x2="607.2917" y1="358.1055" y2="358.1055"/><line style="stroke:#9803FC;stroke-width:3.125;" x1="318.75" x2="362.5" y1="408.0729" y2="408.0729"/><line style="stroke:#9803FC;stroke-width:3.125;" x1="362.5" x2="362.5" y1="408.0729" y2="421.6146"/><line style="stroke:#9803FC;stroke-width:3.125;" x1="319.7917" x2="362.5" y1="421.6146" y2="421.6146"/><polygon fill="#9803FC" points="330.2083,417.4479,319.7917,421.6146,330.2083,425.7813,326.0417,421.6146" style="stroke:#9803FC;stroke-width:1.0416666666666667;"/><text fill="#222222" font-family="Verdana" font-size="12.5" lengthAdjust="spacing" textLength="155.2083" x="336.4583" y="392.6249">Populates game object.</text><line style="stroke:#9803FC;stroke-width:1.0416666666666667;stroke-dasharray:2.0,2.0;" x1="41.6667" x2="729.1667" y1="430.9896" y2="430.9896"/><text fill="#222222" font-family="Verdana" font-size="12.5" font-weight="bold" lengthAdjust="spacing" textLength="164.5833" x="57.2917" y="453.009">[command=loadGame]</text><polygon fill="#9803FC" points="306.25,504.8828,316.6667,509.0495,306.25,513.2161,310.4167,509.0495" style="stroke:#9803FC;stroke-width:1.0416666666666667;"/><line style="stroke:#9803FC;stroke-width:3.125;" x1="85.4167" x2="312.5" y1="509.0495" y2="509.0495"/><text fill="#222222" font-family="Verdana" font-size="12.5" lengthAdjust="spacing" textLength="123.9583" x="103.125" y="493.6015">loadGame(gameId)</text><polygon fill="#9803FC" points="595.8333,554.8503,606.25,559.0169,595.8333,563.1836,600,559.0169" style="stroke:#9803FC;stroke-width:1.0416666666666667;"/><line style="stroke:#9803FC;stroke-width:3.125;" x1="318.75" x2="602.0833" y1="559.0169" y2="559.0169"/><text fill="#222222" font-family="Verdana" font-size="12.5" lengthAdjust="spacing" textLength="141.6667" x="336.4583" y="543.5689">Game object request.</text><polygon fill="#9803FC" points="330.2083,569.4336,319.7917,573.6003,330.2083,577.7669,326.0417,573.6003" style="stroke:#9803FC;stroke-width:1.0416666666666667;"/><line style="stroke:#9803FC;stroke-width:3.125;stroke-dasharray:2.0,2.0;" x1="323.9583" x2="607.2917" y1="573.6003" y2="573.6003"/><line style="stroke:#9803FC;stroke-width:3.125;" x1="318.75" x2="362.5" y1="623.5677" y2="623.5677"/><line style="stroke:#9803FC;stroke-width:3.125;" x1="362.5" x2="362.5" y1="623.5677" y2="637.1094"/><line style="stroke:#9803FC;stroke-width:3.125;" x1="319.7917" x2="362.5" y1="637.1094" y2="637.1094"/><polygon fill="#9803FC" points="330.2083,632.9427,319.7917,637.1094,330.2083,641.276,326.0417,637.1094" style="stroke:#9803FC;stroke-width:1.0416666666666667;"/><text fill="#222222" font-family="Verdana" font-size="12.5" lengthAdjust="spacing" textLength="155.2083" x="336.4583" y="608.1197">Populates game object.</text><line style="stroke:#9803FC;stroke-width:1.0416666666666667;stroke-dasharray:2.0,2.0;" x1="41.6667" x2="729.1667" y1="646.4844" y2="646.4844"/><text fill="#222222" font-family="Verdana" font-size="12.5" font-weight="bold" lengthAdjust="spacing" textLength="163.5417" x="57.2917" y="668.5038">[command=listGames]</text><polygon fill="#9803FC" points="306.25,720.3776,316.6667,724.5443,306.25,728.7109,310.4167,724.5443" style="stroke:#9803FC;stroke-width:1.0416666666666667;"/><line style="stroke:#9803FC;stroke-width:3.125;" x1="85.4167" x2="312.5" y1="724.5443" y2="724.5443"/><text fill="#222222" font-family="Verdana" font-size="12.5" lengthAdjust="spacing" textLength="63.5417" x="103.125" y="709.0963">listGames</text><polygon fill="#9803FC" points="595.8333,770.3451,606.25,774.5117,595.8333,778.6784,600,774.5117" style="stroke:#9803FC;stroke-width:1.0416666666666667;"/><line style="stroke:#9803FC;stroke-width:3.125;" x1="318.75" x2="602.0833" y1="774.5117" y2="774.5117"/><text fill="#222222" font-family="Verdana" font-size="12.5" lengthAdjust="spacing" textLength="119.7917" x="336.4583" y="759.0637">Game list request.</text><polygon fill="#9803FC" points="330.2083,784.9284,319.7917,789.0951,330.2083,793.2617,326.0417,789.0951" style="stroke:#9803FC;stroke-width:1.0416666666666667;"/><line style="stroke:#9803FC;stroke-width:3.125;stroke-dasharray:2.0,2.0;" x1="323.9583" x2="607.2917" y1="789.0951" y2="789.0951"/><polygon fill="#9803FC" points="96.875,834.8958,86.4583,839.0625,96.875,843.2292,92.7083,839.0625" style="stroke:#9803FC;stroke-width:1.0416666666666667;"/><line style="stroke:#9803FC;stroke-width:3.125;stroke-dasharray:2.0,2.0;" x1="90.625" x2="317.7083" y1="839.0625" y2="839.0625"/><text fill="#222222" font-family="Verdana" font-size="12.5" lengthAdjust="spacing" textLength="159.375" x="113.5417" y="823.6145">Shows the list of games.</text><line style="stroke:#9803FC;stroke-width:1.0416666666666667;stroke-dasharray:2.0,2.0;" x1="41.6667" x2="729.1667" y1="848.4375" y2="848.4375"/><text fill="#222222" font-family="Verdana" font-size="12.5" font-weight="bold" lengthAdjust="spacing" textLength="180.2083" x="57.2917" y="870.4569">[command=deleteGame]</text><polygon fill="#9803FC" points="306.25,922.3307,316.6667,926.4974,306.25,930.6641,310.4167,926.4974" style="stroke:#9803FC;stroke-width:1.0416666666666667;"/><line style="stroke:#9803FC;stroke-width:3.125;" x1="85.4167" x2="312.5" y1="926.4974" y2="926.4974"/><text fill="#222222" font-family="Verdana" font-size="12.5" lengthAdjust="spacing" textLength="79.1667" x="103.125" y="911.0494">deleteGame</text><polygon fill="#9803FC" points="595.8333,972.2982,606.25,976.4648,595.8333,980.6315,600,976.4648" style="stroke:#9803FC;stroke-width:1.0416666666666667;"/><line style="stroke:#9803FC;stroke-width:3.125;" x1="318.75" x2="602.0833" y1="976.4648" y2="976.4648"/><text fill="#222222" font-family="Verdana" font-size="12.5" lengthAdjust="spacing" textLength="187.5" x="336.4583" y="961.0168">Delete game object request.</text><path d="M35.4167,999.3815 L131.25,999.3815 L131.25,1026.4323 L120.8333,1036.849 L31.25,1036.849 L31.25,1003.5482 A4.1667,4.1667 0 0 1 35.4167,999.3815 " fill="#FFFFFF" style="stroke:#9803FC;stroke-width:1.0416666666666667;"/><rect fill="none" height="608.8867" rx="4.1667" ry="4.1667" style="stroke:#9803FC;stroke-width:1.0416666666666667;" width="708.3333" x="31.25" y="999.3815"/><text fill="#9C27B0" font-family="Verdana" font-size="12.5" font-weight="bold" lengthAdjust="spacing" textLength="32.2917" x="57.2917" y="1022.4426">loop</text><text fill="#222222" font-family="Verdana" font-size="12.5" font-weight="bold" lengthAdjust="spacing" textLength="331.25" x="157.2917" y="1023.4843">[while !Player.hasWon and !Player.hasDied)]</text><polygon fill="#9803FC" points="306.25,1094.0755,316.6667,1098.2422,306.25,1102.4089,310.4167,1098.2422" style="stroke:#9803FC;stroke-width:1.0416666666666667;"/><line style="stroke:#9803FC;stroke-width:3.125;" x1="85.4167" x2="312.5" y1="1098.2422" y2="1098.2422"/><text fill="#222222" font-family="Verdana" font-size="12.5" lengthAdjust="spacing" textLength="170.8333" x="103.125" y="1082.7942">Player enters a command.</text><line style="stroke:#9803FC;stroke-width:3.125;" x1="318.75" x2="362.5" y1="1148.2096" y2="1148.2096"/><line style="stroke:#9803FC;stroke-width:3.125;" x1="362.5" x2="362.5" y1="1148.2096" y2="1161.7513"/><line style="stroke:#9803FC;stroke-width:3.125;" x1="319.7917" x2="362.5" y1="1161.7513" y2="1161.7513"/><polygon fill="#9803FC" points="330.2083,1157.5846,319.7917,1161.7513,330.2083,1165.918,326.0417,1161.7513" style="stroke:#9803FC;stroke-width:1.0416666666666667;"/><text fill="#222222" font-family="Verdana" font-size="12.5" lengthAdjust="spacing" textLength="206.25" x="336.4583" y="1132.7616">Command parse and validation.</text><path d="M232.8125,1177.3763 L316.1458,1177.3763 L316.1458,1204.4271 L305.7292,1214.8438 L228.6458,1214.8438 L228.6458,1181.543 A4.1667,4.1667 0 0 1 232.8125,1177.3763 " fill="#FFFFFF" style="stroke:#9803FC;stroke-width:1.0416666666666667;"/><rect fill="none" height="208.1706" rx="4.1667" ry="4.1667" style="stroke:#9803FC;stroke-width:1.0416666666666667;" width="500.5208" x="228.6458" y="1177.3763"/><text fill="#9C27B0" font-family="Verdana" font-size="12.5" font-weight="bold" lengthAdjust="spacing" textLength="19.7917" x="254.6875" y="1200.4374">alt</text><text fill="#222222" font-family="Verdana" font-size="12.5" font-weight="bold" lengthAdjust="spacing" textLength="125" x="342.1875" y="1201.4791">[command=save]</text><polygon fill="#9803FC" points="595.8333,1272.0703,606.25,1276.237,595.8333,1280.4036,600,1276.237" style="stroke:#9803FC;stroke-width:1.0416666666666667;"/><line style="stroke:#9803FC;stroke-width:3.125;" x1="318.75" x2="602.0833" y1="1276.237" y2="1276.237"/><text fill="#222222" font-family="Verdana" font-size="12.5" lengthAdjust="spacing" textLength="243.75" x="336.4583" y="1260.789">Request to save current game object</text><line style="stroke:#9803FC;stroke-width:1.0416666666666667;stroke-dasharray:2.0,2.0;" x1="228.6458" x2="729.1667" y1="1285.612" y2="1285.612"/><text fill="#222222" font-family="Verdana" font-size="12.5" font-weight="bold" lengthAdjust="spacing" textLength="41.6667" x="244.2708" y="1307.6314">[else]</text><line style="stroke:#9803FC;stroke-width:3.125;" x1="318.75" x2="362.5" y1="1363.6719" y2="1363.6719"/><line style="stroke:#9803FC;stroke-width:3.125;" x1="362.5" x2="362.5" y1="1363.6719" y2="1377.2135"/><line style="stroke:#9803FC;stroke-width:3.125;" x1="319.7917" x2="362.5" y1="1377.2135" y2="1377.2135"/><polygon fill="#9803FC" points="330.2083,1373.0469,319.7917,1377.2135,330.2083,1381.3802,326.0417,1377.2135" style="stroke:#9803FC;stroke-width:1.0416666666666667;"/><text fill="#222222" font-family="Verdana" font-size="12.5" lengthAdjust="spacing" textLength="131.25" x="336.4583" y="1348.2239">Game state update.</text><polygon fill="#9803FC" points="96.875,1459.4076,86.4583,1463.5742,96.875,1467.7409,92.7083,1463.5742" style="stroke:#9803FC;stroke-width:1.0416666666666667;"/><line style="stroke:#9803FC;stroke-width:3.125;stroke-dasharray:2.0,2.0;" x1="90.625" x2="317.7083" y1="1463.5742" y2="1463.5742"/><text fill="#222222" font-family="Verdana" font-size="12.5" lengthAdjust="spacing" textLength="167.7083" x="113.5417" y="1419.0247">Command output may be:</text><text fill="#222222" font-family="Verdana" font-size="12.5" lengthAdjust="spacing" textLength="187.5" x="113.5417" y="1433.5754">1) Input request for the user</text><text fill="#222222" font-family="Verdana" font-size="12.5" lengthAdjust="spacing" textLength="123.9583" x="113.5417" y="1448.1262">2) Command result</text><path d="M45.8333,1479.1992 L134.375,1479.1992 L134.375,1506.25 L123.9583,1516.6667 L41.6667,1516.6667 L41.6667,1483.3659 A4.1667,4.1667 0 0 1 45.8333,1479.1992 " fill="#FFFFFF" style="stroke:#9803FC;stroke-width:1.0416666666666667;"/><rect fill="none" height="121.7773" rx="4.1667" ry="4.1667" style="stroke:#9803FC;stroke-width:1.0416666666666667;" width="418.75" x="41.6667" y="1479.1992"/><text fill="#9C27B0" font-family="Verdana" font-size="12.5" font-weight="bold" lengthAdjust="spacing" textLength="25" x="67.7083" y="1502.2603">opt</text><text fill="#222222" font-family="Verdana" font-size="12.5" font-weight="bold" lengthAdjust="spacing" textLength="284.375" x="160.4167" y="1503.302">[The command requested a new input]</text><polygon fill="#9803FC" points="306.25,1573.8932,316.6667,1578.0599,306.25,1582.2266,310.4167,1578.0599" style="stroke:#9803FC;stroke-width:1.0416666666666667;"/><line style="stroke:#9803FC;stroke-width:3.125;" x1="85.4167" x2="312.5" y1="1578.0599" y2="1578.0599"/><text fill="#222222" font-family="Verdana" font-size="12.5" lengthAdjust="spacing" textLength="120.8333" x="103.125" y="1562.6119">Input specific data</text><polygon fill="#9803FC" points="96.875,1588.4766,86.4583,1592.6432,96.875,1596.8099,92.7083,1592.6432" style="stroke:#9803FC;stroke-width:1.0416666666666667;"/><line style="stroke:#9803FC;stroke-width:3.125;stroke-dasharray:2.0,2.0;" x1="90.625" x2="317.7083" y1="1592.6432" y2="1592.6432"/><!--SRC=[jLJBRjim4BphApRe9JvOwEFI6cY1F1h3byAe0xI7N1XgRREXI9QaR0H5_xtBXnL9iPNsK06M9UxixCmkgJE_nHgXPXwjO5FTU2aK5eLx4Cemosgui5RlhxJK5bvzUF_wtPftWfUCFsoiRbIL4JVn-jlq2-wrlTIsGZiAkT7AZtCCTJo3BPdrWWl3b1zZwy36TNM1BpRXLm4h_DcWuZWde3b6_RieMB02IyaUqHRcgG3CMOszXHK1sGPNQ7U2qxYarWRsMo4HpWAu_FnzSLi0CEc1wxfcglgeS1zvWAvK0wQV8lKCSkpSnFKlz3Y9kB0OKFrwC_WQt3ZlW8LKs0JOchJJReB4KSRyVXvCSy4UTrAmrAQHj0jT8jFtFv3xG8BIOUj1QbQTD748dWU6HJNkOFvK1Mnoyvya2-S3tXtNt8kEYWtGVvLAAwdY35PRlNTnG958hwDgzqnlXH8zdcpo87nAyNM4THlJbOwgAkYlksjJdNBBt3UjW8Hqbwu5vd4EvUHtLFJz2hinkoYFZEigXO3E4TaDJpicHSMyqAeiOaBtk3YsInPVF0NWDGGqyCPQKj9r7HbYVyDjm9TqnJVdQID1OqWE9l6vHqScUJ127slJUFfsFy8zpkxKcmaiL5Z9dMvFPEFGtgctapRJecjaqgQDXzjjE_v3BbRvQ8l0c7KFcv-gEODSh0K7qivw3blDhQ5qfzyV]--></g></svg>