<?xml version="1.0" encoding="us-ascii" standalone="no"?><svg xmlns="http://www.w3.org/2000/svg" xmlns:xlink="http://www.w3.org/1999/xlink" contentStyleType="text/css" height="1882.2917px" preserveAspectRatio="none" style="width:767px;height:1882px;background:#FFFFFF;" version="1.1" viewBox="0 0 767 1882" width="767.7083px" zoomAndPan="magnify"><defs><filter height="300%" id="f1ofmmf0yreojb" width="300%" x="-1" y="-1"><feGaussianBlur result="blurOut" stdDeviation="2.0833333333333335"/><feColorMatrix in="blurOut" result="blurOut2" type="matrix" values="0 0 0 0 0 0 0 0 0 0 0 0 0 0 0 0 0 0 .4 0"/><feOffset dx="4.166666666666667" dy="4.166666666666667" in="blurOut2" result="blurOut3"/><feBlend in="SourceGraphic" in2="blurOut3" mode="normal"/></filter></defs><g><rect fill="none" filter="url(#f1ofmmf0yreojb)" height="1626.9206" rx="4.1667" ry="4.1667" style="stroke:#9803FC;stroke-width:1.0416666666666667;" width="729.1667" x="20.8333" y="130.1758"/><rect fill="none" filter="url(#f1ofmmf0yreojb)" height="896.2565" rx="4.1667" ry="4.1667" style="stroke:#9803FC;stroke-width:1.0416666666666667;" width="687.5" x="41.6667" y="194.694"/><rect fill="none" filter="url(#f1ofmmf0yreojb)" height="644.2708" rx="4.1667" ry="4.1667" style="stroke:#9803FC;stroke-width:1.0416666666666667;" width="708.3333" x="31.25" y="1105.5339"/><rect fill="none" filter="url(#f1ofmmf0yreojb)" height="208.1706" rx="4.1667" ry="4.1667" style="stroke:#9803FC;stroke-width:1.0416666666666667;" width="500.5208" x="228.6458" y="1283.5286"/><rect fill="none" filter="url(#f1ofmmf0yreojb)" height="157.1615" rx="4.1667" ry="4.1667" style="stroke:#9803FC;stroke-width:1.0416666666666667;" width="418.75" x="41.6667" y="1585.3516"/><line style="stroke:#CCCCCC;stroke-width:1.0416666666666667;stroke-dasharray:5.0,5.0;" x1="85.4167" x2="85.4167" y1="112.4674" y2="1774.8047"/><line style="stroke:#CCCCCC;stroke-width:1.0416666666666667;stroke-dasharray:5.0,5.0;" x1="318.2292" x2="318.2292" y1="112.4674" y2="1774.8047"/><line style="stroke:#CCCCCC;stroke-width:1.0416666666666667;stroke-dasharray:5.0,5.0;" x1="608.3333" x2="608.3333" y1="112.4674" y2="1774.8047"/><text fill="#9803FC" font-family="Verdana" font-size="12.5" lengthAdjust="spacing" textLength="39.5833" x="62.5" y="99.1028">Player</text><ellipse cx="85.4167" cy="19.7917" fill="#9803FC" filter="url(#f1ofmmf0yreojb)" rx="8.3333" ry="8.3333" style="stroke:#9803FC;stroke-width:1.0416666666666667;"/><path d="M85.4167,28.125 L85.4167,56.25 M71.875,36.4583 L98.9583,36.4583 M85.4167,56.25 L71.875,71.875 M85.4167,56.25 L98.9583,71.875 " fill="none" filter="url(#f1ofmmf0yreojb)" style="stroke:#9803FC;stroke-width:1.0416666666666667;"/><text fill="#9803FC" font-family="Verdana" font-size="12.5" lengthAdjust="spacing" textLength="39.5833" x="62.5" y="1795.7825">Player</text><ellipse cx="85.4167" cy="1818.5221" fill="#9803FC" filter="url(#f1ofmmf0yreojb)" rx="8.3333" ry="8.3333" style="stroke:#9803FC;stroke-width:1.0416666666666667;"/><path d="M85.4167,1826.8555 L85.4167,1854.9805 M71.875,1835.1888 L98.9583,1835.1888 M85.4167,1854.9805 L71.875,1870.6055 M85.4167,1854.9805 L98.9583,1870.6055 " fill="none" filter="url(#f1ofmmf0yreojb)" style="stroke:#9803FC;stroke-width:1.0416666666666667;"/><rect fill="#FFFFFF" filter="url(#f1ofmmf0yreojb)" height="49.9674" rx="4.1667" ry="4.1667" style="stroke:#9803FC;stroke-width:1.0416666666666667;" width="72.9167" x="280.7292" y="58.3333"/><text fill="#9803FC" font-family="Verdana" font-size="12.5" lengthAdjust="spacing" textLength="37.5" x="298.4375" y="87.6444">Game</text><rect fill="#FFFFFF" filter="url(#f1ofmmf0yreojb)" height="49.9674" rx="4.1667" ry="4.1667" style="stroke:#9803FC;stroke-width:1.0416666666666667;" width="72.9167" x="280.7292" y="1773.763"/><text fill="#9803FC" font-family="Verdana" font-size="12.5" lengthAdjust="spacing" textLength="37.5" x="298.4375" y="1803.0741">Game</text><rect fill="#FFFFFF" filter="url(#f1ofmmf0yreojb)" height="49.9674" rx="4.1667" ry="4.1667" style="stroke:#9803FC;stroke-width:1.0416666666666667;" width="134.375" x="539.5833" y="58.3333"/><text fill="#9803FC" font-family="Verdana" font-size="12.5" lengthAdjust="spacing" textLength="98.9583" x="557.2917" y="87.6444">StorageService</text><rect fill="#FFFFFF" filter="url(#f1ofmmf0yreojb)" height="49.9674" rx="4.1667" ry="4.1667" style="stroke:#9803FC;stroke-width:1.0416666666666667;" width="134.375" x="539.5833" y="1773.763"/><text fill="#9803FC" font-family="Verdana" font-size="12.5" lengthAdjust="spacing" textLength="98.9583" x="557.2917" y="1803.0741">StorageService</text><path d="M25,130.1758 L120.8333,130.1758 L120.8333,157.2266 L110.4167,167.6432 L20.8333,167.6432 L20.8333,134.3424 A4.1667,4.1667 0 0 1 25,130.1758 " fill="#FFFFFF" style="stroke:#9803FC;stroke-width:1.0416666666666667;"/><rect fill="none" height="1626.9206" rx="4.1667" ry="4.1667" style="stroke:#9803FC;stroke-width:1.0416666666666667;" width="729.1667" x="20.8333" y="130.1758"/><text fill="#9C27B0" font-family="Verdana" font-size="12.5" font-weight="bold" lengthAdjust="spacing" textLength="32.2917" x="46.875" y="153.2369">loop</text><text fill="#222222" font-family="Verdana" font-size="12.5" font-weight="bold" lengthAdjust="spacing" textLength="136.4583" x="146.875" y="154.2786">[while !Game.EXIT]</text><path d="M45.8333,194.694 L129.1667,194.694 L129.1667,221.7448 L118.75,232.1615 L41.6667,232.1615 L41.6667,198.8607 A4.1667,4.1667 0 0 1 45.8333,194.694 " fill="#FFFFFF" style="stroke:#9803FC;stroke-width:1.0416666666666667;"/><rect fill="none" height="896.2565" rx="4.1667" ry="4.1667" style="stroke:#9803FC;stroke-width:1.0416666666666667;" width="687.5" x="41.6667" y="194.694"/><text fill="#9C27B0" font-family="Verdana" font-size="12.5" font-weight="bold" lengthAdjust="spacing" textLength="19.7917" x="67.7083" y="217.7551">alt</text><text fill="#222222" font-family="Verdana" font-size="12.5" font-weight="bold" lengthAdjust="spacing" textLength="163.5417" x="155.2083" y="218.7968">[command=newGame]</text><polygon fill="#9803FC" points="306.25,289.388,316.6667,293.5547,306.25,297.7214,310.4167,293.5547" style="stroke:#9803FC;stroke-width:1.0416666666666667;"/><line style="stroke:#9803FC;stroke-width:3.125;" x1="85.4167" x2="312.5" y1="293.5547" y2="293.5547"/><text fill="#222222" font-family="Verdana" font-size="12.5" lengthAdjust="spacing" textLength="151.0417" x="103.125" y="278.1067">newGame(playerName)</text><polygon fill="#9803FC" points="595.8333,339.3555,606.25,343.5221,595.8333,347.6888,600,343.5221" style="stroke:#9803FC;stroke-width:1.0416666666666667;"/><line style="stroke:#9803FC;stroke-width:3.125;" x1="318.75" x2="602.0833" y1="343.5221" y2="343.5221"/><text fill="#222222" font-family="Verdana" font-size="12.5" lengthAdjust="spacing" textLength="240.625" x="336.4583" y="328.0741">Requests a new game for the player.</text><polygon fill="#9803FC" points="330.2083,389.3229,319.7917,393.4896,330.2083,397.6563,326.0417,393.4896" style="stroke:#9803FC;stroke-width:1.0416666666666667;"/><line style="stroke:#9803FC;stroke-width:3.125;" x1="323.9583" x2="607.2917" y1="393.4896" y2="393.4896"/><text fill="#222222" font-family="Verdana" font-size="12.5" lengthAdjust="spacing" textLength="86.4583" x="346.875" y="378.0416">Game object.</text><line style="stroke:#9803FC;stroke-width:3.125;" x1="318.75" x2="362.5" y1="443.457" y2="443.457"/><line style="stroke:#9803FC;stroke-width:3.125;" x1="362.5" x2="362.5" y1="443.457" y2="456.9987"/><line style="stroke:#9803FC;stroke-width:3.125;" x1="319.7917" x2="362.5" y1="456.9987" y2="456.9987"/><polygon fill="#9803FC" points="330.2083,452.832,319.7917,456.9987,330.2083,461.1654,326.0417,456.9987" style="stroke:#9803FC;stroke-width:1.0416666666666667;"/><text fill="#222222" font-family="Verdana" font-size="12.5" lengthAdjust="spacing" textLength="155.2083" x="336.4583" y="428.009">Populates game object.</text><line style="stroke:#9803FC;stroke-width:1.0416666666666667;stroke-dasharray:2.0,2.0;" x1="41.6667" x2="729.1667" y1="466.3737" y2="466.3737"/><text fill="#222222" font-family="Verdana" font-size="12.5" font-weight="bold" lengthAdjust="spacing" textLength="164.5833" x="57.2917" y="488.3931">[command=loadGame]</text><polygon fill="#9803FC" points="306.25,540.2669,316.6667,544.4336,306.25,548.6003,310.4167,544.4336" style="stroke:#9803FC;stroke-width:1.0416666666666667;"/><line style="stroke:#9803FC;stroke-width:3.125;" x1="85.4167" x2="312.5" y1="544.4336" y2="544.4336"/><text fill="#222222" font-family="Verdana" font-size="12.5" lengthAdjust="spacing" textLength="123.9583" x="103.125" y="528.9856">loadGame(gameId)</text><polygon fill="#9803FC" points="595.8333,590.2344,606.25,594.401,595.8333,598.5677,600,594.401" style="stroke:#9803FC;stroke-width:1.0416666666666667;"/><line style="stroke:#9803FC;stroke-width:3.125;" x1="318.75" x2="602.0833" y1="594.401" y2="594.401"/><text fill="#222222" font-family="Verdana" font-size="12.5" lengthAdjust="spacing" textLength="141.6667" x="336.4583" y="578.953">Game object request.</text><polygon fill="#9803FC" points="330.2083,640.2018,319.7917,644.3685,330.2083,648.5352,326.0417,644.3685" style="stroke:#9803FC;stroke-width:1.0416666666666667;"/><line style="stroke:#9803FC;stroke-width:3.125;" x1="323.9583" x2="607.2917" y1="644.3685" y2="644.3685"/><text fill="#222222" font-family="Verdana" font-size="12.5" lengthAdjust="spacing" textLength="86.4583" x="346.875" y="628.9205">Game object.</text><line style="stroke:#9803FC;stroke-width:3.125;" x1="318.75" x2="362.5" y1="694.3359" y2="694.3359"/><line style="stroke:#9803FC;stroke-width:3.125;" x1="362.5" x2="362.5" y1="694.3359" y2="707.8776"/><line style="stroke:#9803FC;stroke-width:3.125;" x1="319.7917" x2="362.5" y1="707.8776" y2="707.8776"/><polygon fill="#9803FC" points="330.2083,703.7109,319.7917,707.8776,330.2083,712.0443,326.0417,707.8776" style="stroke:#9803FC;stroke-width:1.0416666666666667;"/><text fill="#222222" font-family="Verdana" font-size="12.5" lengthAdjust="spacing" textLength="155.2083" x="336.4583" y="678.8879">Populates game object.</text><line style="stroke:#9803FC;stroke-width:1.0416666666666667;stroke-dasharray:2.0,2.0;" x1="41.6667" x2="729.1667" y1="717.2526" y2="717.2526"/><text fill="#222222" font-family="Verdana" font-size="12.5" font-weight="bold" lengthAdjust="spacing" textLength="163.5417" x="57.2917" y="739.2721">[command=listGames]</text><polygon fill="#9803FC" points="306.25,791.1458,316.6667,795.3125,306.25,799.4792,310.4167,795.3125" style="stroke:#9803FC;stroke-width:1.0416666666666667;"/><line style="stroke:#9803FC;stroke-width:3.125;" x1="85.4167" x2="312.5" y1="795.3125" y2="795.3125"/><text fill="#222222" font-family="Verdana" font-size="12.5" lengthAdjust="spacing" textLength="63.5417" x="103.125" y="779.8645">listGames</text><polygon fill="#9803FC" points="595.8333,841.1133,606.25,845.2799,595.8333,849.4466,600,845.2799" style="stroke:#9803FC;stroke-width:1.0416666666666667;"/><line style="stroke:#9803FC;stroke-width:3.125;" x1="318.75" x2="602.0833" y1="845.2799" y2="845.2799"/><text fill="#222222" font-family="Verdana" font-size="12.5" lengthAdjust="spacing" textLength="119.7917" x="336.4583" y="829.8319">Game list request.</text><polygon fill="#9803FC" points="330.2083,891.0807,319.7917,895.2474,330.2083,899.4141,326.0417,895.2474" style="stroke:#9803FC;stroke-width:1.0416666666666667;"/><line style="stroke:#9803FC;stroke-width:3.125;" x1="323.9583" x2="607.2917" y1="895.2474" y2="895.2474"/><text fill="#222222" font-family="Verdana" font-size="12.5" lengthAdjust="spacing" textLength="90.625" x="346.875" y="879.7994">List of games.</text><polygon fill="#9803FC" points="96.875,941.0482,86.4583,945.2148,96.875,949.3815,92.7083,945.2148" style="stroke:#9803FC;stroke-width:1.0416666666666667;"/><line style="stroke:#9803FC;stroke-width:3.125;" x1="90.625" x2="317.7083" y1="945.2148" y2="945.2148"/><text fill="#222222" font-family="Verdana" font-size="12.5" lengthAdjust="spacing" textLength="159.375" x="113.5417" y="929.7668">Shows the list of games.</text><line style="stroke:#9803FC;stroke-width:1.0416666666666667;stroke-dasharray:2.0,2.0;" x1="41.6667" x2="729.1667" y1="954.5898" y2="954.5898"/><text fill="#222222" font-family="Verdana" font-size="12.5" font-weight="bold" lengthAdjust="spacing" textLength="180.2083" x="57.2917" y="976.6093">[command=deleteGame]</text><polygon fill="#9803FC" points="306.25,1028.4831,316.6667,1032.6497,306.25,1036.8164,310.4167,1032.6497" style="stroke:#9803FC;stroke-width:1.0416666666666667;"/><line style="stroke:#9803FC;stroke-width:3.125;" x1="85.4167" x2="312.5" y1="1032.6497" y2="1032.6497"/><text fill="#222222" font-family="Verdana" font-size="12.5" lengthAdjust="spacing" textLength="79.1667" x="103.125" y="1017.2017">deleteGame</text><polygon fill="#9803FC" points="595.8333,1078.4505,606.25,1082.6172,595.8333,1086.7839,600,1082.6172" style="stroke:#9803FC;stroke-width:1.0416666666666667;"/><line style="stroke:#9803FC;stroke-width:3.125;" x1="318.75" x2="602.0833" y1="1082.6172" y2="1082.6172"/><text fill="#222222" font-family="Verdana" font-size="12.5" lengthAdjust="spacing" textLength="187.5" x="336.4583" y="1067.1692">Delete game object request.</text><path d="M35.4167,1105.5339 L131.25,1105.5339 L131.25,1132.5846 L120.8333,1143.0013 L31.25,1143.0013 L31.25,1109.7005 A4.1667,4.1667 0 0 1 35.4167,1105.5339 " fill="#FFFFFF" style="stroke:#9803FC;stroke-width:1.0416666666666667;"/><rect fill="none" height="644.2708" rx="4.1667" ry="4.1667" style="stroke:#9803FC;stroke-width:1.0416666666666667;" width="708.3333" x="31.25" y="1105.5339"/><text fill="#9C27B0" font-family="Verdana" font-size="12.5" font-weight="bold" lengthAdjust="spacing" textLength="32.2917" x="57.2917" y="1128.595">loop</text><text fill="#222222" font-family="Verdana" font-size="12.5" font-weight="bold" lengthAdjust="spacing" textLength="331.25" x="157.2917" y="1129.6366">[while !Player.hasWon and !Player.hasDied)]</text><polygon fill="#9803FC" points="306.25,1200.2279,316.6667,1204.3945,306.25,1208.5612,310.4167,1204.3945" style="stroke:#9803FC;stroke-width:1.0416666666666667;"/><line style="stroke:#9803FC;stroke-width:3.125;" x1="85.4167" x2="312.5" y1="1204.3945" y2="1204.3945"/><text fill="#222222" font-family="Verdana" font-size="12.5" lengthAdjust="spacing" textLength="170.8333" x="103.125" y="1188.9465">Player enters a command.</text><line style="stroke:#9803FC;stroke-width:3.125;" x1="318.75" x2="362.5" y1="1254.362" y2="1254.362"/><line style="stroke:#9803FC;stroke-width:3.125;" x1="362.5" x2="362.5" y1="1254.362" y2="1267.9036"/><line style="stroke:#9803FC;stroke-width:3.125;" x1="319.7917" x2="362.5" y1="1267.9036" y2="1267.9036"/><polygon fill="#9803FC" points="330.2083,1263.737,319.7917,1267.9036,330.2083,1272.0703,326.0417,1267.9036" style="stroke:#9803FC;stroke-width:1.0416666666666667;"/><text fill="#222222" font-family="Verdana" font-size="12.5" lengthAdjust="spacing" textLength="206.25" x="336.4583" y="1238.914">Command parse and validation.</text><path d="M232.8125,1283.5286 L316.1458,1283.5286 L316.1458,1310.5794 L305.7292,1320.9961 L228.6458,1320.9961 L228.6458,1287.6953 A4.1667,4.1667 0 0 1 232.8125,1283.5286 " fill="#FFFFFF" style="stroke:#9803FC;stroke-width:1.0416666666666667;"/><rect fill="none" height="208.1706" rx="4.1667" ry="4.1667" style="stroke:#9803FC;stroke-width:1.0416666666666667;" width="500.5208" x="228.6458" y="1283.5286"/><text fill="#9C27B0" font-family="Verdana" font-size="12.5" font-weight="bold" lengthAdjust="spacing" textLength="19.7917" x="254.6875" y="1306.5898">alt</text><text fill="#222222" font-family="Verdana" font-size="12.5" font-weight="bold" lengthAdjust="spacing" textLength="125" x="342.1875" y="1307.6314">[command=save]</text><polygon fill="#9803FC" points="595.8333,1378.2227,606.25,1382.3893,595.8333,1386.556,600,1382.3893" style="stroke:#9803FC;stroke-width:1.0416666666666667;"/><line style="stroke:#9803FC;stroke-width:3.125;" x1="318.75" x2="602.0833" y1="1382.3893" y2="1382.3893"/><text fill="#222222" font-family="Verdana" font-size="12.5" lengthAdjust="spacing" textLength="243.75" x="336.4583" y="1366.9413">Request to save current game object</text><line style="stroke:#9803FC;stroke-width:1.0416666666666667;stroke-dasharray:2.0,2.0;" x1="228.6458" x2="729.1667" y1="1391.7643" y2="1391.7643"/><text fill="#222222" font-family="Verdana" font-size="12.5" font-weight="bold" lengthAdjust="spacing" textLength="41.6667" x="244.2708" y="1413.7838">[else]</text><line style="stroke:#9803FC;stroke-width:3.125;" x1="318.75" x2="362.5" y1="1469.8242" y2="1469.8242"/><line style="stroke:#9803FC;stroke-width:3.125;" x1="362.5" x2="362.5" y1="1469.8242" y2="1483.3659"/><line style="stroke:#9803FC;stroke-width:3.125;" x1="319.7917" x2="362.5" y1="1483.3659" y2="1483.3659"/><polygon fill="#9803FC" points="330.2083,1479.1992,319.7917,1483.3659,330.2083,1487.5326,326.0417,1483.3659" style="stroke:#9803FC;stroke-width:1.0416666666666667;"/><text fill="#222222" font-family="Verdana" font-size="12.5" lengthAdjust="spacing" textLength="131.25" x="336.4583" y="1454.3762">Game state update.</text><polygon fill="#9803FC" points="96.875,1565.5599,86.4583,1569.7266,96.875,1573.8932,92.7083,1569.7266" style="stroke:#9803FC;stroke-width:1.0416666666666667;"/><line style="stroke:#9803FC;stroke-width:3.125;" x1="90.625" x2="317.7083" y1="1569.7266" y2="1569.7266"/><text fill="#222222" font-family="Verdana" font-size="12.5" lengthAdjust="spacing" textLength="167.7083" x="113.5417" y="1525.177">Command output may be:</text><text fill="#222222" font-family="Verdana" font-size="12.5" lengthAdjust="spacing" textLength="187.5" x="113.5417" y="1539.7278">1) Input request for the user</text><text fill="#222222" font-family="Verdana" font-size="12.5" lengthAdjust="spacing" textLength="123.9583" x="113.5417" y="1554.2786">2) Command result</text><path d="M45.8333,1585.3516 L134.375,1585.3516 L134.375,1612.4023 L123.9583,1622.819 L41.6667,1622.819 L41.6667,1589.5182 A4.1667,4.1667 0 0 1 45.8333,1585.3516 " fill="#FFFFFF" style="stroke:#9803FC;stroke-width:1.0416666666666667;"/><rect fill="none" height="157.1615" rx="4.1667" ry="4.1667" style="stroke:#9803FC;stroke-width:1.0416666666666667;" width="418.75" x="41.6667" y="1585.3516"/><text fill="#9C27B0" font-family="Verdana" font-size="12.5" font-weight="bold" lengthAdjust="spacing" textLength="25" x="67.7083" y="1608.4127">opt</text><text fill="#222222" font-family="Verdana" font-size="12.5" font-weight="bold" lengthAdjust="spacing" textLength="284.375" x="160.4167" y="1609.4543">[The command requested a new input]</text><polygon fill="#9803FC" points="306.25,1680.0456,316.6667,1684.2122,306.25,1688.3789,310.4167,1684.2122" style="stroke:#9803FC;stroke-width:1.0416666666666667;"/><line style="stroke:#9803FC;stroke-width:3.125;" x1="85.4167" x2="312.5" y1="1684.2122" y2="1684.2122"/><text fill="#222222" font-family="Verdana" font-size="12.5" lengthAdjust="spacing" textLength="120.8333" x="103.125" y="1668.7642">Input specific data</text><polygon fill="#9803FC" points="96.875,1730.013,86.4583,1734.1797,96.875,1738.3464,92.7083,1734.1797" style="stroke:#9803FC;stroke-width:1.0416666666666667;"/><line style="stroke:#9803FC;stroke-width:3.125;" x1="90.625" x2="317.7083" y1="1734.1797" y2="1734.1797"/><text fill="#222222" font-family="Verdana" font-size="12.5" lengthAdjust="spacing" textLength="132.2917" x="113.5417" y="1718.7317">Output specific data</text><!--SRC=[lLJBRjim4BphApR89Jx4IDjBQw05ycW20qLhr07QGouCjRROK5oMf6m4HV-zVCWs9TjAJXLWIkOEPsUMIvwu2ck4cZaqWfrJuwHGM1JsIIZD3AlXqXXQNvCa0wSVtb-yM_0iUCNuqz9GeyeMSHkVrow_v8xC5PaIpI3abfGRvkZhs8FDc7622ysK6sBBOCEwSk2BHVXJm1n_DwWutdcWFaJzjoXOi08poPxH57gN0EvOZPs9kGUo9SxHh0JtsoM9DAmh8H5E0dZy-UVqlW1WqW6dkcQg_AXm7Nd0Foa7d7-Ar1DeOsSwpd_rdwE82vC1rSqtWU_1ZNKMM5WAom1RUEs-co1nZEFwxhfTliXBZx-Gkt4dKGhFI3VIjwHDp3iWIejRGv9OUTJH9dWM6ARbi9rC3fXaxN_e5zO5l3rie1CTL1wWhzFz9I1f4MNPhlAKVmBpYjOsRgJiWplgIvJey6ZzU-5Z-cyYB2zJRWHLMVXNtjqfpxXYzWSfy4BogHk1xKxtvRJ_KVbxBdHjw-BGvbsd4FZpvks6hnMJecHEa4huEEH7ox9LildYYG574D306sEycjnvP8Wr3aEFB-ixwtnhGQEz94o2sZhjR-R6Yx_NTUFyDVyCZpXvK6z6C5LXfYtszl0s5is3UZlQhZHe6vcaaNPmNsqxOBCMo_OM486nbTslVyfcDNAn41oyTDOpk97yBKdTXmQJQVI_Vm00]--></g></svg>