<?xml version="1.0" encoding="us-ascii" standalone="no"?><svg xmlns="http://www.w3.org/2000/svg" xmlns:xlink="http://www.w3.org/1999/xlink" contentStyleType="text/css" height="1010.4167px" preserveAspectRatio="none" style="width:1456px;height:1010px;background:#FFFFFF;" version="1.1" viewBox="0 0 1456 1010" width="1456.25px" zoomAndPan="magnify"><defs><filter height="300%" id="fmvzb0tttfaah" width="300%" x="-1" y="-1"><feGaussianBlur result="blurOut" stdDeviation="2.0833333333333335"/><feColorMatrix in="blurOut" result="blurOut2" type="matrix" values="0 0 0 0 0 0 0 0 0 0 0 0 0 0 0 0 0 0 .4 0"/><feOffset dx="4.166666666666667" dy="4.166666666666667" in="blurOut2" result="blurOut3"/><feBlend in="SourceGraphic" in2="blurOut3" mode="normal"/></filter></defs><g><rect fill="none" filter="url(#fmvzb0tttfaah)" height="858.7891" style="stroke:#CCCCCC;stroke-width:1.0416666666666667;" width="10.4167" x="189.5833" y="74.9674"/><rect fill="none" filter="url(#fmvzb0tttfaah)" height="679.7526" style="stroke:#CCCCCC;stroke-width:1.0416666666666667;" width="10.4167" x="620.8333" y="231.0872"/><rect fill="none" filter="url(#fmvzb0tttfaah)" height="49.9674" style="stroke:#CCCCCC;stroke-width:1.0416666666666667;" width="10.4167" x="973.9583" y="409.082"/><rect fill="none" filter="url(#fmvzb0tttfaah)" height="49.9674" style="stroke:#CCCCCC;stroke-width:1.0416666666666667;" width="10.4167" x="1319.7917" y="609.9935"/><rect fill="none" filter="url(#fmvzb0tttfaah)" height="794.2383" rx="4.1667" ry="4.1667" style="stroke:#9803FC;stroke-width:1.0416666666666667;" width="1352.0833" x="86.9792" y="132.2266"/><rect fill="none" filter="url(#fmvzb0tttfaah)" height="608.9518" rx="4.1667" ry="4.1667" style="stroke:#9803FC;stroke-width:1.0416666666666667;" width="1331.25" x="97.3958" y="310.2214"/><line style="stroke:#CCCCCC;stroke-width:1.0416666666666667;stroke-dasharray:5.0,5.0;" x1="194.2708" x2="194.2708" y1="64.5508" y2="944.1732"/><line style="stroke:#CCCCCC;stroke-width:1.0416666666666667;stroke-dasharray:5.0,5.0;" x1="625.5208" x2="625.5208" y1="64.5508" y2="944.1732"/><line style="stroke:#CCCCCC;stroke-width:1.0416666666666667;stroke-dasharray:5.0,5.0;" x1="979.1667" x2="979.1667" y1="64.5508" y2="944.1732"/><line style="stroke:#CCCCCC;stroke-width:1.0416666666666667;stroke-dasharray:5.0,5.0;" x1="1324.4792" x2="1324.4792" y1="64.5508" y2="944.1732"/><rect fill="#FFFFFF" filter="url(#fmvzb0tttfaah)" height="49.9674" rx="4.1667" ry="4.1667" style="stroke:#9803FC;stroke-width:1.0416666666666667;" width="87.5" x="149.4792" y="10.4167"/><text fill="#9803FC" font-family="Verdana" font-size="12.5" lengthAdjust="spacing" textLength="52.0833" x="167.1875" y="39.7278">Console</text><rect fill="#FFFFFF" filter="url(#fmvzb0tttfaah)" height="49.9674" rx="4.1667" ry="4.1667" style="stroke:#9803FC;stroke-width:1.0416666666666667;" width="87.5" x="149.4792" y="943.1315"/><text fill="#9803FC" font-family="Verdana" font-size="12.5" lengthAdjust="spacing" textLength="52.0833" x="167.1875" y="972.4426">Console</text><rect fill="#FFFFFF" filter="url(#fmvzb0tttfaah)" height="49.9674" rx="4.1667" ry="4.1667" style="stroke:#9803FC;stroke-width:1.0416666666666667;" width="131.25" x="558.8542" y="10.4167"/><text fill="#9803FC" font-family="Verdana" font-size="12.5" lengthAdjust="spacing" textLength="95.8333" x="576.5625" y="39.7278">Autocompleter</text><rect fill="#FFFFFF" filter="url(#fmvzb0tttfaah)" height="49.9674" rx="4.1667" ry="4.1667" style="stroke:#9803FC;stroke-width:1.0416666666666667;" width="131.25" x="558.8542" y="943.1315"/><text fill="#9803FC" font-family="Verdana" font-size="12.5" lengthAdjust="spacing" textLength="95.8333" x="576.5625" y="972.4426">Autocompleter</text><rect fill="#FFFFFF" filter="url(#fmvzb0tttfaah)" height="49.9674" rx="4.1667" ry="4.1667" style="stroke:#9803FC;stroke-width:1.0416666666666667;" width="142.7083" x="906.25" y="10.4167"/><text fill="#9803FC" font-family="Verdana" font-size="12.5" lengthAdjust="spacing" textLength="107.2917" x="923.9583" y="39.7278">CommandParser</text><rect fill="#FFFFFF" filter="url(#fmvzb0tttfaah)" height="49.9674" rx="4.1667" ry="4.1667" style="stroke:#9803FC;stroke-width:1.0416666666666667;" width="142.7083" x="906.25" y="943.1315"/><text fill="#9803FC" font-family="Verdana" font-size="12.5" lengthAdjust="spacing" textLength="107.2917" x="923.9583" y="972.4426">CommandParser</text><rect fill="#FFFFFF" filter="url(#fmvzb0tttfaah)" height="49.9674" rx="4.1667" ry="4.1667" style="stroke:#9803FC;stroke-width:1.0416666666666667;" width="100" x="1273.4375" y="10.4167"/><text fill="#9803FC" font-family="Verdana" font-size="12.5" lengthAdjust="spacing" textLength="64.5833" x="1291.1458" y="39.7278">Command</text><rect fill="#FFFFFF" filter="url(#fmvzb0tttfaah)" height="49.9674" rx="4.1667" ry="4.1667" style="stroke:#9803FC;stroke-width:1.0416666666666667;" width="100" x="1273.4375" y="943.1315"/><text fill="#9803FC" font-family="Verdana" font-size="12.5" lengthAdjust="spacing" textLength="64.5833" x="1291.1458" y="972.4426">Command</text><rect fill="none" filter="url(#fmvzb0tttfaah)" height="858.7891" style="stroke:#CCCCCC;stroke-width:1.0416666666666667;" width="10.4167" x="189.5833" y="74.9674"/><rect fill="none" filter="url(#fmvzb0tttfaah)" height="679.7526" style="stroke:#CCCCCC;stroke-width:1.0416666666666667;" width="10.4167" x="620.8333" y="231.0872"/><rect fill="none" filter="url(#fmvzb0tttfaah)" height="49.9674" style="stroke:#CCCCCC;stroke-width:1.0416666666666667;" width="10.4167" x="973.9583" y="409.082"/><rect fill="none" filter="url(#fmvzb0tttfaah)" height="49.9674" style="stroke:#CCCCCC;stroke-width:1.0416666666666667;" width="10.4167" x="1319.7917" y="609.9935"/><polygon fill="#9803FC" points="177.0833,112.4349,187.5,116.6016,177.0833,120.7682,181.25,116.6016" style="stroke:#9803FC;stroke-width:1.0416666666666667;"/><line style="stroke:#9803FC;stroke-width:3.125;" x1="10.4167" x2="183.3333" y1="116.6016" y2="116.6016"/><text fill="#222222" font-family="Verdana" font-size="12.5" lengthAdjust="spacing" textLength="138.5417" x="28.125" y="101.1536">Keyboard input event</text><path d="M91.1458,132.2266 L174.4792,132.2266 L174.4792,159.2773 L164.0625,169.694 L86.9792,169.694 L86.9792,136.3932 A4.1667,4.1667 0 0 1 91.1458,132.2266 " fill="#FFFFFF" style="stroke:#9803FC;stroke-width:1.0416666666666667;"/><rect fill="none" height="794.2383" rx="4.1667" ry="4.1667" style="stroke:#9803FC;stroke-width:1.0416666666666667;" width="1352.0833" x="86.9792" y="132.2266"/><text fill="#9C27B0" font-family="Verdana" font-size="12.5" font-weight="bold" lengthAdjust="spacing" textLength="19.7917" x="113.0208" y="155.2877">alt</text><text fill="#222222" font-family="Verdana" font-size="12.5" font-weight="bold" lengthAdjust="spacing" textLength="537.5" x="200.5208" y="156.3293">[key != Key.TAB and key != Key.SHIFT+TAB and the key modifies the text]</text><polygon fill="#9803FC" points="608.3333,226.9206,618.75,231.0872,608.3333,235.2539,612.5,231.0872" style="stroke:#9803FC;stroke-width:1.0416666666666667;"/><line style="stroke:#9803FC;stroke-width:3.125;" x1="200" x2="614.5833" y1="231.0872" y2="231.0872"/><text fill="#222222" font-family="Verdana" font-size="12.5" lengthAdjust="spacing" textLength="107.2917" x="217.7083" y="215.6392">buildPrediction()</text><line style="stroke:#9803FC;stroke-width:3.125;" x1="631.25" x2="675" y1="281.0547" y2="281.0547"/><line style="stroke:#9803FC;stroke-width:3.125;" x1="675" x2="675" y1="281.0547" y2="294.5964"/><line style="stroke:#9803FC;stroke-width:3.125;" x1="632.2917" x2="675" y1="294.5964" y2="294.5964"/><polygon fill="#9803FC" points="642.7083,290.4297,632.2917,294.5964,642.7083,298.763,638.5417,294.5964" style="stroke:#9803FC;stroke-width:1.0416666666666667;"/><text fill="#222222" font-family="Verdana" font-size="12.5" lengthAdjust="spacing" textLength="307.2917" x="648.9583" y="265.6067">Calculates number of space separated tokens.</text><path d="M101.5625,310.2214 L184.8958,310.2214 L184.8958,337.2721 L174.4792,347.6888 L97.3958,347.6888 L97.3958,314.388 A4.1667,4.1667 0 0 1 101.5625,310.2214 " fill="#FFFFFF" style="stroke:#9803FC;stroke-width:1.0416666666666667;"/><rect fill="none" height="608.9518" rx="4.1667" ry="4.1667" style="stroke:#9803FC;stroke-width:1.0416666666666667;" width="1331.25" x="97.3958" y="310.2214"/><text fill="#9C27B0" font-family="Verdana" font-size="12.5" font-weight="bold" lengthAdjust="spacing" textLength="19.7917" x="123.4375" y="333.2825">alt</text><text fill="#222222" font-family="Verdana" font-size="12.5" font-weight="bold" lengthAdjust="spacing" textLength="313.5417" x="210.9375" y="334.3241">[tokens number = 1 and there is no space]</text><polygon fill="#9803FC" points="961.4583,404.9154,971.875,409.082,961.4583,413.2487,965.625,409.082" style="stroke:#9803FC;stroke-width:1.0416666666666667;"/><line style="stroke:#9803FC;stroke-width:3.125;" x1="631.25" x2="967.7083" y1="409.082" y2="409.082"/><text fill="#222222" font-family="Verdana" font-size="12.5" lengthAdjust="spacing" textLength="104.1667" x="648.9583" y="393.634">getCommands()</text><polygon fill="#9803FC" points="642.7083,454.8828,632.2917,459.0495,642.7083,463.2161,638.5417,459.0495" style="stroke:#9803FC;stroke-width:1.0416666666666667;"/><line style="stroke:#9803FC;stroke-width:3.125;stroke-dasharray:2.0,2.0;" x1="636.4583" x2="978.125" y1="459.0495" y2="459.0495"/><text fill="#222222" font-family="Verdana" font-size="12.5" lengthAdjust="spacing" textLength="206.25" x="659.375" y="443.6015">Returns all enabled commands.</text><line style="stroke:#9803FC;stroke-width:1.0416666666666667;stroke-dasharray:2.0,2.0;" x1="97.3958" x2="1428.6458" y1="468.4245" y2="468.4245"/><text fill="#222222" font-family="Verdana" font-size="12.5" font-weight="bold" lengthAdjust="spacing" textLength="293.75" x="113.0208" y="490.4439">[tokens number &gt; 1 or ends with space]</text><line style="stroke:#9803FC;stroke-width:3.125;" x1="631.25" x2="675" y1="546.4844" y2="546.4844"/><line style="stroke:#9803FC;stroke-width:3.125;" x1="675" x2="675" y1="546.4844" y2="560.026"/><line style="stroke:#9803FC;stroke-width:3.125;" x1="632.2917" x2="675" y1="560.026" y2="560.026"/><polygon fill="#9803FC" points="642.7083,555.8594,632.2917,560.026,642.7083,564.1927,638.5417,560.026" style="stroke:#9803FC;stroke-width:1.0416666666666667;"/><text fill="#222222" font-family="Verdana" font-size="12.5" lengthAdjust="spacing" textLength="275" x="648.9583" y="531.0364">Find the command from the last - 1 token.</text><polygon fill="#9803FC" points="1307.2917,605.8268,1317.7083,609.9935,1307.2917,614.1602,1311.4583,609.9935" style="stroke:#9803FC;stroke-width:1.0416666666666667;"/><line style="stroke:#9803FC;stroke-width:3.125;" x1="631.25" x2="1313.5417" y1="609.9935" y2="609.9935"/><text fill="#222222" font-family="Verdana" font-size="12.5" lengthAdjust="spacing" textLength="447.9167" x="648.9583" y="594.5455">Find if the command supports additional arguments using reflection.</text><polygon fill="#9803FC" points="642.7083,655.7943,632.2917,659.9609,642.7083,664.1276,638.5417,659.9609" style="stroke:#9803FC;stroke-width:1.0416666666666667;"/><line style="stroke:#9803FC;stroke-width:3.125;stroke-dasharray:2.0,2.0;" x1="636.4583" x2="1323.9583" y1="659.9609" y2="659.9609"/><text fill="#222222" font-family="Verdana" font-size="12.5" lengthAdjust="spacing" textLength="642.7083" x="659.375" y="644.5129">List of additional arguments (empty if there the command does not support additional arguments)</text><line style="stroke:#9803FC;stroke-width:3.125;" x1="631.25" x2="675" y1="709.9284" y2="709.9284"/><line style="stroke:#9803FC;stroke-width:3.125;" x1="675" x2="675" y1="709.9284" y2="723.4701"/><line style="stroke:#9803FC;stroke-width:3.125;" x1="632.2917" x2="675" y1="723.4701" y2="723.4701"/><polygon fill="#9803FC" points="642.7083,719.3034,632.2917,723.4701,642.7083,727.6367,638.5417,723.4701" style="stroke:#9803FC;stroke-width:1.0416666666666667;"/><text fill="#222222" font-family="Verdana" font-size="12.5" lengthAdjust="spacing" textLength="211.4583" x="648.9583" y="694.4804">Computes possible completions.</text><polygon fill="#9803FC" points="211.4583,769.2708,201.0417,773.4375,211.4583,777.6042,207.2917,773.4375" style="stroke:#9803FC;stroke-width:1.0416666666666667;"/><line style="stroke:#9803FC;stroke-width:3.125;stroke-dasharray:2.0,2.0;" x1="205.2083" x2="619.7917" y1="773.4375" y2="773.4375"/><text fill="#222222" font-family="Verdana" font-size="12.5" lengthAdjust="spacing" textLength="210.4167" x="228.125" y="757.9895">Possibile choces for completion.</text><line style="stroke:#9803FC;stroke-width:1.0416666666666667;stroke-dasharray:2.0,2.0;" x1="97.3958" x2="1428.6458" y1="782.8125" y2="782.8125"/><text fill="#222222" font-family="Verdana" font-size="12.5" font-weight="bold" lengthAdjust="spacing" textLength="277.0833" x="113.0208" y="804.8319">[key=Key.TAB or key=Key.SHIFT+TAB]</text><polygon fill="#9803FC" points="608.3333,856.7057,618.75,860.8724,608.3333,865.0391,612.5,860.8724" style="stroke:#9803FC;stroke-width:1.0416666666666667;"/><line style="stroke:#9803FC;stroke-width:3.125;" x1="200" x2="614.5833" y1="860.8724" y2="860.8724"/><text fill="#222222" font-family="Verdana" font-size="12.5" lengthAdjust="spacing" textLength="190.625" x="217.7083" y="845.4244">operate(input, shiftDirection)</text><polygon fill="#9803FC" points="211.4583,906.6732,201.0417,910.8398,211.4583,915.0065,207.2917,910.8398" style="stroke:#9803FC;stroke-width:1.0416666666666667;"/><line style="stroke:#9803FC;stroke-width:3.125;stroke-dasharray:2.0,2.0;" x1="205.2083" x2="625" y1="910.8398" y2="910.8398"/><text fill="#222222" font-family="Verdana" font-size="12.5" lengthAdjust="spacing" textLength="375" x="228.125" y="895.3918">Returns a list with all predictions and the suggested one.</text><!--SRC=[ZLJRRjf047tVhvYeBw0MrAelBHAHW8gsQXzGanzOxB5PiTxPxYKfglhl7MziOeCXGRA4vtBcpCmPtuGTLWYL3EYKd50CMXaKmk-LiTB92XREqUEAD3buy_dJ-uz5rd4kPROl7KMJDn7hz7jj-Y8Bv9RaSdHNGzPamdMCKnvdOHlfWigKbIPSG-k4NUVL3Nnn27y5tE7lY2R3hnneXw3_2M6VCM55nfF6dcqH0sLKMOsyhPFegf8cPr9-s2E4a5bG3xpd8_JajlqxWnzus99qEJ3b600Vq0GXTO0z7k1cNlkdzuibC5JNTFVj-_h-RUjWBILdHRag5Ffa2FWd26Wh0HVjjJ63RLGwtpZC5HCaCnfpz95hlsNsz0m3Q2kfiwWvrOE9rPPZg01lPORWiTv6G2PAUpH-MXVY5f_Usl0vV6YRSGYAxVIKpz43vNkJdq69eR7ur4YdbVwEQbVF0fFpPdvXY8wfIQq1ZTngvfuryDC4aUD5VDGUJtgxvTvOSiZfyAZ2hcbikBCJBclLRBWX08MZAXcqz04c39sAJSNLGJL0gkXX-MWjkS2TvhcgLI0rI5V6YcNe8NfbId1OQ4mIcGuEjZlIeM7-L4oJnJ1OOeIL3OU65k-zIowdMamKMfQ32ECBwtZTS3cOpuxBMF9UyPwXSNALPjCd4DtZtQGaLMVjA6EKWfVy390sajJ0npblBvb3sjVZ5JSZl7IfPB6-dr7wHhm3lrD5-ABSqrB6Bx4yYXbqlOcalrhOzdZw_lWLyR4iqTUdIWRFb7xsKM11Y_hfZJ-L_Gy0]--></g></svg>